<mxfile host="app.diagrams.net" agent="Mozilla/5.0 (Windows NT 10.0; Win64; x64) AppleWebKit/537.36 (KHTML, like Gecko) Chrome/134.0.0.0 Safari/537.36" version="26.2.14">
  <diagram name="Page-1" id="OBKoJfBO3RVOPFfOIHDO">
    <mxGraphModel dx="607" dy="334" grid="1" gridSize="10" guides="1" tooltips="1" connect="1" arrows="1" fold="1" page="1" pageScale="1" pageWidth="850" pageHeight="1100" math="0" shadow="0">
      <root>
        <mxCell id="0" />
        <mxCell id="1" parent="0" />
        <mxCell id="bDFLVS8GLw-XfKNNbhOj-1" value="" style="shape=image;verticalLabelPosition=bottom;labelBackgroundColor=default;verticalAlign=top;aspect=fixed;imageAspect=0;editableCssRules=.*;image=data:image/svg+xml,PHN2ZyB4bWxuczp4bGluaz0iaHR0cDovL3d3dy53My5vcmcvMTk5OS94bGluayIgeG1sbnM9Imh0dHA6Ly93d3cudzMub3JnLzIwMDAvc3ZnIiBoZWlnaHQ9IjE1MDIiIHdpZHRoPSIzMDAyIiB2aWV3Qm94PSItMTAwLjUgLTMwLjI0NDc5MTAzMDg4Mzc5IDMwMDIgMTUwMiI+PGcgdHJhbnNmb3JtPSJ0cmFuc2xhdGUoLTk5LjUgLTI5LjI0NDc5MTY2NjY2NjY2OCkiPjxwYXRoIGZpbGw9IiNmZmYiIGQ9Ik0wIDBoMzAwMHYxNTAwSDB6Ii8+PHBhdGggZmlsbD0iI2ZmZiIgc3Ryb2tlLXdpZHRoPSIyIiBzdHJva2U9IiMwMDAiIGQ9Ik0xMTQwIDg1LjM0YTYgNiAwIDAgMSA2LTZoMjY4YTYgNiAwIDAgMSA2IDZ2MTA4YTYgNiAwIDAgMS02IDZoLTI2OGE2IDYgMCAwIDEtNi02eiIvPjx1c2UgdHJhbnNmb3JtPSJtYXRyaXgoMSwwLDAsMSwxMTUyLDkxLjMzOTU0MzkzNDI4OTQ1KSB0cmFuc2xhdGUoMzguMzEzNTg1MDY5NDQ0NDYgNTcuNTI3Nzc3Nzc3Nzc3NzgpIiB4bGluazpocmVmPSIjYSIvPjx1c2UgdHJhbnNmb3JtPSJtYXRyaXgoMSwwLDAsMSwxMTUyLDkxLjMzOTU0MzkzNDI4OTQ1KSB0cmFuc2xhdGUoMTAzLjA3MDUyOTUxMzg4ODkgNTcuNTI3Nzc3Nzc3Nzc3NzgpIiB4bGluazpocmVmPSIjYiIvPjxwYXRoIGZpbGw9IiNmZmYiIHN0cm9rZS13aWR0aD0iMiIgc3Ryb2tlPSIjMDAwIiBkPSJNNDAwIDkzLjQzYzIyLjEgMCA0MCAxNy45IDQwIDQwcy0xNy45IDQwLTQwIDQwaC04MGMtMjIuMSAwLTQwLTE3LjktNDAtNDBzMTcuOS00MCA0MC00MHoiLz48dXNlIHRyYW5zZm9ybT0ibWF0cml4KDEsMCwwLDEsMjg1LDk4LjQyNzIwNzY2ODE0NTQpIHRyYW5zbGF0ZSgzOC40OTUgNDMuNDAyNzc3Nzc3Nzc3NzgpIiB4bGluazpocmVmPSIjYyIvPjx1c2UgdHJhbnNmb3JtPSJtYXRyaXgoMSwwLDAsMSwyODUsOTguNDI3MjA3NjY4MTQ1NCkgdHJhbnNsYXRlKDExMC41MDUgNDMuNDAyNzc3Nzc3Nzc3NzgpIiB4bGluazpocmVmPSIjZCIvPjxwYXRoIGZpbGw9IiNmZmYiIHN0cm9rZS13aWR0aD0iMiIgc3Ryb2tlPSIjMDAwIiBkPSJNNTU5LjY1IDEwNS40YTcuOCA3LjggMCAwIDEgNy41NS01LjhINzU0YTQuNiA0LjYgMCAwIDEgNC40NSA1LjhsLTE4LjEgNjcuOWE3LjggNy44IDAgMCAxLTcuNTUgNS44SDU0NmE0LjYgNC42IDAgMCAxLTQuNDUtNS44eiIvPjx1c2UgdHJhbnNmb3JtPSJtYXRyaXgoMSwwLDAsMSw1NDUsMTA0LjU4OTU0MzkzNDI4OTQ1KSB0cmFuc2xhdGUoNDguMDcxNDA2MjUgNDMuNDAyNzc3Nzc3Nzc3NzgpIiB4bGluazpocmVmPSIjZSIvPjx1c2UgdHJhbnNmb3JtPSJtYXRyaXgoMSwwLDAsMSw1NDUsMTA0LjU4OTU0MzkzNDI4OTQ1KSB0cmFuc2xhdGUoMTAzLjkwOTA3OTg2MTExMTExIDQzLjQwMjc3Nzc3Nzc3Nzc4KSIgeGxpbms6aHJlZj0iI2YiLz48cGF0aCBmaWxsPSJub25lIiBzdHJva2Utd2lkdGg9IjIiIHN0cm9rZT0iIzNhNDE0YSIgZD0iTTQ0MS41NCAxMzkuMzRoODkuNTIiLz48cGF0aCBmaWxsPSIjM2E0MTRhIiBzdHJva2Utd2lkdGg9Ii4wNSIgc3Ryb2tlPSIjM2E0MTRhIiBkPSJNNDQxLjU2IDE0MC4zaC0xLjJsLjMyLTEuN3YtLjIzaC44OHoiLz48cGF0aCBmaWxsPSIjM2E0MTRhIiBzdHJva2Utd2lkdGg9IjIiIHN0cm9rZT0iIzNhNDE0YSIgZD0iTTU0Ni4zMyAxMzkuMzRsLTE0LjI3IDQuNjN2LTkuMjd6Ii8+PHBhdGggZmlsbD0iI2ZmZiIgc3Ryb2tlLXdpZHRoPSIyIiBzdHJva2U9IiMwMDAiIGQ9Ik05MTQuODYgODIuNDNhMTAgMTAgMCAwIDEgMTAuMjggMGw4OS43MiA1My44MmEzLjYgMy42IDAgMCAxIDAgNi4xOGwtODkuNzIgNTMuODJhMTAgMTAgMCAwIDEtMTAuMjggMGwtODkuNzItNTMuODJhMy42IDMuNiAwIDAgMSAwLTYuMTh6Ii8+PHVzZSB0cmFuc2Zvcm09Im1hdHJpeCgxLDAsMCwxLDgyNSw4NC4zMzk1NDM5MzQyODk0NSkgdHJhbnNsYXRlKDg2LjE1NjI1ODY4MDU1NTU1IDM4LjcxNTI3Nzc3Nzc3Nzc4KSIgeGxpbms6aHJlZj0iI2ciLz48dXNlIHRyYW5zZm9ybT0ibWF0cml4KDEsMCwwLDEsODI1LDg0LjMzOTU0MzkzNDI4OTQ1KSB0cmFuc2xhdGUoMzMuMjA0ODY5NzkxNjY2Njc0IDcwLjk4MDkwMjc3Nzc3Nzc3KSIgeGxpbms6aHJlZj0iI2giLz48cGF0aCBmaWxsPSJub25lIiBzdHJva2Utd2lkdGg9IjIiIHN0cm9rZT0iIzNhNDE0YSIgZD0iTTc1MS40MyAxMzkuMzRoNTIuNDYiLz48cGF0aCBmaWxsPSIjM2E0MTRhIiBzdHJva2Utd2lkdGg9Ii4wNSIgc3Ryb2tlPSIjM2E0MTRhIiBkPSJNNzUxLjQ2IDE0MC4zaC0xLjNsLjU0LTEuOTRoLjc2eiIvPjxwYXRoIGZpbGw9IiMzYTQxNGEiIHN0cm9rZS13aWR0aD0iMiIgc3Ryb2tlPSIjM2E0MTRhIiBkPSJNODE5LjE2IDEzOS4zNGwtMTQuMjcgNC42M3YtOS4yN3oiLz48cGF0aCBmaWxsPSIjM2E0MTRhIiBzdHJva2Utd2lkdGg9Ii4wNSIgc3Ryb2tlPSIjM2E0MTRhIiBkPSJNNzYzLjQ4IDQwLjk4SDY1Ni4wNGwtLjgzLjA2LS43NS4xOC0uNzMuMy0uNjcuNDItLjYuNS0uNS42LS40My42OC0uMy43My0uMTguNzYtLjA2Ljg0VjgwLjFINjQ5VjQ1Ljk1bC4xLTEuMDUuMjQtMS4wNi40Mi0xIC41OC0uOTQuNy0uODMuODQtLjcyLjkzLS41NyAxLS40MiAxLjA4LS4yNSAxLjA2LS4wOGgxMDcuNTJ6bTE1MS42LTEuODdsMS4wOC4yNiAxIC40Mi45NC41Ny44My43Mi43Mi44My41Ny45My40MiAxIC4yNSAxLjA4LjA4IDEuMDZWNzlIOTE5VjQ2LjA0bC0uMDYtLjgzLS4xOC0uNzUtLjMtLjczLS40Mi0uNjctLjUtLjYtLjYtLjUtLjY4LS40My0uNzMtLjMtLjc2LS4xOC0uODQtLjA2SDc4Ny45M3YtMS45NWgxMjYuMXoiLz48cGF0aCBmaWxsPSIjM2E0MTRhIiBkPSJNOTIwLjk4IDgwLjA1TDkyMCA4MGwtLjk4LjA1di0xLjA4SDkyMXoiLz48cGF0aCBmaWxsPSIjM2E0MTRhIiBzdHJva2Utd2lkdGg9Ii4wNSIgc3Ryb2tlPSIjM2E0MTRhIi8+PHBhdGggZmlsbD0iIzNhNDE0YSIgZD0iTTY1MCA5NS4zNWwtNC42My0xNC4yNmg5LjI2eiIvPjxwYXRoIGZpbGw9IiMzYTQxNGEiIHN0cm9rZS13aWR0aD0iLjA1IiBzdHJva2U9IiMzYTQxNGEiIGQ9Ik02NTAgOTguNWwtNS45OC0xOC40aDExLjk2em0tMy4zLTE2LjQ0TDY1MCA5Mi4ybDMuMy0xMC4xNHoiLz48dXNlIHRyYW5zZm9ybT0ibWF0cml4KDEsMCwwLDEsNzYzLjQ3ODY0NDkzMzI4MzYsMjkuMjQ0NzkxNjY2NjY2NjY4KSB0cmFuc2xhdGUoMCAxNy4yMjIyMjIyMjIyMjIyMikiIHhsaW5rOmhyZWY9IiNpIi8+PHBhdGggZmlsbD0iIzNhNDE0YSIgc3Ryb2tlLXdpZHRoPSIuMDUiIHN0cm9rZT0iIzNhNDE0YSIgZD0iTTEwNjIuNSAxNDAuM2gtNDMuOXYtMS45NGg0My45em01OCAwaC0yNi40di0xLjk0aDI2LjR6Ii8+PHBhdGggZmlsbD0iIzNhNDE0YSIgZD0iTTEwMTguNjMgMTQwLjNoLTEuMTNsLjEtLjk2LS4xLS45NCAxLjEzLS4wM3oiLz48cGF0aCBmaWxsPSIjM2E0MTRhIiBzdHJva2Utd2lkdGg9Ii4wNSIgc3Ryb2tlPSIjM2E0MTRhIi8+PHBhdGggZmlsbD0iIzNhNDE0YSIgZD0iTTExMzUuNzYgMTM5LjM0bC0xNC4yNiA0LjYzdi05LjI3eiIvPjxwYXRoIGZpbGw9IiMzYTQxNGEiIHN0cm9rZS13aWR0aD0iLjA1IiBzdHJva2U9IiMzYTQxNGEiIGQ9Ik0xMTM4LjkyIDEzOS4zNGwtMTguNCA1Ljk4di0xMS45NnptLTE2LjQ1IDMuM2wxMC4xNC0zLjMtMTAuMTMtMy4zeiIvPjx1c2UgdHJhbnNmb3JtPSJtYXRyaXgoMSwwLDAsMSwxMDYyLjUwNTQ4Mjg4MDEyNiwxMjguNTg0MzM1NjAwOTU2MSkgdHJhbnNsYXRlKDAgMTcuMjIyMjIyMjIyMjIyMjIpIiB4bGluazpocmVmPSIjaiIvPjxwYXRoIGZpbGw9IiNmZmYiIHN0cm9rZS13aWR0aD0iMiIgc3Ryb2tlPSIjMDAwIiBkPSJNMTI3NC41NyAzMTUuOThhMTIuNzUgMTIuNzUgMCAwIDEgMTAuODYgMGwxNTkuMTQgNzQuOWEyLjgyIDIuODIgMCAwIDEgMCA1LjFsLTE1OS4xNCA3NC45YTEyLjc1IDEyLjc1IDAgMCAxLTEwLjg2IDBsLTE1OS4xNC03NC45YTIuODIgMi44MiAwIDAgMSAwLTUuMXoiLz48dXNlIHRyYW5zZm9ybT0ibWF0cml4KDEsMCwwLDEsMTExNSwzMTguNDI3MjA3NjY4MTQ1NCkgdHJhbnNsYXRlKDU5LjEwNzY0NzU2OTQ0NDQ2IDY4LjQwMjc3Nzc3Nzc3Nzc3KSIgeGxpbms6aHJlZj0iI2siLz48dXNlIHRyYW5zZm9ybT0ibWF0cml4KDEsMCwwLDEsMTExNSwzMTguNDI3MjA3NjY4MTQ1NCkgdHJhbnNsYXRlKDgzLjA1NTEzMDIwODMzMzM1IDY4LjQwMjc3Nzc3Nzc3Nzc3KSIgeGxpbms6aHJlZj0iI2wiLz48dXNlIHRyYW5zZm9ybT0ibWF0cml4KDEsMCwwLDEsMTExNSwzMTguNDI3MjA3NjY4MTQ1NCkgdHJhbnNsYXRlKDIwMy45MjEwMTU2MjUgNjguNDAyNzc3Nzc3Nzc3NzcpIiB4bGluazpocmVmPSIjbSIvPjx1c2UgdHJhbnNmb3JtPSJtYXRyaXgoMSwwLDAsMSwxMTE1LDMxOC40MjcyMDc2NjgxNDU0KSB0cmFuc2xhdGUoMTE3LjAzNDA3OTg2MTExMTExIDEwMC42Njg0MDI3Nzc3Nzc3NykiIHhsaW5rOmhyZWY9IiNuIi8+PHBhdGggZmlsbD0ibm9uZSIgc3Ryb2tlLXdpZHRoPSIyIiBzdHJva2U9IiMzYTQxNGEiIGQ9Ik0xMjgwIDIwMS4zNHY5My45MyIvPjxwYXRoIGZpbGw9IiMzYTQxNGEiIHN0cm9rZS13aWR0aD0iLjA1IiBzdHJva2U9IiMzYTQxNGEiIGQ9Ik0xMjgwLjk3IDIwMS4zN2gtMS45NHYtMS4wM2gxLjk0eiIvPjxwYXRoIGZpbGw9IiMzYTQxNGEiIHN0cm9rZS13aWR0aD0iMiIgc3Ryb2tlPSIjM2E0MTRhIiBkPSJNMTI4MCAzMTAuNTNsLTQuNjMtMTQuMjZoOS4yN3oiLz48cGF0aCBmaWxsPSIjM2E0MTRhIiBzdHJva2Utd2lkdGg9Ii4wNSIgc3Ryb2tlPSIjM2E0MTRhIiBkPSJNMTQ4OC4xNyAzODcuNDdsLS4wOCAxLjA1LS4yNiAxLjA2LS40MiAxLjAyLS41OC45My0uNy44My0uODQuNy0uOTMuNTgtMSAuNDItMS4wOC4yNi0xLjA2LjA4aC0zMy4wNHYtMS45NWgzMi45NmwuODItLjA2Ljc3LS4yLjczLS4zLjY3LS40LjYtLjUyLjUtLjYuNDItLjY3LjMtLjcyLjItLjc3LjA1LS44VjI2NC4wM2gxLjk1em0tNS44OC0yNDkuMDJsMS4wNi4yNSAxIC40Mi45NC41Ny44My43LjcuODQuNi45My40IDEgLjI2IDEuMDguMDcgMS4wNXY5Ny4yM2gtMS45NXYtOTcuMTVsLS4wNi0uODMtLjItLjc2LS4zLS43NC0uNC0uNjctLjUtLjYtLjYtLjUyLS42OC0uNC0uNzMtLjMyLS43Ny0uMTgtLjgyLS4wNmgtNDEuNjZ2LTEuOTVoNDEuNzR6Ii8+PHBhdGggZmlsbD0iIzNhNDE0YSIgZD0iTTE0NDguMjIgMzk0LjRoLTEuMTZsLjA0LS4xLjEtLjg3LS4xLS44Ni0uMDQtLjEyaDEuMTZ6Ii8+PHBhdGggZmlsbD0iIzNhNDE0YSIgc3Ryb2tlLXdpZHRoPSIuMDUiIHN0cm9rZT0iIzNhNDE0YSIvPjxwYXRoIGZpbGw9IiMzYTQxNGEiIGQ9Ik0xNDM4LjUgMTQzLjk3bC0xNC4yNi00LjYzIDE0LjI2LTQuNjR6Ii8+PHBhdGggZmlsbD0iIzNhNDE0YSIgc3Ryb2tlLXdpZHRoPSIuMDUiIHN0cm9rZT0iIzNhNDE0YSIgZD0iTTE0MzkuNDggMTQ1LjMybC0xOC40LTUuOTggMTguNC01Ljk4em0tMTIuMS01Ljk4bDEwLjE1IDMuM3YtNi42eiIvPjx1c2UgdHJhbnNmb3JtPSJtYXRyaXgoMSwwLDAsMSwxNDcxLjQwMDEyMzE2Njc3NiwyNDIuNTI4Nzc1MzI4OTQwNzIpIHRyYW5zbGF0ZSgwIDE3LjIyMjIyMjIyMjIyMjIyKSIgeGxpbms6aHJlZj0iI2oiLz48cGF0aCBmaWxsPSIjM2E0MTRhIiBzdHJva2Utd2lkdGg9Ii4wNSIgc3Ryb2tlPSIjM2E0MTRhIiBkPSJNMTI4MC45NyA1MzUuMjdoLTEuOTR2LTExLjFoMS45NHptMC0zMi42aC0xLjk0VjQ3NC4xaDEuOTR6Ii8+PHBhdGggZmlsbD0iIzNhNDE0YSIgZD0iTTEyODAgNDczLjFsLjk3LS4wNnYxLjA3aC0xLjk0di0xLjA2eiIvPjxwYXRoIGZpbGw9IiMzYTQxNGEiIHN0cm9rZS13aWR0aD0iLjA1IiBzdHJva2U9IiMzYTQxNGEiLz48cGF0aCBmaWxsPSIjM2E0MTRhIiBkPSJNMTI4MCA1NTAuNTNsLTQuNjMtMTQuMjZoOS4yN3oiLz48cGF0aCBmaWxsPSIjM2E0MTRhIiBzdHJva2Utd2lkdGg9Ii4wNSIgc3Ryb2tlPSIjM2E0MTRhIiBkPSJNMTI4MCA1NTMuN2wtNS45OC0xOC40aDExLjk2em0tMy4zLTE2LjQ2bDMuMyAxMC4xNCAzLjMtMTAuMTR6Ii8+PHVzZSB0cmFuc2Zvcm09Im1hdHJpeCgxLDAsMCwxLDEyNjcuNzczNDM3NSw1MDIuNjcxOTk5MzM0ODEyMTQpIHRyYW5zbGF0ZSgwIDE3LjIyMjIyMjIyMjIyMjIyKSIgeGxpbms6aHJlZj0iI2kiLz48cGF0aCBmaWxsPSIjZmZmIiBzdHJva2Utd2lkdGg9IjIiIHN0cm9rZT0iIzAwMCIgZD0iTTEyNzQuNTcgNTU1Ljk4YTEyLjc1IDEyLjc1IDAgMCAxIDEwLjg2IDBsMTU5LjE0IDc0LjlhMi44MiAyLjgyIDAgMCAxIDAgNS4xbC0xNTkuMTQgNzQuOWExMi43NSAxMi43NSAwIDAgMS0xMC44NiAwbC0xNTkuMTQtNzQuOWEyLjgyIDIuODIgMCAwIDEgMC01LjF6Ii8+PHVzZSB0cmFuc2Zvcm09Im1hdHJpeCgxLDAsMCwxLDExMTUsNTU4LjQyNzIwNzY2ODE0NTUpIHRyYW5zbGF0ZSg2Ny4zMjE2MjMyNjM4ODg4OCA2OC40MDI3Nzc3Nzc3Nzc3NykiIHhsaW5rOmhyZWY9IiNrIi8+PHVzZSB0cmFuc2Zvcm09Im1hdHJpeCgxLDAsMCwxLDExMTUsNTU4LjQyNzIwNzY2ODE0NTUpIHRyYW5zbGF0ZSg5MS4yNjkxMDU5MDI3Nzc3OCA2OC40MDI3Nzc3Nzc3Nzc3NykiIHhsaW5rOmhyZWY9IiNvIi8+PHVzZSB0cmFuc2Zvcm09Im1hdHJpeCgxLDAsMCwxLDExMTUsNTU4LjQyNzIwNzY2ODE0NTUpIHRyYW5zbGF0ZSgxOTQuNzczODgwMjA4MzMzMzQgNjguNDAyNzc3Nzc3Nzc3NzcpIiB4bGluazpocmVmPSIjcCIvPjx1c2UgdHJhbnNmb3JtPSJtYXRyaXgoMSwwLDAsMSwxMTE1LDU1OC40MjcyMDc2NjgxNDU1KSB0cmFuc2xhdGUoMTE3LjAzNDA3OTg2MTExMTExIDEwMC42Njg0MDI3Nzc3Nzc3NykiIHhsaW5rOmhyZWY9IiNuIi8+PHBhdGggZmlsbD0iIzNhNDE0YSIgc3Ryb2tlLXdpZHRoPSIuMDUiIHN0cm9rZT0iIzNhNDE0YSIgZD0iTTE0ODcuMyA2MzQuNGgtMzkuMXYtMS45NWgzOS4xem01My4yIDBoLTIxLjZ2LTEuOTVoMjEuNnoiLz48cGF0aCBmaWxsPSIjM2E0MTRhIiBkPSJNMTQ0OC4yMiA2MzQuNGgtMS4xNmwuMDQtLjEuMS0uODctLjEtLjg2LS4wNC0uMTJoMS4xNnoiLz48cGF0aCBmaWxsPSIjM2E0MTRhIiBzdHJva2Utd2lkdGg9Ii4wNSIgc3Ryb2tlPSIjM2E0MTRhIi8+PHBhdGggZmlsbD0iIzNhNDE0YSIgZD0iTTE1NTUuNzYgNjMzLjQzbC0xNC4yNiA0LjYzdi05LjI3eiIvPjxwYXRoIGZpbGw9IiMzYTQxNGEiIHN0cm9rZS13aWR0aD0iLjA1IiBzdHJva2U9IiMzYTQxNGEiIGQ9Ik0xNTU4LjkyIDYzMy40M2wtMTguNCA1Ljk3di0xMS45NXptLTE2LjQ1IDMuM2wxMC4xNC0zLjMtMTAuMTMtMy4zeiIvPjx1c2UgdHJhbnNmb3JtPSJtYXRyaXgoMSwwLDAsMSwxNDg3LjMwMDc4MTAyNzgzMiw2MjIuNjcxOTk5MzM0ODEyMSkgdHJhbnNsYXRlKDAgMTcuMjIyMjIyMjIyMjIyMjIpIiB4bGluazpocmVmPSIjaiIvPjxwYXRoIGZpbGw9IiNmZmYiIHN0cm9rZS13aWR0aD0iMiIgc3Ryb2tlPSIjMDAwIiBkPSJNMTU2MCA1ODkuNDNhNiA2IDAgMCAxIDYtNmgyMDhhNiA2IDAgMCAxIDYgNnY4OGE2IDYgMCAwIDEtNiA2aC0yMDhhNiA2IDAgMCAxLTYtNnoiLz48dXNlIHRyYW5zZm9ybT0ibWF0cml4KDEsMCwwLDEsMTU3Miw1OTUuNDI3MjA3NjY4MTQ1NSkgdHJhbnNsYXRlKDE2Ljk5NDE0MDYyNSAzMS4wMjc3Nzc3Nzc3Nzc3OCkiIHhsaW5rOmhyZWY9IiNxIi8+PHVzZSB0cmFuc2Zvcm09Im1hdHJpeCgxLDAsMCwxLDE1NzIsNTk1LjQyNzIwNzY2ODE0NTUpIHRyYW5zbGF0ZSg4MS43NTEwODUwNjk0NDQ0NCAzMS4wMjc3Nzc3Nzc3Nzc3OCkiIHhsaW5rOmhyZWY9IiNyIi8+PHVzZSB0cmFuc2Zvcm09Im1hdHJpeCgxLDAsMCwxLDE1NzIsNTk1LjQyNzIwNzY2ODE0NTUpIHRyYW5zbGF0ZSg3OS41MjY2OTI3MDgzMzMzMyA2My4yOTM0MDI3Nzc3Nzc3OCkiIHhsaW5rOmhyZWY9IiNzIi8+PHBhdGggZmlsbD0ibm9uZSIgc3Ryb2tlLXdpZHRoPSIyIiBzdHJva2U9IiMzYTQxNGEiIGQ9Ik0xNzgyIDYzMy40M2g2Mi40NyIvPjxwYXRoIGZpbGw9IiMzYTQxNGEiIHN0cm9rZS13aWR0aD0iLjA1IiBzdHJva2U9IiMzYTQxNGEiIGQ9Ik0xNzgyLjAzIDYzNC40SDE3ODF2LTEuOTVoMS4wM3oiLz48cGF0aCBmaWxsPSIjM2E0MTRhIiBzdHJva2Utd2lkdGg9IjIiIHN0cm9rZT0iIzNhNDE0YSIgZD0iTTE4NTkuNzMgNjMzLjQzbC0xNC4yNiA0LjYzdi05LjI3eiIvPjxwYXRoIGZpbGw9IiNmZmYiIHN0cm9rZS13aWR0aD0iMiIgc3Ryb2tlPSIjMDAwIiBkPSJNMjAwNC40NyA1NzIuMzRhMTQuMiAxNC4yIDAgMCAxIDExLjA2IDBsMTM4Ljk0IDU4Ljc1YTIuNTQgMi41NCAwIDAgMSAwIDQuNjZsLTEzOC45NCA1OC43NWExNC4yIDE0LjIgMCAwIDEtMTEuMDYgMGwtMTM4Ljk0LTU4Ljc0YTIuNTQgMi41NCAwIDAgMSAwLTQuNjd6Ii8+PHVzZSB0cmFuc2Zvcm09Im1hdHJpeCgxLDAsMCwxLDE4NjUsNTc1LjAwNTk4MzcwOTgxMjIpIHRyYW5zbGF0ZSgxMzYuMTU2MjU4NjgwNTU1NTQgMjguODQwMjc3Nzc3Nzc3NzgpIiB4bGluazpocmVmPSIjZyIvPjx1c2UgdHJhbnNmb3JtPSJtYXRyaXgoMSwwLDAsMSwxODY1LDU3NS4wMDU5ODM3MDk4MTIyKSB0cmFuc2xhdGUoNDEuNjk1NTM4MTk0NDQ0NDYgNjEuMTA1OTAyNzc3Nzc3NzgpIiB4bGluazpocmVmPSIjdCIvPjx1c2UgdHJhbnNmb3JtPSJtYXRyaXgoMSwwLDAsMSwxODY1LDU3NS4wMDU5ODM3MDk4MTIyKSB0cmFuc2xhdGUoOTAuNDkxMTExMTExMTExMTIgNjEuMTA1OTAyNzc3Nzc3NzgpIiB4bGluazpocmVmPSIjdSIvPjx1c2UgdHJhbnNmb3JtPSJtYXRyaXgoMSwwLDAsMSwxODY1LDU3NS4wMDU5ODM3MDk4MTIyKSB0cmFuc2xhdGUoMTgxLjMzMzEyNSA2MS4xMDU5MDI3Nzc3Nzc3OCkiIHhsaW5rOmhyZWY9IiNtIi8+PHVzZSB0cmFuc2Zvcm09Im1hdHJpeCgxLDAsMCwxLDE4NjUsNTc1LjAwNTk4MzcwOTgxMjIpIHRyYW5zbGF0ZSg5Ny4wMzQwNzk4NjExMTExMiA5My4zNzE1Mjc3Nzc3Nzc3NykiIHhsaW5rOmhyZWY9IiNuIi8+PHBhdGggZmlsbD0iIzNhNDE0YSIgc3Ryb2tlLXdpZHRoPSIuMDUiIHN0cm9rZT0iIzNhNDE0YSIgZD0iTTIxNzcuNTggNjMwLjk4aC0yMi4xMlY2MjloMjIuMTJ6bTM2LjIyIDBoLTQuNjJWNjI5aDQuNjJ6Ii8+PHBhdGggZmlsbD0iIzNhNDE0YSIvPjxwYXRoIGZpbGw9IiMzYTQxNGEiIHN0cm9rZS13aWR0aD0iLjA1IiBzdHJva2U9IiMzYTQxNGEiLz48cGF0aCBmaWxsPSIjM2E0MTRhIiBkPSJNMjIyOS4wNiA2MzBsLTE0LjI2IDQuNjN2LTkuMjZ6Ii8+PHBhdGggZmlsbD0iIzNhNDE0YSIgc3Ryb2tlLXdpZHRoPSIuMDUiIHN0cm9rZT0iIzNhNDE0YSIgZD0iTTIyMzIuMjIgNjMwbC0xOC40IDUuOTh2LTExLjk2em0tMTYuNDUgMy4zbDEwLjE0LTMuMy0xMC4xMy0zLjN6Ii8+PHVzZSB0cmFuc2Zvcm09Im1hdHJpeCgxLDAsMCwxLDIxNzcuNTgwNjMyNDM0NjI2Myw2MTkuMjQ0NzkxNjY2NjY2NikgdHJhbnNsYXRlKDAgMTcuMjIyMjIyMjIyMjIyMjIpIiB4bGluazpocmVmPSIjaiIvPjxwYXRoIGZpbGw9IiNmZmYiIHN0cm9rZS13aWR0aD0iMiIgc3Ryb2tlPSIjMDAwIiBkPSJNMjI0NS4xMiA1ODUuOGE3LjggNy44IDAgMCAxIDcuNTUtNS44SDI0MjRhNC42IDQuNiAwIDAgMSA0LjQ1IDUuOGwtMjMuNTcgODguNGE3LjggNy44IDAgMCAxLTcuNTUgNS44SDIyMjZhNC42IDQuNiAwIDAgMS00LjQ1LTUuOHoiLz48dXNlIHRyYW5zZm9ybT0ibWF0cml4KDEsMCwwLDEsMjIyNSw1ODUpIHRyYW5zbGF0ZSg0NS40MzkyNDQ3OTE2NjY2NyAzNS41OTAyNzc3Nzc3Nzc3OCkiIHhsaW5rOmhyZWY9IiN2Ii8+PHVzZSB0cmFuc2Zvcm09Im1hdHJpeCgxLDAsMCwxLDIyMjUsNTg1KSB0cmFuc2xhdGUoMTA0LjgwMzM5NDA5NzIyMjIyIDM1LjU5MDI3Nzc3Nzc3Nzc4KSIgeGxpbms6aHJlZj0iI3ciLz48dXNlIHRyYW5zZm9ybT0ibWF0cml4KDEsMCwwLDEsMjIyNSw1ODUpIHRyYW5zbGF0ZSg2MC4zMzMzNDIwMTM4ODg4OSA2Ny44NTU5MDI3Nzc3Nzc3NykiIHhsaW5rOmhyZWY9IiN4Ii8+PHBhdGggZmlsbD0ibm9uZSIgc3Ryb2tlLXdpZHRoPSIyIiBzdHJva2U9IiMzYTQxNGEiIGQ9Ik0yMzI1IDY4MnY0MCIvPjxwYXRoIGZpbGw9IiMzYTQxNGEiIHN0cm9rZS13aWR0aD0iLjA1IiBzdHJva2U9IiMzYTQxNGEiIGQ9Ik0yMzI1Ljk3IDY4Mi4wM2gtMS45NFY2ODFoMS45NHoiLz48cGF0aCBmaWxsPSIjM2E0MTRhIiBzdHJva2Utd2lkdGg9IjIiIHN0cm9rZT0iIzNhNDE0YSIgZD0iTTIzMjUgNzM3LjI3bC00LjY0LTE0LjI2aDkuMjh6Ii8+PHBhdGggZmlsbD0iI2ZmZiIgc3Ryb2tlLXdpZHRoPSIyIiBzdHJva2U9IiMwMDAiIGQ9Ik0xOTMwIDExNjZhNiA2IDAgMCAxIDYtNmgxNDhhNiA2IDAgMCAxIDYgNnYxMDhhNiA2IDAgMCAxLTYgNmgtMTQ4YTYgNiAwIDAgMS02LTZ6Ii8+PHVzZSB0cmFuc2Zvcm09Im1hdHJpeCgxLDAsMCwxLDE5NDIsMTE3MikgdHJhbnNsYXRlKDE0LjYzNjI4NDcyMjIyMjIyOSAyNC41Mjc3Nzc3Nzc3Nzc3OCkiIHhsaW5rOmhyZWY9IiN5Ii8+PHVzZSB0cmFuc2Zvcm09Im1hdHJpeCgxLDAsMCwxLDE5NDIsMTE3MikgdHJhbnNsYXRlKDYzLjQzMTg1NzYzODg4ODg5IDI0LjUyNzc3Nzc3Nzc3Nzc4KSIgeGxpbms6aHJlZj0iI3oiLz48dXNlIHRyYW5zZm9ybT0ibWF0cml4KDEsMCwwLDEsMTk0MiwxMTcyKSB0cmFuc2xhdGUoMjAuMjI5ODE3NzA4MzMzMzQzIDU2Ljc5MzQwMjc3Nzc3Nzc4KSIgeGxpbms6aHJlZj0iI0EiLz48dXNlIHRyYW5zZm9ybT0ibWF0cml4KDEsMCwwLDEsMTk0MiwxMTcyKSB0cmFuc2xhdGUoOTUuMzkyNTc4MTI1IDU2Ljc5MzQwMjc3Nzc3Nzc4KSIgeGxpbms6aHJlZj0iI0IiLz48dXNlIHRyYW5zZm9ybT0ibWF0cml4KDEsMCwwLDEsMTk0MiwxMTcyKSB0cmFuc2xhdGUoMTkuNTM1MzczMjYzODg4ODkzIDg5LjA1OTAyNzc3Nzc3Nzc3KSIgeGxpbms6aHJlZj0iI0MiLz48cGF0aCBmaWxsPSJub25lIiBzdHJva2Utd2lkdGg9IjIiIHN0cm9rZT0iIzNhNDE0YSIgZD0iTTE2NzAgNTgxLjQzVjIyNmE2IDYgMCAwIDEgNi02aDE2OC4xIi8+PHBhdGggZmlsbD0iIzNhNDE0YSIgc3Ryb2tlLXdpZHRoPSIuMDUiIHN0cm9rZT0iIzNhNDE0YSIgZD0iTTE2NzAuOTcgNTgyLjQzaC0xLjk0di0xLjAzaDEuOTR6Ii8+PHBhdGggZmlsbD0iIzNhNDE0YSIgc3Ryb2tlLXdpZHRoPSIyIiBzdHJva2U9IiMzYTQxNGEiIGQ9Ik0xODU5LjM2IDIyMGwtMTQuMjcgNC42M3YtOS4yNnoiLz48cGF0aCBmaWxsPSIjZmZmIiBzdHJva2Utd2lkdGg9IjIiIHN0cm9rZT0iIzAwMCIgZD0iTTIwMDQuNyAxNDIuODJhMTEuMjUgMTEuMjUgMCAwIDEgMTAuNiAwbDEzOS40IDc0LjM2YTMuMiAzLjIgMCAwIDEgMCA1LjY0bC0xMzkuNCA3NC4zNmExMS4yNSAxMS4yNSAwIDAgMS0xMC42IDBsLTEzOS40LTc0LjM2YTMuMiAzLjIgMCAwIDEgMC01LjY0eiIvPjx1c2UgdHJhbnNmb3JtPSJtYXRyaXgoMSwwLDAsMSwxODY0Ljk5OTk5OTk5OTk5OTgsMTQ0Ljk5OTk5OTk5OTk5OTk0KSB0cmFuc2xhdGUoMTAwLjU3NjgzMTU5NzIyMjIyIDQ5Ljg0MDI3Nzc3Nzc3Nzc4KSIgeGxpbms6aHJlZj0iI2siLz48dXNlIHRyYW5zZm9ybT0ibWF0cml4KDEsMCwwLDEsMTg2NC45OTk5OTk5OTk5OTk4LDE0NC45OTk5OTk5OTk5OTk5NCkgdHJhbnNsYXRlKDEyNC41MjQzMTQyMzYxMTExMSA0OS44NDAyNzc3Nzc3Nzc3OCkiIHhsaW5rOmhyZWY9IiNEIi8+PHVzZSB0cmFuc2Zvcm09Im1hdHJpeCgxLDAsMCwxLDE4NjQuOTk5OTk5OTk5OTk5OCwxNDQuOTk5OTk5OTk5OTk5OTQpIHRyYW5zbGF0ZSg2Ni4wOTMzMjQ2NTI3Nzc3OCA4Mi4xMDU5MDI3Nzc3Nzc3NykiIHhsaW5rOmhyZWY9IiN1Ii8+PHVzZSB0cmFuc2Zvcm09Im1hdHJpeCgxLDAsMCwxLDE4NjQuOTk5OTk5OTk5OTk5OCwxNDQuOTk5OTk5OTk5OTk5OTQpIHRyYW5zbGF0ZSgxNTYuOTM1MzM4NTQxNjY2NjggODIuMTA1OTAyNzc3Nzc3NzcpIiB4bGluazpocmVmPSIjbSIvPjx1c2UgdHJhbnNmb3JtPSJtYXRyaXgoMSwwLDAsMSwxODY0Ljk5OTk5OTk5OTk5OTgsMTQ0Ljk5OTk5OTk5OTk5OTk0KSB0cmFuc2xhdGUoOTcuMDM0MDc5ODYxMTExMTIgMTE0LjM3MTUyNzc3Nzc3Nzc3KSIgeGxpbms6aHJlZj0iI24iLz48cGF0aCBmaWxsPSIjM2E0MTRhIiBzdHJva2Utd2lkdGg9Ii4wNSIgc3Ryb2tlPSIjM2E0MTRhIiBkPSJNMjAxMC45NyAzMzMuNTRsLS4wOCAxLjA1LS4yNiAxLjA2LS40MiAxLS41OC45NC0uNy44My0uODQuNzItLjkzLjU3LTEgLjQyLTEuMDguMjUtMS4wNi4wOEgxNzA1LjlsLS44Mi4wNi0uNzYuMi0uNzMuMy0uNjguNC0uNi41LS41LjYtLjQzLjY4LS4zLjczLS4yLjc3LS4wNi44MnYyMTguMzhoLTEuOTVWMzQ1LjQ2bC4wNy0xLjA1LjI2LTEuMDUuNDItMS4wMi41Ny0uOTMuNy0uODMuODUtLjcuOTMtLjYgMS0uNCAxLjA4LS4yNiAxLjA1LS4wN2gyOTguMTNsLjgzLS4wNy43NS0uMTguNzMtLjMuNjctLjQyLjYtLjUuNS0uNi40Mi0uNjguMy0uNzMuMi0uNzYuMDYtLjg0VjMwMC41aDEuOTR6Ii8+PHBhdGggZmlsbD0iIzNhNDE0YSIgZD0iTTIwMTAgMjk5LjVsLjk3LS4wNXYxLjA4aC0xLjk0di0xLjA4eiIvPjxwYXRoIGZpbGw9IiMzYTQxNGEiIHN0cm9rZS13aWR0aD0iLjA1IiBzdHJva2U9IiMzYTQxNGEiLz48cGF0aCBmaWxsPSIjM2E0MTRhIiBkPSJNMTY5OS44NyA1NzkuMmwtNC42NC0xNC4yOGg5LjI3eiIvPjxwYXRoIGZpbGw9IiMzYTQxNGEiIHN0cm9rZS13aWR0aD0iLjA1IiBzdHJva2U9IiMzYTQxNGEiIGQ9Ik0xNjk5Ljg3IDU4Mi4zNWwtNS45OC0xOC40aDExLjk0em0tMy4zLTE2LjQ1bDMuMyAxMC4xNCAzLjMtMTAuMTR6Ii8+PHVzZSB0cmFuc2Zvcm09Im1hdHJpeCgxLDAsMCwxLDE3MTAuMjgzNzYwMDY2MDM4NywzMTMuOTkwNzcyNzE4MzMzMSkgdHJhbnNsYXRlKDAgMTcuMjIyMjIyMjIyMjIyMjIpIiB4bGluazpocmVmPSIjaSIvPjxwYXRoIGZpbGw9IiMzYTQxNGEiIHN0cm9rZS13aWR0aD0iLjA1IiBzdHJva2U9IiMzYTQxNGEiIGQ9Ik0yMTgyLjQgMjIwLjk3aC0yNHYtMS45NGgyNHptMzguMSAwaC02LjV2LTEuOTRoNi41eiIvPjxwYXRoIGZpbGw9IiMzYTQxNGEiIGQ9Ik0yMTU4LjQzIDIyMC45N2gtMS4xNWwuMTMtLjk3LS4xLS45IDEuMTMtLjA3eiIvPjxwYXRoIGZpbGw9IiMzYTQxNGEiIHN0cm9rZS13aWR0aD0iLjA1IiBzdHJva2U9IiMzYTQxNGEiLz48cGF0aCBmaWxsPSIjM2E0MTRhIiBkPSJNMjIzNS43NiAyMjBsLTE0LjI2IDQuNjN2LTkuMjZ6Ii8+PHBhdGggZmlsbD0iIzNhNDE0YSIgc3Ryb2tlLXdpZHRoPSIuMDUiIHN0cm9rZT0iIzNhNDE0YSIgZD0iTTIyMzguOTIgMjIwbC0xOC40IDUuOTh2LTExLjk2em0tMTYuNDUgMy4zbDEwLjE0LTMuMy0xMC4xMy0zLjN6Ii8+PHVzZSB0cmFuc2Zvcm09Im1hdHJpeCgxLDAsMCwxLDIxODIuNDA0MzIwNDA5MzkyMywyMDkuMjQ0NzkxNjY2NjY2NikgdHJhbnNsYXRlKDAgMTcuMjIyMjIyMjIyMjIyMjIpIiB4bGluazpocmVmPSIjaiIvPjxwYXRoIGZpbGw9IiNmZmYiIHN0cm9rZS13aWR0aD0iMiIgc3Ryb2tlPSIjMDAwIiBkPSJNMjI0MCAxNjZhNiA2IDAgMCAxIDYtNmgxNDhhNiA2IDAgMCAxIDYgNnYxMDhhNiA2IDAgMCAxLTYgNmgtMTQ4YTYgNiAwIDAgMS02LTZ6Ii8+PHVzZSB0cmFuc2Zvcm09Im1hdHJpeCgxLDAsMCwxLDIyNTIsMTcyKSB0cmFuc2xhdGUoMjUuODUwNDc3NDMwNTU1NTU3IDI0LjUyNzc3Nzc3Nzc3Nzc4KSIgeGxpbms6aHJlZj0iI0UiLz48dXNlIHRyYW5zZm9ybT0ibWF0cml4KDEsMCwwLDEsMjI1MiwxNzIpIHRyYW5zbGF0ZSgyNi42NTM0Mjg4MTk0NDQ0NDMgNTYuNzkzNDAyNzc3Nzc3NzgpIiB4bGluazpocmVmPSIjRiIvPjx1c2UgdHJhbnNmb3JtPSJtYXRyaXgoMSwwLDAsMSwyMjUyLDE3MikgdHJhbnNsYXRlKDkwLjgzNTI4NjQ1ODMzMzMzIDU2Ljc5MzQwMjc3Nzc3Nzc4KSIgeGxpbms6aHJlZj0iI0ciLz48dXNlIHRyYW5zZm9ybT0ibWF0cml4KDEsMCwwLDEsMjI1MiwxNzIpIHRyYW5zbGF0ZSgxOS41MzUzNzMyNjM4ODg4OTMgODkuMDU5MDI3Nzc3Nzc3NzcpIiB4bGluazpocmVmPSIjQyIvPjxwYXRoIGZpbGw9IiMzYTQxNGEiIHN0cm9rZS13aWR0aD0iLjA1IiBzdHJva2U9IiMzYTQxNGEiIGQ9Ik0xNzQyLjc0IDcxMy45NmwuMDcuODMuMi43NS4zLjczLjQuNjcuNTIuNi42LjUuNjcuNDMuNzIuMy43Ni4xOC44My4wNmgxMDkuNzVWNzIxaC0xMDkuODJsLTEuMDUtLjEtMS4wNy0uMjQtMS0uNDItLjkzLS41OC0uODQtLjctLjctLjg0LS41OC0uOTMtLjQyLTEtLjI1LTEuMDgtLjEtMS4wNnYtMTEuMWgxLjk2em0yNjguMjMuMDhsLS4wOCAxLjA1LS4yNiAxLjA2LS40MiAxLS41OC45NC0uNy44My0uODQuNzItLjkzLjU3LTEgLjQyLTEuMDguMjUtMS4wNi4wOEgxODgyVjcxOWgxMjEuOTZsLjgzLS4wNi43NS0uMTguNzMtLjMuNjctLjQyLjYtLjUuNS0uNi40Mi0uNjguMy0uNzMuMi0uNzYuMDYtLjg0di0xNi4zM2gxLjk0eiIvPjxwYXRoIGZpbGw9IiMzYTQxNGEiIGQ9Ik0yMDEwIDY5Ni42M2wuOTctLjA0djEuMDZoLTEuOTR2LTEuMDd6Ii8+PHBhdGggZmlsbD0iIzNhNDE0YSIgc3Ryb2tlLXdpZHRoPSIuMDUiIHN0cm9rZT0iIzNhNDE0YSIvPjxwYXRoIGZpbGw9IiMzYTQxNGEiIGQ9Ik0xNzQ2LjQgNzAxLjkzaC05LjI3bDQuNjQtMTQuMjd6Ii8+PHBhdGggZmlsbD0iIzNhNDE0YSIgc3Ryb2tlLXdpZHRoPSIuMDUiIHN0cm9rZT0iIzNhNDE0YSIgZD0iTTE3NDcuNzQgNzAyLjloLTExLjk1bDUuOTctMTguNHptLTkuMjctMS45NWg2LjZsLTMuMy0xMC4xM3oiLz48dXNlIHRyYW5zZm9ybT0ibWF0cml4KDEsMCwwLDEsMTg1Ny41NTQ0MDYyMDY1NzEsNzA5LjI0NDc5MTY2NjY2NjYpIHRyYW5zbGF0ZSgwIDE3LjIyMjIyMjIyMjIyMjIyKSIgeGxpbms6aHJlZj0iI2kiLz48cGF0aCBmaWxsPSIjZmZmIiBzdHJva2Utd2lkdGg9IjIiIHN0cm9rZT0iIzAwMCIgZD0iTTIzMTkuNzIgNzQyLjg1YTExLjE0IDExLjE0IDAgMCAxIDEwLjU2IDBsMTE5LjQ0IDY0LjNhMy4yMyAzLjIzIDAgMCAxIDAgNS43bC0xMTkuNDQgNjQuM2ExMS4xNCAxMS4xNCAwIDAgMS0xMC41NiAwbC0xMTkuNDQtNjQuM2EzLjIzIDMuMjMgMCAwIDEgMC01Ljd6Ii8+PHVzZSB0cmFuc2Zvcm09Im1hdHJpeCgxLDAsMCwxLDIyMDAsNzQ1KSB0cmFuc2xhdGUoODkuOTg0MzgzNjgwNTU1NTcgNTguMDkwMjc3Nzc3Nzc3NzgpIiB4bGluazpocmVmPSIjayIvPjx1c2UgdHJhbnNmb3JtPSJtYXRyaXgoMSwwLDAsMSwyMjAwLDc0NSkgdHJhbnNsYXRlKDExMy45MzE4NjYzMTk0NDQ0NSA1OC4wOTAyNzc3Nzc3Nzc3OCkiIHhsaW5rOmhyZWY9IiNIIi8+PHVzZSB0cmFuc2Zvcm09Im1hdHJpeCgxLDAsMCwxLDIyMDAsNzQ1KSB0cmFuc2xhdGUoNTcuNDg2NTUzODE5NDQ0NDQ1IDkwLjM1NTkwMjc3Nzc3Nzc3KSIgeGxpbms6aHJlZj0iI0kiLz48cGF0aCBmaWxsPSIjM2E0MTRhIiBzdHJva2Utd2lkdGg9Ii4wNSIgc3Ryb2tlPSIjM2E0MTRhIiBkPSJNMjMyNS45NyA5MjJoLTEuOTR2LTEuMjVoMS45NHptMC0yMi43NWgtMS45NFY4ODAuNWgxLjk0eiIvPjxwYXRoIGZpbGw9IiMzYTQxNGEiIGQ9Ik0yMzI1IDg3OS41bC45Ny0uMDZ2MS4wN2gtMS45NHYtMS4wNnoiLz48cGF0aCBmaWxsPSIjM2E0MTRhIiBzdHJva2Utd2lkdGg9Ii4wNSIgc3Ryb2tlPSIjM2E0MTRhIi8+PHBhdGggZmlsbD0iIzNhNDE0YSIgZD0iTTIzMjUgOTM3LjI3bC00LjY0LTE0LjI2aDkuMjh6Ii8+PHBhdGggZmlsbD0iIzNhNDE0YSIgc3Ryb2tlLXdpZHRoPSIuMDUiIHN0cm9rZT0iIzNhNDE0YSIgZD0iTTIzMjUgOTQwLjQzbC01Ljk4LTE4LjRoMTEuOTZ6bS0zLjMtMTYuNDRsMy4zIDEwLjEyIDMuMy0xMC4xM3oiLz48dXNlIHRyYW5zZm9ybT0ibWF0cml4KDEsMCwwLDEsMjMwOS4yMDEzODg4ODg4ODg3LDg5OS4yNDQ3OTE2NjY2NjY2KSB0cmFuc2xhdGUoMCAxNy4yMjIyMjIyMjIyMjIyMikiIHhsaW5rOmhyZWY9IiNqIi8+PHBhdGggZmlsbD0iI2ZmZiIgc3Ryb2tlLXdpZHRoPSIyIiBzdHJva2U9IiMwMDAiIGQ9Ik0yMzE5LjcyIDk0Mi44NWExMS4xNCAxMS4xNCAwIDAgMSAxMC41NiAwbDExOS40NCA2NC4zYTMuMjMgMy4yMyAwIDAgMSAwIDUuN2wtMTE5LjQ0IDY0LjNhMTEuMTQgMTEuMTQgMCAwIDEtMTAuNTYgMGwtMTE5LjQ0LTY0LjNhMy4yMyAzLjIzIDAgMCAxIDAtNS43eiIvPjx1c2UgdHJhbnNmb3JtPSJtYXRyaXgoMSwwLDAsMSwyMjAwLDk0NSkgdHJhbnNsYXRlKDYxLjg5NzM2MTExMTExMTEyIDU4LjA5MDI3Nzc3Nzc3Nzc4KSIgeGxpbms6aHJlZj0iI2siLz48dXNlIHRyYW5zZm9ybT0ibWF0cml4KDEsMCwwLDEsMjIwMCw5NDUpIHRyYW5zbGF0ZSg4NS44NDQ4NDM3NTAwMDAwMSA1OC4wOTAyNzc3Nzc3Nzc3OCkiIHhsaW5rOmhyZWY9IiNKIi8+PHVzZSB0cmFuc2Zvcm09Im1hdHJpeCgxLDAsMCwxLDIyMDAsOTQ1KSB0cmFuc2xhdGUoNzMuMjI1NDg2MTExMTExMTEgOTAuMzU1OTAyNzc3Nzc3NzcpIiB4bGluazpocmVmPSIjSyIvPjxwYXRoIGZpbGw9IiMzYTQxNGEiIHN0cm9rZS13aWR0aD0iLjA1IiBzdHJva2U9IiMzYTQxNGEiIGQ9Ik0yMzI1Ljk3IDExMzIuMWgtMS45NHYtNi4zaDEuOTR6bTAtMjcuOGgtMS45NHYtMjMuOGgxLjk0eiIvPjxwYXRoIGZpbGw9IiMzYTQxNGEiIGQ9Ik0yMzI1IDEwNzkuNWwuOTctLjA2djEuMDdoLTEuOTR2LTEuMDZ6Ii8+PHBhdGggZmlsbD0iIzNhNDE0YSIgc3Ryb2tlLXdpZHRoPSIuMDUiIHN0cm9rZT0iIzNhNDE0YSIvPjxwYXRoIGZpbGw9IiMzYTQxNGEiIGQ9Ik0yMzI1IDExNDcuMzdsLTQuNjQtMTQuMjdoOS4yOHoiLz48cGF0aCBmaWxsPSIjM2E0MTRhIiBzdHJva2Utd2lkdGg9Ii4wNSIgc3Ryb2tlPSIjM2E0MTRhIiBkPSJNMjMyNSAxMTUwLjUybC01Ljk4LTE4LjRoMTEuOTZ6bS0zLjMtMTYuNDRsMy4zIDEwLjEzIDMuMy0xMC4xMnoiLz48dXNlIHRyYW5zZm9ybT0ibWF0cml4KDEsMCwwLDEsMjMwOS4yMDEzODg4ODg4ODg3LDExMDQuMjkxNjk3NDE1NjcwMykgdHJhbnNsYXRlKDAgMTcuMjIyMjIyMjIyMjIyMjIpIiB4bGluazpocmVmPSIjaiIvPjxwYXRoIGZpbGw9IiMzYTQxNGEiIHN0cm9rZS13aWR0aD0iLjA1IiBzdHJva2U9IiMzYTQxNGEiIGQ9Ik0xNjkwIDEyMTMuOTZsLjA4LjgzLjE4Ljc1LjMuNzMuNC42Ny41My42LjYuNS42Ni40Mi43Mi4zLjc3LjIuODMuMDZIMTkyOHYxLjk0aC0yMzNsLTEuMDYtLjA4LTEuMDYtLjI2LTEtLjQyLS45NS0uNTgtLjgzLS43LS43LS44NC0uNTgtLjkzLS40Mi0xLS4yNi0xLjA4LS4wOC0xLjA2di01MTEuMWgxLjk1eiIvPjxwYXRoIGZpbGw9IiMzYTQxNGEiIGQ9Ik0xOTI5IDEyMjAuOTdoLTEuMDN2LTEuOTRoMS4wM3oiLz48cGF0aCBmaWxsPSIjM2E0MTRhIiBzdHJva2Utd2lkdGg9Ii4wNSIgc3Ryb2tlPSIjM2E0MTRhIi8+PHBhdGggZmlsbD0iIzNhNDE0YSIgZD0iTTE2OTMuNjcgNzAxLjkzaC05LjI3bDQuNjQtMTQuMjd6Ii8+PHBhdGggZmlsbD0iIzNhNDE0YSIgc3Ryb2tlLXdpZHRoPSIuMDUiIHN0cm9rZT0iIzNhNDE0YSIgZD0iTTE2OTUgNzAyLjloLTExLjk0bDUuOTgtMTguNHptLTkuMjYtMS45NWg2LjZsLTMuMy0xMC4xM3oiLz48cGF0aCBmaWxsPSIjZmZmIiBzdHJva2Utd2lkdGg9IjIiIHN0cm9rZT0iIzAwMCIgZD0iTTIwMDQuNyAzNjcuODJhMTEuMjUgMTEuMjUgMCAwIDEgMTAuNiAwbDEzOS40IDc0LjM2YTMuMiAzLjIgMCAwIDEgMCA1LjY0bC0xMzkuNCA3NC4zNmExMS4yNSAxMS4yNSAwIDAgMS0xMC42IDBsLTEzOS40LTc0LjM2YTMuMiAzLjIgMCAwIDEgMC01LjY0eiIvPjx1c2UgdHJhbnNmb3JtPSJtYXRyaXgoMSwwLDAsMSwxODY0Ljk5OTk5OTk5OTk5OTgsMzY5Ljk5OTk5OTk5OTk5OTk0KSB0cmFuc2xhdGUoNjguMDAzMDQ2ODc1IDY4LjcxNTI3Nzc3Nzc3Nzc3KSIgeGxpbms6aHJlZj0iI2siLz48dXNlIHRyYW5zZm9ybT0ibWF0cml4KDEsMCwwLDEsMTg2NC45OTk5OTk5OTk5OTk4LDM2OS45OTk5OTk5OTk5OTk5NCkgdHJhbnNsYXRlKDkxLjk1MDUyOTUxMzg4ODkgNjguNzE1Mjc3Nzc3Nzc3NzcpIiB4bGluazpocmVmPSIjTCIvPjx1c2UgdHJhbnNmb3JtPSJtYXRyaXgoMSwwLDAsMSwxODY0Ljk5OTk5OTk5OTk5OTgsMzY5Ljk5OTk5OTk5OTk5OTk0KSB0cmFuc2xhdGUoMTM3LjQxNDkzOTIzNjExMTEgNjguNzE1Mjc3Nzc3Nzc3NzcpIiB4bGluazpocmVmPSIjTSIvPjx1c2UgdHJhbnNmb3JtPSJtYXRyaXgoMSwwLDAsMSwxODY0Ljk5OTk5OTk5OTk5OTgsMzY5Ljk5OTk5OTk5OTk5OTk0KSB0cmFuc2xhdGUoNjAuNDE4NDExNDU4MzMzMzQ1IDEwMC45ODA5MDI3Nzc3Nzc3NykiIHhsaW5rOmhyZWY9IiNOIi8+PHVzZSB0cmFuc2Zvcm09Im1hdHJpeCgxLDAsMCwxLDE4NjQuOTk5OTk5OTk5OTk5OCwzNjkuOTk5OTk5OTk5OTk5OTQpIHRyYW5zbGF0ZSgxMzMuNjQ5NzQ4MjYzODg4OSAxMDAuOTgwOTAyNzc3Nzc3NzcpIiB4bGluazpocmVmPSIjbiIvPjxwYXRoIGZpbGw9Im5vbmUiIHN0cm9rZS13aWR0aD0iMiIgc3Ryb2tlPSIjM2E0MTRhIiBkPSJNMTc0Mi40NSA1ODEuNDNWNDUxYTYgNiAwIDAgMSA2LTZoOTUuNjQiLz48cGF0aCBmaWxsPSIjM2E0MTRhIiBzdHJva2Utd2lkdGg9Ii4wNSIgc3Ryb2tlPSIjM2E0MTRhIiBkPSJNMTc0My40MiA1ODIuNDNoLTEuOTV2LTEuMDNoMS45NXoiLz48cGF0aCBmaWxsPSIjM2E0MTRhIiBzdHJva2Utd2lkdGg9IjIiIHN0cm9rZT0iIzNhNDE0YSIgZD0iTTE4NTkuMzYgNDQ1bC0xNC4yNyA0LjYzdi05LjI2eiIvPjxwYXRoIGZpbGw9IiMzYTQxNGEiIHN0cm9rZS13aWR0aD0iLjA1IiBzdHJva2U9IiMzYTQxNGEiIGQ9Ik0yMzI0LjY0IDQ0Ni45bC41OC45My40MiAxIC4yNSAxLjA4LjA3IDEuMDZWNTYwLjVoLTEuOTRWNDUxLjA0bC0uMDMtLjN2LTQuNnptLTE2Ni4yMy0uOTJ2LTEuOTZoMTM0djEuOTZ6Ii8+PHBhdGggZmlsbD0iIzNhNDE0YSIgZD0iTTIxNTguNDMgNDQ1Ljk4aC0xLjE1bC4xMy0uOTgtLjEtLjkgMS4xMy0uMDh6Ii8+PHBhdGggZmlsbD0iIzNhNDE0YSIgc3Ryb2tlLXdpZHRoPSIuMDUiIHN0cm9rZT0iIzNhNDE0YSIvPjxwYXRoIGZpbGw9IiMzYTQxNGEiIGQ9Ik0yMzI1IDU3NS43NmwtNC42NC0xNC4yNmg5LjI4eiIvPjxwYXRoIGZpbGw9IiMzYTQxNGEiIHN0cm9rZS13aWR0aD0iLjA1IiBzdHJva2U9IiMzYTQxNGEiIGQ9Ik0yMzI1IDU3OC45MmwtNS45OC0xOC40aDExLjk2em0tMy4zLTE2LjQ1bDMuMyAxMC4xNCAzLjMtMTAuMTN6Ii8+PHVzZSB0cmFuc2Zvcm09Im1hdHJpeCgxLDAsMCwxLDIyOTIuNDA0MzE2Nzg4NzcsNDM0LjI0NDc5MTY2NjY2NjcpIHRyYW5zbGF0ZSgwIDE3LjIyMjIyMjIyMjIyMjIyKSIgeGxpbms6aHJlZj0iI2oiLz48cGF0aCBmaWxsPSIjM2E0MTRhIiBzdHJva2Utd2lkdGg9Ii4wNSIgc3Ryb2tlPSIjM2E0MTRhIiBkPSJNMTg3NS40NiA1NTQuNDRIMTc3MS40bC0uOC4wNi0uNzguMi0uNzMuMy0uNjguNC0uNi41LS41LjYtLjQyLjY4LS4zLjczLS4yLjc4LS4wNS44MnY0LjQyaC0xLjk1di00LjVsLjA4LTEuMDUuMjYtMS4wNi40Mi0xIC41Ny0uOTQuNy0uODMuODQtLjcuOTMtLjU4IDEuMDItLjQyIDEuMDYtLjI2IDEuMDYtLjA4aDEwNC4xMnptMTM1LjUtNi45NGwtLjA3IDEuMDYtLjI2IDEuMDYtLjQyIDEtLjU4Ljk1LS43LjgzLS44NC43LS45My41OC0xIC40Mi0xLjA4LjI2LTEuMDYuMDhIMTg5OS45di0xLjk1aDEwNC4wNmwuODMtLjA4Ljc1LS4xOC43My0uMy42Ny0uNC42LS41Mi41LS42LjQyLS42OC4zLS43Mi4yLS43Ny4wNi0uODJWNTI1LjVoMS45NHoiLz48cGF0aCBmaWxsPSIjM2E0MTRhIiBkPSJNMjAxMCA1MjQuNWwuOTctLjA1djEuMDhoLTEuOTR2LTEuMDh6Ii8+PHBhdGggZmlsbD0iIzNhNDE0YSIgc3Ryb2tlLXdpZHRoPSIuMDUiIHN0cm9rZT0iIzNhNDE0YSIvPjxwYXRoIGZpbGw9IiMzYTQxNGEiIGQ9Ik0xNzY1LjM3IDU3OS4ybC00LjYzLTE0LjI4aDkuMjd6Ii8+PHBhdGggZmlsbD0iIzNhNDE0YSIgc3Ryb2tlLXdpZHRoPSIuMDUiIHN0cm9rZT0iIzNhNDE0YSIgZD0iTTE3NjUuMzcgNTgyLjM1bC01Ljk3LTE4LjRoMTEuOTV6bS0zLjMtMTYuNDVsMy4zIDEwLjE0IDMuMy0xMC4xNHoiLz48dXNlIHRyYW5zZm9ybT0ibWF0cml4KDEsMCwwLDEsMTg3NS40NTk5ODExNTk3NjY0LDU0Mi43MDg5OTIyNjcwMTYyKSB0cmFuc2xhdGUoMCAxNy4yMjIyMjIyMjIyMjIyMikiIHhsaW5rOmhyZWY9IiNpIi8+PHBhdGggZmlsbD0iI2ZmZiIgc3Ryb2tlLXdpZHRoPSIyIiBzdHJva2U9IiMwMDAiIGQ9Ik0yMzE5LjggMTE1M2ExMC40IDEwLjQgMCAwIDEgMTAuNCAwbDExOS42IDY5YTMuNDYgMy40NiAwIDAgMSAwIDZsLTExOS42IDY5YTEwLjQgMTAuNCAwIDAgMS0xMC40IDBsLTExOS42LTY5YTMuNDYgMy40NiAwIDAgMSAwLTZ6Ii8+PHVzZSB0cmFuc2Zvcm09Im1hdHJpeCgxLDAsMCwxLDIyMDAsMTE1NSkgdHJhbnNsYXRlKDEwNi44NjI2Mzg4ODg4ODg5IDQzLjQwMjc3Nzc3Nzc3Nzc4KSIgeGxpbms6aHJlZj0iI08iLz48dXNlIHRyYW5zZm9ybT0ibWF0cml4KDEsMCwwLDEsMjIwMCwxMTU1KSB0cmFuc2xhdGUoNDMuNjAzMDkwMjc3Nzc3NzggNzUuNjY4NDAyNzc3Nzc3NzcpIiB4bGluazpocmVmPSIjUCIvPjx1c2UgdHJhbnNmb3JtPSJtYXRyaXgoMSwwLDAsMSwyMjAwLDExNTUpIHRyYW5zbGF0ZSgxMzcuNDk0MTQ5MzA1NTU1NTQgNzUuNjY4NDAyNzc3Nzc3NzcpIiB4bGluazpocmVmPSIjUSIvPjx1c2UgdHJhbnNmb3JtPSJtYXRyaXgoMSwwLDAsMSwyMjAwLDExNTUpIHRyYW5zbGF0ZSg3MC42MDUwNDM0MDI3Nzc3OCAxMDcuOTM0MDI3Nzc3Nzc3NzcpIiB4bGluazpocmVmPSIjUiIvPjxwYXRoIGZpbGw9IiMzYTQxNGEiIHN0cm9rZS13aWR0aD0iLjA1IiBzdHJva2U9IiMzYTQxNGEiIGQ9Ik0yNDkzLjQgODA0LjA0bC0uMSAxLjA1LS4yNCAxLjA2LS40MiAxLS41Ny45NC0uNy44My0uODUuNzItLjkzLjU3LTEuMDIuNDItMS4wNy4yNS0xLjA0LjA4aC0zMy4wNFY4MDloMzIuOTZsLjgzLS4wNi43Ny0uMTguNzMtLjMuNjctLjQyLjYtLjUuNTItLjYuNC0uNjguMy0uNzMuMTgtLjc2LjA3LS44NHYtODBoMS45NXptLTUuOS0xNDYuMWwxLjA4LjI1IDEgLjQuOTQuNTguODQuNy43Ljg1LjU4LjkzLjQyIDEgLjI1IDEuMDguMSAxLjA1djM3LjY2aC0xLjk1di0zNy42bC0uMDctLjgyLS4xOC0uNzYtLjMtLjczLS40LS42Ny0uNTMtLjYtLjYtLjUtLjY3LS40My0uNzMtLjMtLjc2LS4xOC0uODItLjA3aC01Ny44NnYtMS45NWg1Ny45NHoiLz48cGF0aCBmaWxsPSIjM2E0MTRhIiBkPSJNMjQ1My40NSA4MTAuOThoLTEuMTVsLjEyLS45OC0uMS0uOSAxLjEzLS4wOHoiLz48cGF0aCBmaWxsPSIjM2E0MTRhIiBzdHJva2Utd2lkdGg9Ii4wNSIgc3Ryb2tlPSIjM2E0MTRhIi8+PHBhdGggZmlsbD0iIzNhNDE0YSIgZD0iTTI0MjcuNTIgNjYzLjQ2bC0xNC4yNy00LjYzIDE0LjI3LTQuNjR6Ii8+PHBhdGggZmlsbD0iIzNhNDE0YSIgc3Ryb2tlLXdpZHRoPSIuMDUiIHN0cm9rZT0iIzNhNDE0YSIgZD0iTTI0MjguNSA2NjQuOGwtMTguNC01Ljk3IDE4LjQtNS45OHptLTEyLjEtNS45N2wxMC4xNCAzLjN2LTYuNnoiLz48dXNlIHRyYW5zZm9ybT0ibWF0cml4KDEsMCwwLDEsMjQ4MC4xOTU0NDMyNTk1MDAzLDcwMi40NTUwMTA0NzA5MzI1KSB0cmFuc2xhdGUoMCAxNy4yMjIyMjIyMjIyMjIyMikiIHhsaW5rOmhyZWY9IiNpIi8+PHBhdGggZmlsbD0iIzNhNDE0YSIgc3Ryb2tlLXdpZHRoPSIuMDUiIHN0cm9rZT0iIzNhNDE0YSIgZD0iTTI1MjAuOTcgMTAwNC4wNGwtLjA4IDEuMDUtLjI2IDEuMDYtLjQyIDEtLjU3Ljk0LS43Mi44My0uODMuNzItLjkzLjU3LTEgLjQyLTEuMDguMjUtMS4wNi4wOGgtNjAuNjJWMTAwOWg2MC41NGwuODMtLjA2Ljc1LS4xOC43My0uMy42Ny0uNDIuNi0uNS41LS42LjQyLS42OC4zLS43My4yLS43Ni4wNi0uODRWODEzLjRoMS45NHptLTUuODgtMzc0LjkzbDEuMDYuMjYgMSAuNDIuOTQuNTguODMuNy43Mi44NC41Ny45My40MiAxIC4yNSAxLjA4LjA3IDEuMDZ2MTU1LjkyaC0xLjk0VjYzNi4wNGwtLjA3LS44My0uMTgtLjc1LS4zLS43My0uNDItLjY3LS41LS42LS42LS41LS42OC0uNDMtLjczLS4zLS43Ni0uMTgtLjg0LS4wNmgtNzcuNzZWNjI5aDc3Ljg0eiIvPjxwYXRoIGZpbGw9IiMzYTQxNGEiIGQ9Ik0yNDUzLjQ1IDEwMTAuOThoLTEuMTVsLjEyLS45OC0uMS0uOSAxLjEzLS4wOHoiLz48cGF0aCBmaWxsPSIjM2E0MTRhIiBzdHJva2Utd2lkdGg9Ii4wNSIgc3Ryb2tlPSIjM2E0MTRhIi8+PHBhdGggZmlsbD0iIzNhNDE0YSIgZD0iTTI0MzUuMiA2MzQuNjNsLTE0LjI2LTQuNjMgMTQuMjYtNC42M3oiLz48cGF0aCBmaWxsPSIjM2E0MTRhIiBzdHJva2Utd2lkdGg9Ii4wNSIgc3Ryb2tlPSIjM2E0MTRhIiBkPSJNMjQzNi4xOCA2MzUuOThsLTE4LjQtNS45OCAxOC40LTUuOTh6bS0xMi4xLTUuOThsMTAuMTUgMy4zdi02LjZ6Ii8+PHVzZSB0cmFuc2Zvcm09Im1hdHJpeCgxLDAsMCwxLDI1MDcuNzczNDM3NSw3OTEuODg0NTYxODg4MTM1KSB0cmFuc2xhdGUoMCAxNy4yMjIyMjIyMjIyMjIyMikiIHhsaW5rOmhyZWY9IiNpIi8+PHBhdGggZmlsbD0iIzNhNDE0YSIgc3Ryb2tlLXdpZHRoPSIuMDUiIHN0cm9rZT0iIzNhNDE0YSIgZD0iTTI1NTAuOTcgMTIxOS4wNGwtLjA4IDEuMDUtLjI2IDEuMDYtLjQyIDEtLjU3Ljk0LS43Mi44My0uODMuNy0uOTMuNi0xIC40LTEuMDguMjYtMS4wNi4wN2gtOTAuNXYtMS45NGg5MC40MmwuODMtLjA3Ljc1LS4xOC43My0uMy42Ny0uNDIuNi0uNS41LS42LjQyLS42OC4zLS43My4yLS43Ni4wNi0uODR2LTMwOC40aDEuOTR6bS01Ljg4LTYxNy45OGwxLjA2LjI2IDEgLjQuOTQuNi44My43LjcyLjgzLjU3LjkzLjQyIDEuMDIuMjUgMS4wNi4wNyAxLjA1djI4MS4xNGgtMS45NFY2MDhsLS4wNy0uODMtLjE4LS43Ny0uMy0uNzMtLjQyLS42Ny0uNS0uNi0uNi0uNS0uNjgtLjQyLS43My0uMy0uNzYtLjItLjg0LS4wNWgtMTAwLjI4di0xLjk1aDEwMC4zNnoiLz48cGF0aCBmaWxsPSIjM2E0MTRhIiBkPSJNMjQ1My41NyAxMjI1Ljk3aC0xLjE0bC4xLS45Ny0uMS0uOTMgMS4xNC0uMDR6Ii8+PHBhdGggZmlsbD0iIzNhNDE0YSIgc3Ryb2tlLXdpZHRoPSIuMDUiIHN0cm9rZT0iIzNhNDE0YSIvPjxwYXRoIGZpbGw9IiMzYTQxNGEiIGQ9Ik0yNDQyLjY4IDYwNi42bC0xNC4yNi00LjY1IDE0LjI2LTQuNjN6Ii8+PHBhdGggZmlsbD0iIzNhNDE0YSIgc3Ryb2tlLXdpZHRoPSIuMDUiIHN0cm9rZT0iIzNhNDE0YSIgZD0iTTI0NDMuNjYgNjA3LjkzbC0xOC40LTUuOTggMTguNC01Ljk3em0tMTIuMS01Ljk4bDEwLjE1IDMuM3YtNi42eiIvPjx1c2UgdHJhbnNmb3JtPSJtYXRyaXgoMSwwLDAsMSwyNTM3Ljc3MzQzNzUsODg5LjA0MTUzNDU2MzA5MzcpIHRyYW5zbGF0ZSgwIDE3LjIyMjIyMjIyMjIyMjIyKSIgeGxpbms6aHJlZj0iI2kiLz48cGF0aCBmaWxsPSIjM2E0MTRhIiBzdHJva2Utd2lkdGg9Ii4wNSIgc3Ryb2tlPSIjM2E0MTRhIiBkPSJNMjEyOC40MyAxMjI1Ljk3aC0xOC45M3YtMS45NGgxOC45M3ptNjguMDMgMGgtMzYuNDN2LTEuOTRoMzYuNDN6Ii8+PHBhdGggZmlsbD0iIzNhNDE0YSIgZD0iTTIxOTcuNTYgMTIyNC4wN2wtLjEuOTMuMS45My0xLjEzLjA0di0xLjk0aDEuMTR6Ii8+PHBhdGggZmlsbD0iIzNhNDE0YSIgc3Ryb2tlLXdpZHRoPSIuMDUiIHN0cm9rZT0iIzNhNDE0YSIvPjxwYXRoIGZpbGw9IiMzYTQxNGEiIGQ9Ik0yMTA4LjUgMTIyOS42M2wtMTQuMjYtNC42MyAxNC4yNi00LjYzeiIvPjxwYXRoIGZpbGw9IiMzYTQxNGEiIHN0cm9rZS13aWR0aD0iLjA1IiBzdHJva2U9IiMzYTQxNGEiIGQ9Ik0yMTA5LjQ4IDEyMzAuOThsLTE4LjQtNS45OCAxOC40LTUuOTh6bS0xMi4xLTUuOThsMTAuMTUgMy4zdi02LjZ6Ii8+PHVzZSB0cmFuc2Zvcm09Im1hdHJpeCgxLDAsMCwxLDIxMjguNDMxMzI4OTUyMjE2NSwxMjE0LjI0NDc5MTY2NjY2NjcpIHRyYW5zbGF0ZSgwIDE3LjIyMjIyMjIyMjIyMjIyKSIgeGxpbms6aHJlZj0iI2oiLz48cGF0aCBmaWxsPSIjM2E0MTRhIiBzdHJva2Utd2lkdGg9Ii4wNSIgc3Ryb2tlPSIjM2E0MTRhIiBkPSJNMTI4MC40NyA3NjMuOTVoLS45NHYtMTEuMTJoLjk0em0wLTMyLjYzaC0uOTRWNzEzLjZoLjk0eiIvPjxwYXRoIGZpbGw9IiMzYTQxNGEiIGQ9Ik0xMjgwIDcxMy4xbC40Ny0uMDN2LjUzaC0uOTR2LS41M3oiLz48cGF0aCBmaWxsPSIjM2E0MTRhIiBzdHJva2Utd2lkdGg9Ii4wNSIgc3Ryb2tlPSIjM2E0MTRhIi8+PHBhdGggZmlsbD0iIzNhNDE0YSIgZD0iTTEyODAgNzc4LjdsLTQuNjMtMTQuMjVoOS4yN3oiLz48cGF0aCBmaWxsPSIjM2E0MTRhIiBzdHJva2Utd2lkdGg9Ii4wNSIgc3Ryb2tlPSIjM2E0MTRhIiBkPSJNMTI4MCA3ODAuMjVsLTUuMy0xNi4yOGgxMC42em0tMy45OC0xNS4zM2wzLjk4IDEyLjI1IDMuOTgtMTIuMjV6Ii8+PHVzZSB0cmFuc2Zvcm09Im1hdHJpeCgxLDAsMCwxLDEyNjcuNzczNDM3NSw3MzEuMzIyNDM4NjY5OTQ5MSkgdHJhbnNsYXRlKDAgMTcuMjIyMjIyMjIyMjIyMjIpIiB4bGluazpocmVmPSIjaSIvPjxwYXRoIGZpbGw9IiNmZmYiIHN0cm9rZS13aWR0aD0iMiIgc3Ryb2tlPSIjMDAwIiBkPSJNMTI3NC41NiA3ODIuNTRhMTIuODYgMTIuODYgMCAwIDEgMTAuODggMGwxMzkuMTIgNjQuOTJhMi44IDIuOCAwIDAgMSAwIDUuMDhsLTEzOS4xMiA2NC45MmExMi44NiAxMi44NiAwIDAgMS0xMC44OCAwbC0xMzkuMTItNjQuOTJhMi44IDIuOCAwIDAgMSAwLTUuMDh6Ii8+PHVzZSB0cmFuc2Zvcm09Im1hdHJpeCgxLDAsMCwxLDExMzUsNzg1KSB0cmFuc2xhdGUoNzUuODMxODIyOTE2NjY2NjUgNTguMDkwMjc3Nzc3Nzc3NzgpIiB4bGluazpocmVmPSIjayIvPjx1c2UgdHJhbnNmb3JtPSJtYXRyaXgoMSwwLDAsMSwxMTM1LDc4NSkgdHJhbnNsYXRlKDk5Ljc3OTMwNTU1NTU1NTU1IDU4LjA5MDI3Nzc3Nzc3Nzc4KSIgeGxpbms6aHJlZj0iI1MiLz48dXNlIHRyYW5zZm9ybT0ibWF0cml4KDEsMCwwLDEsMTEzNSw3ODUpIHRyYW5zbGF0ZSg1OS45NTE4MzE1OTcyMjIyMyA5MC4zNTU5MDI3Nzc3Nzc3NykiIHhsaW5rOmhyZWY9IiNUIi8+PHVzZSB0cmFuc2Zvcm09Im1hdHJpeCgxLDAsMCwxLDExMzUsNzg1KSB0cmFuc2xhdGUoMTM0LjExNjMyODEyNTAwMDAyIDkwLjM1NTkwMjc3Nzc3Nzc3KSIgeGxpbms6aHJlZj0iI24iLz48cGF0aCBmaWxsPSIjM2E0MTRhIiBzdHJva2Utd2lkdGg9Ii4wNSIgc3Ryb2tlPSIjM2E0MTRhIiBkPSJNMTA0MS4xIDg1MC40OEg5OTcuNHYtLjk2aDQzLjczem05MS4yMiAwaC01OS42di0uOTZoNTkuNnoiLz48cGF0aCBmaWxsPSIjM2E0MTRhIiBkPSJNMTEzMi44MiA4NTBsLjA1LjQ4aC0uNTd2LS45NmguNTd6Ii8+PHBhdGggZmlsbD0iIzNhNDE0YSIgc3Ryb2tlLXdpZHRoPSIuMDUiIHN0cm9rZT0iIzNhNDE0YSIvPjxwYXRoIGZpbGw9IiMzYTQxNGEiIGQ9Ik05OTYuODggODU0LjYzTDk4Mi42MiA4NTBsMTQuMjYtNC42M3oiLz48cGF0aCBmaWxsPSIjM2E0MTRhIiBzdHJva2Utd2lkdGg9Ii4wNSIgc3Ryb2tlPSIjM2E0MTRhIiBkPSJNOTk3LjM2IDg1NS4zbC0xNi4yOC01LjMgMTYuMjgtNS4zem0tMTMuMi01LjNsMTIuMjUgMy45OHYtNy45NnoiLz48dXNlIHRyYW5zZm9ybT0ibWF0cml4KDEsMCwwLDEsMTA0MS4xMDg3NTA4NTI1MDQsODM5LjI0NDc5MTY2NjY2NjYpIHRyYW5zbGF0ZSgwIDE3LjIyMjIyMjIyMjIyMjIyKSIgeGxpbms6aHJlZj0iI2oiLz48cGF0aCBmaWxsPSIjZmZmIiBzdHJva2Utd2lkdGg9IjIiIHN0cm9rZT0iIzAwMCIgZD0iTTc2MCA4MDZhNiA2IDAgMCAxIDYtNmgyMDhhNiA2IDAgMCAxIDYgNnY4OGE2IDYgMCAwIDEtNiA2SDc2NmE2IDYgMCAwIDEtNi02eiIvPjx1c2UgdHJhbnNmb3JtPSJtYXRyaXgoMSwwLDAsMSw3NzIsODEyKSB0cmFuc2xhdGUoOC40MjIwOTIwMTM4ODg4ODYgMzEuMDI3Nzc3Nzc3Nzc3NzgpIiB4bGluazpocmVmPSIjcSIvPjx1c2UgdHJhbnNmb3JtPSJtYXRyaXgoMSwwLDAsMSw3NzIsODEyKSB0cmFuc2xhdGUoNzMuMTc5MDM2NDU4MzMzMzMgMzEuMDI3Nzc3Nzc3Nzc3NzgpIiB4bGluazpocmVmPSIjUyIvPjx1c2UgdHJhbnNmb3JtPSJtYXRyaXgoMSwwLDAsMSw3NzIsODEyKSB0cmFuc2xhdGUoNzkuNTI2NjkyNzA4MzMzMzMgNjMuMjkzNDAyNzc3Nzc3NzgpIiB4bGluazpocmVmPSIjcyIvPjxwYXRoIGZpbGw9Im5vbmUiIHN0cm9rZT0iIzNhNDE0YSIgZD0iTTc1OC41IDg1MGgtNjQuNjgiLz48cGF0aCBmaWxsPSIjM2E0MTRhIiBzdHJva2Utd2lkdGg9Ii4wNSIgc3Ryb2tlPSIjM2E0MTRhIiBkPSJNNzU5IDg1MC40OGgtLjV2LS45NmguNXoiLz48cGF0aCBmaWxsPSIjM2E0MTRhIiBzdHJva2U9IiMzYTQxNGEiIGQ9Ik02NzkuMDUgODUwbDE0LjI3LTQuNjN2OS4yNnoiLz48cGF0aCBmaWxsPSIjZmZmIiBzdHJva2Utd2lkdGg9IjIiIHN0cm9rZT0iIzAwMCIgZD0iTTU1NC43MiA3ODcuODZhMTEuMDggMTEuMDggMCAwIDEgMTAuNTYgMGwxMDkuNDQgNTkuMjhhMy4yNSAzLjI1IDAgMCAxIDAgNS43MmwtMTA5LjQ0IDU5LjI4YTExLjA4IDExLjA4IDAgMCAxLTEwLjU2IDBsLTEwOS40NC01OS4yOGEzLjI1IDMuMjUgMCAwIDEgMC01LjcyeiIvPjx1c2UgdHJhbnNmb3JtPSJtYXRyaXgoMSwwLDAsMSw0NDUsNzkwKSB0cmFuc2xhdGUoMTA2LjE1NjI1ODY4MDU1NTU3IDI5LjAyNzc3Nzc3Nzc3Nzc4KSIgeGxpbms6aHJlZj0iI2ciLz48dXNlIHRyYW5zZm9ybT0ibWF0cml4KDEsMCwwLDEsNDQ1LDc5MCkgdHJhbnNsYXRlKDQwLjY5OTQ0NDQ0NDQ0NDQ0NSA2MS4yOTM0MDI3Nzc3Nzc3OCkiIHhsaW5rOmhyZWY9IiNVIi8+PHVzZSB0cmFuc2Zvcm09Im1hdHJpeCgxLDAsMCwxLDQ0NSw3OTApIHRyYW5zbGF0ZSg4Ni42NDEyODQ3MjIyMjIyMSA2MS4yOTM0MDI3Nzc3Nzc3OCkiIHhsaW5rOmhyZWY9IiNWIi8+PHVzZSB0cmFuc2Zvcm09Im1hdHJpeCgxLDAsMCwxLDQ0NSw3OTApIHRyYW5zbGF0ZSg2Ny4wMzQwNzk4NjExMTExMiA5My41NTkwMjc3Nzc3Nzc3NykiIHhsaW5rOmhyZWY9IiNuIi8+PHBhdGggZmlsbD0iIzNhNDE0YSIgc3Ryb2tlLXdpZHRoPSIuMDUiIHN0cm9rZT0iIzNhNDE0YSIgZD0iTTM3OCA4NTAuOThoLTE0LjQ2Vjg0OUgzNzh6bTYzLjU3IDBINDA5LjZWODQ5aDMxLjk3eiIvPjxwYXRoIGZpbGw9IiMzYTQxNGEiIGQ9Ik00NDIuNjcgODQ5LjFsLS4xLjkuMS45LTEuMTMuMDhWODQ5aDEuMTV6Ii8+PHBhdGggZmlsbD0iIzNhNDE0YSIgc3Ryb2tlLXdpZHRoPSIuMDUiIHN0cm9rZT0iIzNhNDE0YSIvPjxwYXRoIGZpbGw9IiMzYTQxNGEiIGQ9Ik0zNjIuNTQgODU0LjYzTDM0OC4yNyA4NTBsMTQuMjctNC42M3oiLz48cGF0aCBmaWxsPSIjM2E0MTRhIiBzdHJva2Utd2lkdGg9Ii4wNSIgc3Ryb2tlPSIjM2E0MTRhIiBkPSJNMzYzLjUgODU1Ljk4TDM0NS4xMyA4NTBsMTguNC01Ljk4ek0zNTEuNDQgODUwbDEwLjEzIDMuM3YtNi42eiIvPjx1c2UgdHJhbnNmb3JtPSJtYXRyaXgoMSwwLDAsMSwzNzguMDAyNzkyNzg5MDU3NSw4MzkuMjQ0NzkxNjY2NjY2NikgdHJhbnNsYXRlKDAgMTcuMjIyMjIyMjIyMjIyMjIpIiB4bGluazpocmVmPSIjaiIvPjxwYXRoIGZpbGw9IiNmZmYiIHN0cm9rZS13aWR0aD0iMiIgc3Ryb2tlPSIjMDAwIiBkPSJNMjMwLjQ1IDc5NS44QTcuOCA3LjggMCAwIDEgMjM4IDc5MGgxMTZhNC42IDQuNiAwIDAgMSA0LjQ1IDUuOGwtMjguOSAxMDguNEE3LjggNy44IDAgMCAxIDMyMiA5MTBIMjA2YTQuNiA0LjYgMCAwIDEtNC40NS01Ljh6Ii8+PGc+PHVzZSB0cmFuc2Zvcm09Im1hdHJpeCgxLDAsMCwxLDIwNSw3OTUpIHRyYW5zbGF0ZSg1Ni45NDc5MjUzNDcyMjIyMjQgMzEuODQwMjc3Nzc3Nzc3NzgpIiB4bGluazpocmVmPSIjVyIvPjx1c2UgdHJhbnNmb3JtPSJtYXRyaXgoMSwwLDAsMSwyMDUsNzk1KSB0cmFuc2xhdGUoMjMuMTcwMzY0NTgzMzMzMzI0IDY0LjEwNTkwMjc3Nzc3Nzc3KSIgeGxpbms6aHJlZj0iI1YiLz48dXNlIHRyYW5zZm9ybT0ibWF0cml4KDEsMCwwLDEsMjA1LDc5NSkgdHJhbnNsYXRlKDMwLjgzMzM0MjAxMzg4ODg5IDk2LjM3MTUyNzc3Nzc3Nzc3KSIgeGxpbms6aHJlZj0iI3giLz48L2c+PHBhdGggZmlsbD0ibm9uZSIgc3Ryb2tlLXdpZHRoPSIyIiBzdHJva2U9IiMzYTQxNGEiIGQ9Ik0yODAgOTEydjQ5LjkiLz48cGF0aCBmaWxsPSIjM2E0MTRhIiBzdHJva2Utd2lkdGg9Ii4wNSIgc3Ryb2tlPSIjM2E0MTRhIiBkPSJNMjgwLjk4IDkxMi4wM2gtMS45NlY5MTFoMS45NnoiLz48cGF0aCBmaWxsPSIjM2E0MTRhIiBzdHJva2Utd2lkdGg9IjIiIHN0cm9rZT0iIzNhNDE0YSIgZD0iTTI4MCA5NzcuMThsLTQuNjMtMTQuMjdoOS4yNnoiLz48cGF0aCBmaWxsPSIjZmZmIiBzdHJva2Utd2lkdGg9IjIiIHN0cm9rZT0iIzAwMCIgZD0iTTI3NC42MyA5ODIuNjhhMTIgMTIgMCAwIDEgMTAuNzQgMGwxMDkuMjYgNTQuNjRhMyAzIDAgMCAxIDAgNS4zNmwtMTA5LjI2IDU0LjY0YTEyIDEyIDAgMCAxLTEwLjc0IDBsLTEwOS4yNi01NC42NGEzIDMgMCAwIDEgMC01LjM2eiIvPjxnPjx1c2UgdHJhbnNmb3JtPSJtYXRyaXgoMSwwLDAsMSwxNjUsOTg1KSB0cmFuc2xhdGUoOTQuNjQzNjcxODc1IDM4LjcxNTI3Nzc3Nzc3Nzc4KSIgeGxpbms6aHJlZj0iI1giLz48dXNlIHRyYW5zZm9ybT0ibWF0cml4KDEsMCwwLDEsMTY1LDk4NSkgdHJhbnNsYXRlKDM5LjA1MDEzODg4ODg4ODg5IDcwLjk4MDkwMjc3Nzc3Nzc3KSIgeGxpbms6aHJlZj0iI1kiLz48dXNlIHRyYW5zZm9ybT0ibWF0cml4KDEsMCwwLDEsMTY1LDk4NSkgdHJhbnNsYXRlKDEzOS45Mzk4OTU4MzMzMzMzNCA3MC45ODA5MDI3Nzc3Nzc3NykiIHhsaW5rOmhyZWY9IiNaIi8+PC9nPjxwYXRoIGZpbGw9IiMzYTQxNGEiIHN0cm9rZS13aWR0aD0iLjA1IiBzdHJva2U9IiMzYTQxNGEiIGQ9Ik0xNDAuOTcgMTAzMy45NmwuMDcuODMuMTguNzUuMy43My40Mi42Ny41LjYuNi41LjY4LjQyLjczLjMuNzYuMi44NC4wNmgxNS42NnYxLjk0aC0xNS43NGwtMS4wNS0uMDgtMS4wNi0uMjYtMS0uNDItLjk0LS41OC0uODMtLjctLjcyLS44NC0uNTctLjkzLS40Mi0xLS4yNS0xLjA4LS4wNy0xLjA2Vjk2My42aDEuOTR6bTQ2LjY1LTE0OS44M2gtNDEuNThsLS44My4wNy0uNzUuMTgtLjczLjMtLjY3LjQyLS42LjUtLjUuNi0uNDIuNjgtLjMuNzMtLjIuNzctLjA2LjgzdjUyLjg4aC0xLjk0di01Mi45NmwuMDgtMS4wNS4yNi0xLjA3LjQyLTEgLjU3LS45NC43Mi0uODMuODMtLjcyLjkzLS41NiAxLS40MiAxLjA4LS4yNSAxLjA2LS4xaDQxLjY2eiIvPjxwYXRoIGZpbGw9IiMzYTQxNGEiIGQ9Ik0xNjIuOCAxMDM5LjEybC0uMS44OC4xLjg4LTEuMTIuMXYtMS45NWgxLjE1eiIvPjxwYXRoIGZpbGw9IiMzYTQxNGEiIHN0cm9rZS13aWR0aD0iLjA1IiBzdHJva2U9IiMzYTQxNGEiLz48cGF0aCBmaWxsPSIjM2E0MTRhIiBkPSJNMjAyLjkgODgzLjE2bC0xNC4yOCA0LjYzdi05LjI4eiIvPjxwYXRoIGZpbGw9IiMzYTQxNGEiIHN0cm9rZS13aWR0aD0iLjA1IiBzdHJva2U9IiMzYTQxNGEiIGQ9Ik0yMDYuMDQgODgzLjE2bC0xOC40IDUuOTh2LTExLjk2em0tMTYuNDQgMy4zbDEwLjEzLTMuMy0xMC4xMy0zLjN6Ii8+PGc+PHVzZSB0cmFuc2Zvcm09Im1hdHJpeCgxLDAsMCwxLDEyNy43NzM0Mzc1LDk0Mi4wODQ4NDY3OTcwNjc5KSB0cmFuc2xhdGUoMCAxNy4yMjIyMjIyMjIyMjIyMikiIHhsaW5rOmhyZWY9IiNpIi8+PC9nPjxwYXRoIGZpbGw9IiMzYTQxNGEiIHN0cm9rZS13aWR0aD0iLjA1IiBzdHJva2U9IiMzYTQxNGEiIGQ9Ik0yODAuNDggMTE2Mi42MmgtLjk2di0xMi41N2guOTZ6bTAtMzQuMDhoLS45NnYtMjguNDVoLjk2eiIvPjxwYXRoIGZpbGw9IiMzYTQxNGEiIGQ9Ik0yODAgMTA5OS42bC40OC0uMDR2LjU0aC0uOTZ2LS41NHoiLz48cGF0aCBmaWxsPSIjM2E0MTRhIiBzdHJva2Utd2lkdGg9Ii4wNSIgc3Ryb2tlPSIjM2E0MTRhIi8+PHBhdGggZmlsbD0iIzNhNDE0YSIgZD0iTTI4MCAxMTc3LjM4bC00LjYzLTE0LjI2aDkuMjZ6Ii8+PHBhdGggZmlsbD0iIzNhNDE0YSIgc3Ryb2tlLXdpZHRoPSIuMDUiIHN0cm9rZT0iIzNhNDE0YSIgZD0iTTI4MCAxMTc4LjkybC01LjMtMTYuMjhoMTAuNnptLTMuOTgtMTUuMzNsMy45OCAxMi4yNSAzLjk4LTEyLjI2eiIvPjxnPjx1c2UgdHJhbnNmb3JtPSJtYXRyaXgoMSwwLDAsMSwyNjQuMjAxMzg4ODg4ODg4OSwxMTI4LjUzNzE0NTU0NzYyMzYpIHRyYW5zbGF0ZSgwIDE3LjIyMjIyMjIyMjIyMjIyKSIgeGxpbms6aHJlZj0iI2oiLz48L2c+PHBhdGggZmlsbD0iI2ZmZiIgc3Ryb2tlLXdpZHRoPSIyIiBzdHJva2U9IiMwMDAiIGQ9Ik0yMDAgMTE4NmE2IDYgMCAwIDEgNi02aDE0OGE2IDYgMCAwIDEgNiA2djEwOGE2IDYgMCAwIDEtNiA2SDIwNmE2IDYgMCAwIDEtNi02eiIvPjxnPjx1c2UgdHJhbnNmb3JtPSJtYXRyaXgoMSwwLDAsMSwyMTIsMTE5MikgdHJhbnNsYXRlKDQ2LjcyNzIxMzU0MTY2NjY3IDI0LjUyNzc3Nzc3Nzc3Nzc4KSIgeGxpbms6aHJlZj0iI2FhIi8+PHVzZSB0cmFuc2Zvcm09Im1hdHJpeCgxLDAsMCwxLDIxMiwxMTkyKSB0cmFuc2xhdGUoMy41NTIzMDAzNDcyMjIyMjg1IDU2Ljc5MzQwMjc3Nzc3Nzc4KSIgeGxpbms6aHJlZj0iI2FiIi8+PHVzZSB0cmFuc2Zvcm09Im1hdHJpeCgxLDAsMCwxLDIxMiwxMTkyKSB0cmFuc2xhdGUoMTEyLjA3MDA5NTQ4NjExMTExIDU2Ljc5MzQwMjc3Nzc3Nzc4KSIgeGxpbms6aHJlZj0iI0IiLz48dXNlIHRyYW5zZm9ybT0ibWF0cml4KDEsMCwwLDEsMjEyLDExOTIpIHRyYW5zbGF0ZSgxOS41MzUzNzMyNjM4ODg4OTMgODkuMDU5MDI3Nzc3Nzc3NzcpIiB4bGluazpocmVmPSIjQyIvPjwvZz48cGF0aCBmaWxsPSIjM2E0MTRhIiBzdHJva2Utd2lkdGg9Ii4wNSIgc3Ryb2tlPSIjM2E0MTRhIiBkPSJNMTI4MC40NyA5ODMuOTVoLS45NHYtMTMuMmguOTR6bTAtMzQuN2gtLjk0di0yOS4wOGguOTR6Ii8+PHBhdGggZmlsbD0iIzNhNDE0YSIgZD0iTTEyODAgOTE5LjY3bC40Ny0uMDJ2LjUzaC0uOTR2LS41M3oiLz48cGF0aCBmaWxsPSIjM2E0MTRhIiBzdHJva2Utd2lkdGg9Ii4wNSIgc3Ryb2tlPSIjM2E0MTRhIi8+PHBhdGggZmlsbD0iIzNhNDE0YSIgZD0iTTEyODAgOTk4LjdsLTQuNjMtMTQuMjVoOS4yN3oiLz48cGF0aCBmaWxsPSIjM2E0MTRhIiBzdHJva2Utd2lkdGg9Ii4wNSIgc3Ryb2tlPSIjM2E0MTRhIiBkPSJNMTI4MCAxMDAwLjI1bC01LjMtMTYuMjhoMTAuNnptLTMuOTgtMTUuMzNsMy45OCAxMi4yNSAzLjk4LTEyLjI1eiIvPjxnPjx1c2UgdHJhbnNmb3JtPSJtYXRyaXgoMSwwLDAsMSwxMjY3Ljc3MzQzNzUsOTQ5LjI0NDc5MTY2NjY2NjYpIHRyYW5zbGF0ZSgwIDE3LjIyMjIyMjIyMjIyMjIyKSIgeGxpbms6aHJlZj0iI2kiLz48L2c+PHBhdGggZmlsbD0iI2ZmZiIgc3Ryb2tlLXdpZHRoPSIyIiBzdHJva2U9IiMwMDAiIGQ9Ik0xMjc0LjU2IDEwMDIuNTRhMTIuODYgMTIuODYgMCAwIDEgMTAuODggMGwxMzkuMTIgNjQuOTJhMi44IDIuOCAwIDAgMSAwIDUuMDhsLTEzOS4xMiA2NC45MmExMi44NiAxMi44NiAwIDAgMS0xMC44OCAwbC0xMzkuMTItNjQuOTJhMi44IDIuOCAwIDAgMSAwLTUuMDh6Ii8+PGc+PHVzZSB0cmFuc2Zvcm09Im1hdHJpeCgxLDAsMCwxLDExMzUsMTAwNSkgdHJhbnNsYXRlKDYwLjAxNjkzNTc2Mzg4ODg5IDU4LjA5MDI3Nzc3Nzc3Nzc4KSIgeGxpbms6aHJlZj0iI2siLz48dXNlIHRyYW5zZm9ybT0ibWF0cml4KDEsMCwwLDEsMTEzNSwxMDA1KSB0cmFuc2xhdGUoODMuOTY0NDE4NDAyNzc3NzggNTguMDkwMjc3Nzc3Nzc3NzgpIiB4bGluazpocmVmPSIjYWMiLz48dXNlIHRyYW5zZm9ybT0ibWF0cml4KDEsMCwwLDEsMTEzNSwxMDA1KSB0cmFuc2xhdGUoMTYyLjA3ODU2NzcwODMzMzM0IDU4LjA5MDI3Nzc3Nzc3Nzc4KSIgeGxpbms6aHJlZj0iI3AiLz48dXNlIHRyYW5zZm9ybT0ibWF0cml4KDEsMCwwLDEsMTEzNSwxMDA1KSB0cmFuc2xhdGUoOTcuMDM0MDc5ODYxMTExMTEgODQuOTc4Mjk4NjExMTExMTEpIiB4bGluazpocmVmPSIjbiIvPjwvZz48cGF0aCBmaWxsPSIjM2E0MTRhIiBzdHJva2Utd2lkdGg9Ii4wNSIgc3Ryb2tlPSIjM2E0MTRhIiBkPSJNMTA1MS4xIDEwNzAuNDdoLTMzLjcydi0uOTRoMzMuNzN6bTgxLjIyIDBoLTQ5LjZ2LS45NGg0OS42eiIvPjxwYXRoIGZpbGw9IiMzYTQxNGEiIGQ9Ik0xMTMyLjgyIDEwNzBsLjA1LjQ3aC0uNTd2LS45NGguNTd6Ii8+PHBhdGggZmlsbD0iIzNhNDE0YSIgc3Ryb2tlLXdpZHRoPSIuMDUiIHN0cm9rZT0iIzNhNDE0YSIvPjxwYXRoIGZpbGw9IiMzYTQxNGEiIGQ9Ik0xMDE2Ljg4IDEwNzQuNjNsLTE0LjI2LTQuNjMgMTQuMjYtNC42M3oiLz48cGF0aCBmaWxsPSIjM2E0MTRhIiBzdHJva2Utd2lkdGg9Ii4wNSIgc3Ryb2tlPSIjM2E0MTRhIiBkPSJNMTAxNy4zNiAxMDc1LjNsLTE2LjI4LTUuMyAxNi4yOC01LjN6bS0xMy4yLTUuM2wxMi4yNSAzLjk4di03Ljk2eiIvPjxnPjx1c2UgdHJhbnNmb3JtPSJtYXRyaXgoMSwwLDAsMSwxMDUxLjEwODc1MDg1MjUwMzgsMTA1OS4yNDQ3OTE2NjY2NjY3KSB0cmFuc2xhdGUoMCAxNy4yMjIyMjIyMjIyMjIyMikiIHhsaW5rOmhyZWY9IiNqIi8+PC9nPjxwYXRoIGZpbGw9IiNmZmYiIHN0cm9rZS13aWR0aD0iMiIgc3Ryb2tlPSIjMDAwIiBkPSJNODQwIDEwMTZhNiA2IDAgMCAxIDYtNmgxNDhhNiA2IDAgMCAxIDYgNnYxMDhhNiA2IDAgMCAxLTYgNkg4NDZhNiA2IDAgMCAxLTYtNnoiLz48Zz48dXNlIHRyYW5zZm9ybT0ibWF0cml4KDEsMCwwLDEsODUyLDEwMjIpIHRyYW5zbGF0ZSg1LjQ0NTc0NjUyNzc3Nzc3OSAzOS41Mjc3Nzc3Nzc3Nzc3OCkiIHhsaW5rOmhyZWY9IiNxIi8+PHVzZSB0cmFuc2Zvcm09Im1hdHJpeCgxLDAsMCwxLDg1MiwxMDIyKSB0cmFuc2xhdGUoNzAuMjAyNjkwOTcyMjIyMjMgMzkuNTI3Nzc3Nzc3Nzc3NzgpIiB4bGluazpocmVmPSIjYWQiLz48dXNlIHRyYW5zZm9ybT0ibWF0cml4KDEsMCwwLDEsODUyLDEwMjIpIHRyYW5zbGF0ZSg0OS41MjY2OTI3MDgzMzMzMyA3MS43OTM0MDI3Nzc3Nzc3NykiIHhsaW5rOmhyZWY9IiNzIi8+PC9nPjxwYXRoIGZpbGw9IiMzYTQxNGEiIHN0cm9rZS13aWR0aD0iLjA1IiBzdHJva2U9IiMzYTQxNGEiIGQ9Ik03ODQgNzU4LjZsMSAuMjQuOTQuNC44Ny41Mi43OC42Ni42Ni43Ny41My44Ni40Ljk0LjIzIDEgLjA4Ljk4djE3LjY0aC0uOTZ2LTE3LjZsLS4wNi0uODgtLjItLjg1LS4zNC0uOC0uNDUtLjc1LS41Ni0uNjYtLjY1LS41Ny0uNzQtLjQ1LS44LS4zMy0uODQtLjItLjg4LS4wN0gxMDYuMDJsLS44OC4wNi0uODUuMi0uOC4zNC0uNzUuNDUtLjY2LjU2LS41Ny42NS0uNDUuNzQtLjMzLjgtLjIuODQtLjA4Ljg4djQ2OC45NmwuMDcuODguMi44NS4zNC44LjQ1Ljc1LjU2LjY2LjY1LjU3Ljc0LjQ1LjguMzMuODQuMi44OC4wOGg5Mi40OHYuOTRoLTkyLjUybC0xLS4wNy0uOTgtLjI0LS45NC0uNC0uODctLjUyLS43OC0uNjYtLjY2LS43Ny0uNTMtLjg2LS40LS45NC0uMjMtMS0uMDctLjk4Vjc2NC45OGwuMDctMSAuMjQtLjk4LjQtLjk0LjUyLS44Ny42Ni0uNzguNzctLjY2Ljg2LS41My45NC0uNCAxLS4yMy45OC0uMDhoNjc3LjA0eiIvPjxwYXRoIGZpbGw9IiMzYTQxNGEiIGQ9Ik0xOTkgMTI0MC40N2gtLjV2LS45NGguNXoiLz48cGF0aCBmaWxsPSIjM2E0MTRhIiBzdHJva2Utd2lkdGg9Ii4wNSIgc3Ryb2tlPSIjM2E0MTRhIi8+PHBhdGggZmlsbD0iIzNhNDE0YSIgZD0iTTc4OSA3OTcuMzhsLTQuNjMtMTQuMjZoOS4yNnoiLz48cGF0aCBmaWxsPSIjM2E0MTRhIiBzdHJva2Utd2lkdGg9Ii4wNSIgc3Ryb2tlPSIjM2E0MTRhIiBkPSJNNzg5IDc5OC45MmwtNS4zLTE2LjI4aDEwLjZ6bS0zLjk4LTE1LjMzbDMuOTggMTIuMjUgMy45OC0xMi4yNnpNNTYwLjQ4IDkyNi41aC0uOTZ2LTExLjUyaC45NnoiLz48cGF0aCBmaWxsPSIjM2E0MTRhIiBkPSJNNTYwIDkxNC40OGwuNDgtLjAydi41M2gtLjk2di0uNTR6Ii8+PHBhdGggZmlsbD0iIzNhNDE0YSIgc3Ryb2tlLXdpZHRoPSIuMDUiIHN0cm9rZT0iIzNhNDE0YSIvPjxwYXRoIGZpbGw9IiMzYTQxNGEiIGQ9Ik01NjAgOTU4LjM4TDU1Ni42MiA5NDhoNi43NXoiLz48cGF0aCBmaWxsPSIjM2E0MTRhIiBzdHJva2Utd2lkdGg9Ii4wNSIgc3Ryb2tlPSIjM2E0MTRhIiBkPSJNNTYwIDk1OS45Mkw1NTYuMTMgOTQ4aDFsMi44NyA4Ljg1IDIuODgtOC44NWgxeiIvPjxnPjx1c2UgdHJhbnNmb3JtPSJtYXRyaXgoMSwwLDAsMSw1NDcuNzczNDM3NSw5MjYuNDg1MDg5ODUxNTc5MykgdHJhbnNsYXRlKDAgMTcuMjIyMjIyMjIyMjIyMjIpIiB4bGluazpocmVmPSIjaSIvPjwvZz48ZGVmcz48cGF0aCBpZD0iYWUiIGQ9Ik02NTcgMjZjLTMyMyAwLTUyNC0xNjYtNTQxLTQxNmgxOTVjMTUgMTY5IDE3MSAyNDYgMzQ2IDI0NiAyMDIgMCAzNTYtMTA2IDM1Ni0yNjUgNS0yMDMtMjk0LTIzOC00NzUtMjkzLTIzOS03My0zODAtMTkxLTM4MC0zODkgMC0yNTIgMjI0LTQxOSA1MTItNDE5IDI5NCAwIDQ5OSAxNzEgNTA4IDM5Nkg5OTJjLTE3LTE0NS0xNTEtMjI4LTMyOC0yMjgtMTkzIDAtMzIxIDEwMi0zMjEgMjQyIDAgMTU2IDE3NSAyMTEgMjg0IDI0MWwxNDkgNDFjMTYwIDQ0IDQyMiAxMzQgNDIyIDQxMiAwIDI0NC0xOTcgNDMyLTU0MSA0MzIiLz48cGF0aCBpZD0iYWYiIGQ9Ik0zMzgtNjcwVjBIMTU4di0xNDkwaDE4MHY1NjZjNzMtMTQ5IDE5MC0yMDggMzM2LTIwOCAyMjYgMCAzNzkgMTM5IDM3OSA0MjJWMEg4NzJ2LTY5NWMwLTE3Mi05Ni0yNzUtMjUyLTI3NS0xNjEgMC0yODIgMTA5LTI4MiAzMDAiLz48cGF0aCBpZD0iYWciIGQ9Ik02MTMgMjRjLTMwNCAwLTUwOS0yMzEtNTA5LTU3NiAwLTM1MCAyMDUtNTgwIDUwOS01ODAgMzA1IDAgNTExIDIzMCA1MTEgNTgwIDAgMzQ1LTIwNiA1NzYtNTExIDU3NnptMC0xNjFjMjI2IDAgMzI5LTE5NSAzMjktNDE1IDAtMjIyLTEwMy00MTktMzI5LTQxOS0yMjMgMC0zMjYgMTk2LTMyNiA0MTkgMCAyMjAgMTAzIDQxNSAzMjYgNDE1Ii8+PHBhdGggaWQ9ImFoIiBkPSJNNDA5IDBMNzAtMTExOGgxOTFjODkgMzI5IDE2NSA1NjAgMjQzIDkyNSA3NS0zNTMgMTU0LTYwMSAyNDAtOTI1aDE5MmM4NSAzMjUgMTYxIDU2NCAyMzUgOTIyIDc3LTM1NCAxNTctNTk4IDI0NC05MjJoMTkxTDEyNjcgMGgtMTc5Yy04Ni0zMDctMTc2LTU5MC0yNTAtOTEzQzc2My01ODggNjc1LTMwOCA1ODggMEg0MDkiLz48ZyBpZD0iYSI+PHVzZSB4bGluazpocmVmPSIjYWUiIHRyYW5zZm9ybT0ibWF0cml4KDAuMDEwODUwNjk0NDQ0NDQ0NDQ0LDAsMCwwLjAxMDg1MDY5NDQ0NDQ0NDQ0NCwwLDApIi8+PHVzZSB4bGluazpocmVmPSIjYWYiIHRyYW5zZm9ybT0ibWF0cml4KDAuMDEwODUwNjk0NDQ0NDQ0NDQ0LDAsMCwwLjAxMDg1MDY5NDQ0NDQ0NDQ0NCwxNC4yNTc4MTI1LDApIi8+PHVzZSB4bGluazpocmVmPSIjYWciIHRyYW5zZm9ybT0ibWF0cml4KDAuMDEwODUwNjk0NDQ0NDQ0NDQ0LDAsMCwwLjAxMDg1MDY5NDQ0NDQ0NDQ0NCwyNy4zOTgwMDM0NzIyMjIyMiwwKSIvPjx1c2UgeGxpbms6aHJlZj0iI2FoIiB0cmFuc2Zvcm09Im1hdHJpeCgwLjAxMDg1MDY5NDQ0NDQ0NDQ0NCwwLDAsMC4wMTA4NTA2OTQ0NDQ0NDQ0NDQsNDAuMzIxMTgwNTU1NTU1NTYsMCkiLz48L2c+PHBhdGggaWQ9ImFpIiBkPSJNNjQ1IDBIMTgwdi0xNDkwaDQ4NGM0MzUgMCA2OTIgMjgwIDY5MiA3NDIgMCA0NjYtMjU3IDc0OC03MTEgNzQ4ek0zNzAtMTY4aDI2M2MzNjMgMCA1MzktMjE4IDUzOS01ODAgMC0zNTgtMTc2LTU3NC01MjEtNTc0SDM3MHYxMTU0Ii8+PHBhdGggaWQ9ImFqIiBkPSJNNDcxIDI2QzI1OSAyNiA5MC05OCA5MC0zMThjMC0yNTYgMjI4LTMwMyA0MzUtMzI5IDIwMi0yNyAyODctMTYgMjg3LTEwOCAwLTEzOS03OS0yMTktMjM0LTIxOS0xNjEgMC0yNDggODYtMjgzIDE2NGwtMTczLTU3Yzg2LTIwMyAyNzgtMjY1IDQ1MS0yNjUgMTUwIDAgNDE5IDQ2IDQxOSAzOTVWMEg4MTV2LTE1MmgtMTJDNzY1LTczIDY2MCAyNiA0NzEgMjZ6bTMxLTE1OWMxOTkgMCAzMTAtMTM0IDMxMC0yNzF2LTE1NWMtMzAgMzUtMjI2IDU1LTI5NSA2NC0xMzEgMTctMjQ2IDU5LTI0NiAxODYgMCAxMTYgOTcgMTc2IDIzMSAxNzYiLz48cGF0aCBpZD0iYWsiIGQ9Ik01MzggMjRDMzA4IDI0IDE0OC03OCAxMDgtMjcxbDE3MS00MWMzMiAxMjMgMTIzIDE3OCAyNTcgMTc4IDE1NiAwIDI1Ni03NyAyNTYtMTY5IDAtNzctNTQtMTI4LTE2NC0xNTRsLTE4Ni00NGMtMjAzLTQ4LTMwMC0xNDgtMzAwLTMwNSAwLTE5MiAxNzYtMzI2IDQxNC0zMjYgMjMwIDAgMzUxIDExMiA0MDIgMjY5bC0xNjMgNDJjLTMxLTgwLTk0LTE1OC0yMzgtMTU4LTEzMyAwLTIzMyA2OS0yMzMgMTYyIDAgODMgNTcgMTI5IDE4OCAxNjBsMTY5IDQwYzIwMyA0OCAyOTggMTQ5IDI5OCAzMDIgMCAxOTYtMTc5IDMzOS00NDEgMzM5Ii8+PHBhdGggaWQ9ImFsIiBkPSJNNjc3IDI0Yy0yMTMgMC0yODgtMTM1LTMyNS0xOTdoLTIwVjBIMTU4di0xNDkwaDE4MHY1NTFoMTRjMzctNTkgMTA2LTE5MyAzMjQtMTkzIDI3OSAwIDQ3NCAyMjIgNDc0IDU3NiAwIDM1Ni0xOTQgNTgwLTQ3MyA1ODB6bS0yNy0xNjFjMjA5IDAgMzE3LTE4NiAzMTctNDIxIDAtMjMyLTEwNS00MTMtMzE3LTQxMy0yMDYgMC0zMTQgMTY2LTMxNCA0MTMgMCAyNDkgMTExIDQyMSAzMTQgNDIxIi8+PHBhdGggaWQ9ImFtIiBkPSJNMTU4IDB2LTExMThoMTc0djE3MmgxMmM0MS0xMTMgMTU3LTE4OCAyOTAtMTg4IDI2IDAgNzAgMiA5MSAzdjE4MWMtMTEtMi02MC0xMC0xMDgtMTAtMTYxIDAtMjc5IDEwOS0yNzkgMjYwVjBIMTU4Ii8+PHBhdGggaWQ9ImFuIiBkPSJNNTc3IDI0Yy0yNzkgMC00NzMtMjI0LTQ3My01ODAgMC0zNTQgMTk1LTU3NiA0NzQtNTc2IDIxOCAwIDI4NyAxMzQgMzI0IDE5M2gxNHYtNTUxaDE4MFYwSDkyMnYtMTczaC0yMEM4NjUtMTExIDc5MCAyNCA1NzcgMjR6bTI3LTE2MWMyMDMgMCAzMTQtMTcyIDMxNC00MjEgMC0yNDctMTA4LTQxMy0zMTQtNDEzLTIxMiAwLTMxNyAxODEtMzE3IDQxMyAwIDIzNSAxMDggNDIxIDMxNyA0MjEiLz48ZyBpZD0iYiI+PHVzZSB4bGluazpocmVmPSIjYWkiIHRyYW5zZm9ybT0ibWF0cml4KDAuMDEwODUwNjk0NDQ0NDQ0NDQ0LDAsMCwwLjAxMDg1MDY5NDQ0NDQ0NDQ0NCwwLDApIi8+PHVzZSB4bGluazpocmVmPSIjYWoiIHRyYW5zZm9ybT0ibWF0cml4KDAuMDEwODUwNjk0NDQ0NDQ0NDQ0LDAsMCwwLjAxMDg1MDY5NDQ0NDQ0NDQ0NCwxNi4wMzczMjYzODg4ODg4OSwwKSIvPjx1c2UgeGxpbms6aHJlZj0iI2FrIiB0cmFuc2Zvcm09Im1hdHJpeCgwLjAxMDg1MDY5NDQ0NDQ0NDQ0NCwwLDAsMC4wMTA4NTA2OTQ0NDQ0NDQ0NDQsMjguNTE1NjI1LDApIi8+PHVzZSB4bGluazpocmVmPSIjYWYiIHRyYW5zZm9ybT0ibWF0cml4KDAuMDEwODUwNjk0NDQ0NDQ0NDQ0LDAsMCwwLjAxMDg1MDY5NDQ0NDQ0NDQ0NCw0MC4yNDUyMjU2OTQ0NDQ0NCwwKSIvPjx1c2UgeGxpbms6aHJlZj0iI2FsIiB0cmFuc2Zvcm09Im1hdHJpeCgwLjAxMDg1MDY5NDQ0NDQ0NDQ0NCwwLDAsMC4wMTA4NTA2OTQ0NDQ0NDQ0NDQsNTMuMzg1NDE2NjY2NjY2NjY0LDApIi8+PHVzZSB4bGluazpocmVmPSIjYWciIHRyYW5zZm9ybT0ibWF0cml4KDAuMDEwODUwNjk0NDQ0NDQ0NDQ0LDAsMCwwLjAxMDg1MDY5NDQ0NDQ0NDQ0NCw2Ni45OTIxODc1LDApIi8+PHVzZSB4bGluazpocmVmPSIjYWoiIHRyYW5zZm9ybT0ibWF0cml4KDAuMDEwODUwNjk0NDQ0NDQ0NDQ0LDAsMCwwLjAxMDg1MDY5NDQ0NDQ0NDQ0NCw4MC41MzM4NTQxNjY2NjY2NiwwKSIvPjx1c2UgeGxpbms6aHJlZj0iI2FtIiB0cmFuc2Zvcm09Im1hdHJpeCgwLjAxMDg1MDY5NDQ0NDQ0NDQ0NCwwLDAsMC4wMTA4NTA2OTQ0NDQ0NDQ0NDQsOTMuMDEyMTUyNzc3Nzc3NzcsMCkiLz48dXNlIHhsaW5rOmhyZWY9IiNhbiIgdHJhbnNmb3JtPSJtYXRyaXgoMC4wMTA4NTA2OTQ0NDQ0NDQ0NDQsMCwwLDAuMDEwODUwNjk0NDQ0NDQ0NDQ0LDEwMS4wMDkxMTQ1ODMzMzMzMywwKSIvPjwvZz48cGF0aCBpZD0iYW8iIGQ9Ik05OC0xMzIydi0xNjhoMTEyNnYxNjhINzU3VjBINTY3di0xMzIySDk4Ii8+PHBhdGggaWQ9ImFwIiBkPSJNNTIgMGw1NDEtMTQ5MGgyMjBMMTM2MSAwaC0yMDBsLTE0OS00MTZIMzk4TDI1NCAwSDUyem00MDQtNTgyaDQ5N2MtMTAzLTI5MC0xNDUtMzkwLTI1MS03NTYtMTA4IDM3Ny0xNDUgNDYwLTI0NiA3NTYiLz48cGF0aCBpZD0iYXEiIGQ9Ik0xODAgMHYtMTQ5MGg1MTBjMzQ4IDAgNTA4IDE5NCA1MDggNDYwIDAgMTk4LTg4IDM1MS0yNzYgNDE3TDEyNTYgMGgtMjIwTDcyNi01NzljLTExNyAyLTIzOCAwLTM1NiAxVjBIMTgwem0xOTAtNzQ3aDMxMmMyMzUgMCAzMjctMTA4IDMyNy0yODMgMC0xNzctOTItMjkzLTMyOS0yOTNIMzcwdjU3NiIvPjxnIGlkPSJjIj48dXNlIHhsaW5rOmhyZWY9IiNhZSIgdHJhbnNmb3JtPSJtYXRyaXgoMC4wMTA4NTA2OTQ0NDQ0NDQ0NDQsMCwwLDAuMDEwODUwNjk0NDQ0NDQ0NDQ0LDAsMCkiLz48dXNlIHhsaW5rOmhyZWY9IiNhbyIgdHJhbnNmb3JtPSJtYXRyaXgoMC4wMTA4NTA2OTQ0NDQ0NDQ0NDQsMCwwLDAuMDEwODUwNjk0NDQ0NDQ0NDQ0LDE0LjI1NzgxMjUsMCkiLz48dXNlIHhsaW5rOmhyZWY9IiNhcCIgdHJhbnNmb3JtPSJtYXRyaXgoMC4wMTA4NTA2OTQ0NDQ0NDQ0NDQsMCwwLDAuMDEwODUwNjk0NDQ0NDQ0NDQ0LDI2LjcxNDQwOTcyMjIyMjIyLDApIi8+PHVzZSB4bGluazpocmVmPSIjYXEiIHRyYW5zZm9ybT0ibWF0cml4KDAuMDEwODUwNjk0NDQ0NDQ0NDQ0LDAsMCwwLjAxMDg1MDY5NDQ0NDQ0NDQ0NCw0Mi4wNDY0NDA5NzIyMjIyMiwwKSIvPjx1c2UgeGxpbms6aHJlZj0iI2FvIiB0cmFuc2Zvcm09Im1hdHJpeCgwLjAxMDg1MDY5NDQ0NDQ0NDQ0NCwwLDAsMC4wMTA4NTA2OTQ0NDQ0NDQ0NDQsNTYuMzQ3NjU2MjUsMCkiLz48L2c+PHBhdGggaWQ9ImFyIiBkPSJNNzYzIDI0Yy0zNTMgMC01ODMtMjI0LTU4My01MzF2LTk4M2gxOTB2OTY4YzAgMjE0IDE0OSAzNzAgMzkzIDM3MCAyNDMgMCAzOTEtMTU2IDM5MS0zNzB2LTk2OGgxOTB2OTgzYzAgMzA3LTIzMCA1MzEtNTgxIDUzMSIvPjxwYXRoIGlkPSJhcyIgZD0iTTYyOCAyNGMtMzI0IDAtNTI0LTIzMC01MjQtNTc0IDAtMzQzIDE5OC01ODIgNTAzLTU4MiAyMzcgMCA0ODcgMTQ2IDQ4NyA1NTl2NzVIMjg2YzkgMjM0IDE0NSAzNjIgMzQzIDM2MiAxMzIgMCAyMzEtNTggMjczLTE3MmwxNzQgNDhDMTAyNC05MSA4NTcgMjQgNjI4IDI0ek0yODctNjUwaDYyNGMtMTctMTkwLTEyMC0zMjItMzA0LTMyMi0xOTIgMC0zMDkgMTUxLTMyMCAzMjIiLz48ZyBpZD0iZSI+PHVzZSB4bGluazpocmVmPSIjYXIiIHRyYW5zZm9ybT0ibWF0cml4KDAuMDEwODUwNjk0NDQ0NDQ0NDQ0LDAsMCwwLjAxMDg1MDY5NDQ0NDQ0NDQ0NCwwLDApIi8+PHVzZSB4bGluazpocmVmPSIjYWsiIHRyYW5zZm9ybT0ibWF0cml4KDAuMDEwODUwNjk0NDQ0NDQ0NDQ0LDAsMCwwLjAxMDg1MDY5NDQ0NDQ0NDQ0NCwxNi41MzY0NTgzMzMzMzMzMzIsMCkiLz48dXNlIHhsaW5rOmhyZWY9IiNhcyIgdHJhbnNmb3JtPSJtYXRyaXgoMC4wMTA4NTA2OTQ0NDQ0NDQ0NDQsMCwwLDAuMDEwODUwNjk0NDQ0NDQ0NDQ0LDI4LjI2NjA1OTAyNzc3Nzc3NSwwKSIvPjx1c2UgeGxpbms6aHJlZj0iI2FtIiB0cmFuc2Zvcm09Im1hdHJpeCgwLjAxMDg1MDY5NDQ0NDQ0NDQ0NCwwLDAsMC4wMTA4NTA2OTQ0NDQ0NDQ0NDQsNDEuMjIxNzg4MTk0NDQ0NDQsMCkiLz48L2c+PHBhdGggaWQ9ImF0IiBkPSJNMTgwIDB2LTE0OTBoMTkwdjEzMjJoNjkwVjBIMTgwIi8+PHBhdGggaWQ9ImF1IiBkPSJNNjExIDQ0MmMtMjQ4IDAtMzkxLTEwNS00NjAtMjI4bDE0Ni05NGM0NyA2NSAxMTcgMTY1IDMxNCAxNjUgMTc4IDAgMzA3LTgyIDMwNy0yNjZ2LTIyNGgtMTdDODYzLTE0MSA3OTItMTggNTc2LTE4Yy0yNjggMC00NzItMTk1LTQ3Mi01NDYgMC0zNDYgMTk3LTU2OCA0NzYtNTY4IDIxNiAwIDI4OCAxMzMgMzI2IDE5M2gxN3YtMTc5aDE3NVYyOWMwIDI4OS0yMTUgNDEzLTQ4NyA0MTN6bS01LTYyMGMyMDMgMCAzMTQtMTQ2IDMxNC0zOTAgMC0yMzctMTA4LTQwMy0zMTQtNDAzLTIxMyAwLTMxOSAxODAtMzE5IDQwMyAwIDIzMCAxMDkgMzkwIDMxOSAzOTAiLz48cGF0aCBpZD0iYXYiIGQ9Ik0xNTggMHYtMTExOGgxODBWMEgxNTh6bTkxLTEzMDFjLTY4IDAtMTI1LTUzLTEyNS0xMTlzNTctMTE5IDEyNS0xMTljNjkgMCAxMjYgNTMgMTI2IDExOXMtNTcgMTE5LTEyNiAxMTkiLz48cGF0aCBpZD0iYXciIGQ9Ik0zMzgtNjcwVjBIMTU4di0xMTE4aDE3M2wxIDIwN2M3Mi0xNTggMTkyLTIyMSAzNDItMjIxIDIyNiAwIDM3OCAxMzkgMzc4IDQyMlYwSDg3MnYtNjk1YzAtMTcyLTk2LTI3NS0yNTItMjc1LTE2MSAwLTI4MiAxMDktMjgyIDMwMCIvPjxnIGlkPSJmIj48dXNlIHhsaW5rOmhyZWY9IiNhdCIgdHJhbnNmb3JtPSJtYXRyaXgoMC4wMTA4NTA2OTQ0NDQ0NDQ0NDQsMCwwLDAuMDEwODUwNjk0NDQ0NDQ0NDQ0LDAsMCkiLz48dXNlIHhsaW5rOmhyZWY9IiNhZyIgdHJhbnNmb3JtPSJtYXRyaXgoMC4wMTA4NTA2OTQ0NDQ0NDQ0NDQsMCwwLDAuMDEwODUwNjk0NDQ0NDQ0NDQ0LDEyLjU2NTEwNDE2NjY2NjY2NiwwKSIvPjx1c2UgeGxpbms6aHJlZj0iI2F1IiB0cmFuc2Zvcm09Im1hdHJpeCgwLjAxMDg1MDY5NDQ0NDQ0NDQ0NCwwLDAsMC4wMTA4NTA2OTQ0NDQ0NDQ0NDQsMjUuODg5NzU2OTQ0NDQ0NDQzLDApIi8+PHVzZSB4bGluazpocmVmPSIjYXYiIHRyYW5zZm9ybT0ibWF0cml4KDAuMDEwODUwNjk0NDQ0NDQ0NDQ0LDAsMCwwLjAxMDg1MDY5NDQ0NDQ0NDQ0NCwzOS41MTgyMjkxNjY2NjY2NjQsMCkiLz48dXNlIHhsaW5rOmhyZWY9IiNhdyIgdHJhbnNmb3JtPSJtYXRyaXgoMC4wMTA4NTA2OTQ0NDQ0NDQ0NDQsMCwwLDAuMDEwODUwNjk0NDQ0NDQ0NDQ0LDQ0LjkwMDE3MzYxMTExMTExLDApIi8+PC9nPjxwYXRoIGlkPSJheCIgZD0iTTM3MC0xNDkwVjBIMTgwdi0xNDkwaDE5MCIvPjxnIGlkPSJnIj48dXNlIHhsaW5rOmhyZWY9IiNheCIgdHJhbnNmb3JtPSJtYXRyaXgoMC4wMTA4NTA2OTQ0NDQ0NDQ0NDQsMCwwLDAuMDEwODUwNjk0NDQ0NDQ0NDQ0LDAsMCkiLz48dXNlIHhsaW5rOmhyZWY9IiNhayIgdHJhbnNmb3JtPSJtYXRyaXgoMC4wMTA4NTA2OTQ0NDQ0NDQ0NDQsMCwwLDAuMDEwODUwNjk0NDQ0NDQ0NDQ0LDUuOTY3ODgxOTQ0NDQ0NDQ1LDApIi8+PC9nPjxwYXRoIGlkPSJheSIgZD0iTTU5OC0xMTE4djE1NEgzNjh2Njc0YzAgMTAwIDM3IDE0NCAxMzIgMTQ0IDIzIDAgNjItNiA5Mi0xMkw2MjktNmMtMzcgMTMtODggMjAtMTM0IDIwLTE5MyAwLTMwNy0xMDctMzA3LTI5MHYtNjg4SDIwdi0xNTRoMTY4di0yNjZoMTgwdjI2NmgyMzAiLz48cGF0aCBpZD0iYXoiIGQ9Ik0zODMtNDQ5Yy0zLTI3NyA4Mi0zNDMgMjIyLTQyNSA4OC01MyAxNTYtMTM0IDE1Ni0yNTAgMC0xMzktMTA4LTIyNy0yNDMtMjI3LTExOCAwLTIzNSA3MC0yNDYgMjM2SDgyYzEwLTI1MSAyMDAtMzk1IDQzNi0zOTUgMjU5IDAgNDI3IDE2NSA0MjcgMzkzIDAgMTYxLTc0IDI3My0yMDMgMzUyLTEzMiA4MC0xODAgMTMyLTE3OCAzMTZIMzgzem05MyA0NjJjLTc1IDAtMTM1LTYwLTEzNS0xMzQgMC03NSA2MC0xMzUgMTM1LTEzNSA3NCAwIDEzNCA2MCAxMzQgMTM1IDAgNzQtNjAgMTM0LTEzNCAxMzQiLz48ZyBpZD0iaCI+PHVzZSB4bGluazpocmVmPSIjYXEiIHRyYW5zZm9ybT0ibWF0cml4KDAuMDEwODUwNjk0NDQ0NDQ0NDQ0LDAsMCwwLjAxMDg1MDY5NDQ0NDQ0NDQ0NCwwLDApIi8+PHVzZSB4bGluazpocmVmPSIjYXMiIHRyYW5zZm9ybT0ibWF0cml4KDAuMDEwODUwNjk0NDQ0NDQ0NDQ0LDAsMCwwLjAxMDg1MDY5NDQ0NDQ0NDQ0NCwxMy45NzU2OTQ0NDQ0NDQ0NDUsMCkiLz48dXNlIHhsaW5rOmhyZWY9IiNhdSIgdHJhbnNmb3JtPSJtYXRyaXgoMC4wMTA4NTA2OTQ0NDQ0NDQ0NDQsMCwwLDAuMDEwODUwNjk0NDQ0NDQ0NDQ0LDI2LjkzMTQyMzYxMTExMTEwNCwwKSIvPjx1c2UgeGxpbms6aHJlZj0iI2F2IiB0cmFuc2Zvcm09Im1hdHJpeCgwLjAxMDg1MDY5NDQ0NDQ0NDQ0NCwwLDAsMC4wMTA4NTA2OTQ0NDQ0NDQ0NDQsNDAuNTU5ODk1ODMzMzMzMzMsMCkiLz48dXNlIHhsaW5rOmhyZWY9IiNhayIgdHJhbnNmb3JtPSJtYXRyaXgoMC4wMTA4NTA2OTQ0NDQ0NDQ0NDQsMCwwLDAuMDEwODUwNjk0NDQ0NDQ0NDQ0LDQ1Ljk0MTg0MDI3Nzc3Nzc4LDApIi8+PHVzZSB4bGluazpocmVmPSIjYXkiIHRyYW5zZm9ybT0ibWF0cml4KDAuMDEwODUwNjk0NDQ0NDQ0NDQ0LDAsMCwwLjAxMDg1MDY5NDQ0NDQ0NDQ0NCw1Ny42NzE0NDA5NzIyMjIyMSwwKSIvPjx1c2UgeGxpbms6aHJlZj0iI2FzIiB0cmFuc2Zvcm09Im1hdHJpeCgwLjAxMDg1MDY5NDQ0NDQ0NDQ0NCwwLDAsMC4wMTA4NTA2OTQ0NDQ0NDQ0NDQsNjQuNzI0MzkyMzYxMTExMSwwKSIvPjx1c2UgeGxpbms6aHJlZj0iI2FtIiB0cmFuc2Zvcm09Im1hdHJpeCgwLjAxMDg1MDY5NDQ0NDQ0NDQ0NCwwLDAsMC4wMTA4NTA2OTQ0NDQ0NDQ0NDQsNzcuNjgwMTIxNTI3Nzc3NzcsMCkiLz48dXNlIHhsaW5rOmhyZWY9IiNhcyIgdHJhbnNmb3JtPSJtYXRyaXgoMC4wMTA4NTA2OTQ0NDQ0NDQ0NDQsMCwwLDAuMDEwODUwNjk0NDQ0NDQ0NDQ0LDg1LjY3NzA4MzMzMzMzMzMzLDApIi8+PHVzZSB4bGluazpocmVmPSIjYW4iIHRyYW5zZm9ybT0ibWF0cml4KDAuMDEwODUwNjk0NDQ0NDQ0NDQ0LDAsMCwwLjAxMDg1MDY5NDQ0NDQ0NDQ0NCw5OC42MzI4MTI1LDApIi8+PHVzZSB4bGluazpocmVmPSIjYXoiIHRyYW5zZm9ybT0ibWF0cml4KDAuMDEwODUwNjk0NDQ0NDQ0NDQ0LDAsMCwwLjAxMDg1MDY5NDQ0NDQ0NDQ0NCwxMTIuMjM5NTgzMzMzMzMzMzMsMCkiLz48L2c+PHBhdGggaWQ9ImFBIiBkPSJNMTM1IDB2LTE0OTBoMzQwbDQ3MSA3NTRjNTkgOTcgMTIyIDIxMCAxODcgMzY1LTMyLTM4Ny0xNC03MjEtMTktMTExOWgzMTJWMGgtMzQxQzg1NS0zODIgNjI3LTY4OSA0MjctMTExM2MzMiA0MjAgMTYgNjk1IDIwIDExMTNIMTM1IiBmaWxsPSIjMzMzIi8+PHBhdGggaWQ9ImFCIiBkPSJNNjI4IDIyQzI5MSAyMiA4MS0yMTAgODEtNTU0YzAtMzQ2IDIxMC01NzggNTQ3LTU3OCAzMzYgMCA1NDcgMjMyIDU0NyA1NzggMCAzNDQtMjExIDU3Ni01NDcgNTc2em0wLTIzNmMxNjAgMCAyNDItMTQ2IDI0Mi0zNDEgMC0xOTctODItMzQxLTI0Mi0zNDFTMzg3LTc1MyAzODctNTU1YzAgMTk1IDgxIDM0MSAyNDEgMzQxIiBmaWxsPSIjMzMzIi8+PGcgaWQ9ImkiPjx1c2UgeGxpbms6aHJlZj0iI2FBIiB0cmFuc2Zvcm09Im1hdHJpeCgwLjAwODY4MDU1NTU1NTU1NTU1NiwwLDAsMC4wMDg2ODA1NTU1NTU1NTU1NTYsMCwwKSIvPjx1c2UgeGxpbms6aHJlZj0iI2FCIiB0cmFuc2Zvcm09Im1hdHJpeCgwLjAwODY4MDU1NTU1NTU1NTU1NiwwLDAsMC4wMDg2ODA1NTU1NTU1NTU1NTYsMTMuNTUwMzQ3MjIyMjIyMjIzLDApIi8+PC9nPjxwYXRoIGlkPSJhQyIgZD0iTTYwMSAwdi01NjBMNDktMTQ5MGgzNTdsMjUyIDQ2NGMzOCA2OCA2NyAxMzAgOTcgMjA4IDk2LTI0MyAyMjUtNDQ2IDMzNy02NzJoMzU2TDkwNS01NjBWMEg2MDEiIGZpbGw9IiMzMzMiLz48cGF0aCBpZD0iYUQiIGQ9Ik02MzMgMjJDMjkxIDIyIDgxLTIwMCA4MS01NTNjMC0zNDUgMjEwLTU3OSA1MzctNTc5IDI5MiAwIDUyNSAxODUgNTI1IDU2N3Y4NEgzNzhjNyAxODMgMTA5IDI3NyAyNjAgMjc3IDEwNSAwIDE4NC00NiAyMTYtMTMybDI3MiA1MUMxMDcxLTk5IDg5MyAyMiA2MzMgMjJ6TTM4MC02NjloNDc0Yy0xNS0xNDYtOTQtMjM3LTIzMy0yMzctMTQzIDAtMjI5IDk5LTI0MSAyMzciIGZpbGw9IiMzMzMiLz48cGF0aCBpZD0iYUUiIGQ9Ik01NzIgMjJDMzAyIDIyIDExNy05OCA3OC0zMDZsMjc5LTQ4YzI5IDEwNSAxMDEgMTU2IDIyNCAxNTYgMTE0IDAgMTg1LTQ4IDE4NS0xMTUgMC0xMTgtMjI4LTEzMC0zMzctMTU1LTIxNS00OS0zMjItMTUwLTMyMi0zMTcgMC0yMTUgMTg3LTM0NyA0NzAtMzQ3IDI2NSAwIDQyNCAxMTYgNDY2IDI5OGwtMjY2IDQ3Yy0yNC03Ni04Ny0xMzAtMTk2LTEzMC05OCAwLTE3NCA0Ni0xNzQgMTEzIDAgNTYgMzggOTUgMTQ0IDExN2wyMDEgNDBjMjE2IDQ0IDMyMCAxNDMgMzIwIDMwMiAwIDIyMC0yMDcgMzY3LTUwMCAzNjciIGZpbGw9IiMzMzMiLz48ZyBpZD0iaiI+PHVzZSB4bGluazpocmVmPSIjYUMiIHRyYW5zZm9ybT0ibWF0cml4KDAuMDA4NjgwNTU1NTU1NTU1NTU2LDAsMCwwLjAwODY4MDU1NTU1NTU1NTU1NiwwLDApIi8+PHVzZSB4bGluazpocmVmPSIjYUQiIHRyYW5zZm9ybT0ibWF0cml4KDAuMDA4NjgwNTU1NTU1NTU1NTU2LDAsMCwwLjAwODY4MDU1NTU1NTU1NTU1NiwxMS4wNTAzNDcyMjIyMjIyMjMsMCkiLz48dXNlIHhsaW5rOmhyZWY9IiNhRSIgdHJhbnNmb3JtPSJtYXRyaXgoMC4wMDg2ODA1NTU1NTU1NTU1NTYsMCwwLDAuMDA4NjgwNTU1NTU1NTU1NTU2LDIxLjY0MDYyNSwwKSIvPjwvZz48ZyBpZD0iayI+PHVzZSB4bGluazpocmVmPSIjYXgiIHRyYW5zZm9ybT0ibWF0cml4KDAuMDEwODUwNjk0NDQ0NDQ0NDQ0LDAsMCwwLjAxMDg1MDY5NDQ0NDQ0NDQ0NCwwLDApIi8+PHVzZSB4bGluazpocmVmPSIjYWsiIHRyYW5zZm9ybT0ibWF0cml4KDAuMDEwODUwNjk0NDQ0NDQ0NDQ0LDAsMCwwLjAxMDg1MDY5NDQ0NDQ0NDQ0NCw1Ljk2Nzg4MTk0NDQ0NDQ0NSwwKSIvPjwvZz48ZyBpZD0ibCI+PHVzZSB4bGluazpocmVmPSIjYWkiIHRyYW5zZm9ybT0ibWF0cml4KDAuMDEwODUwNjk0NDQ0NDQ0NDQ0LDAsMCwwLjAxMDg1MDY5NDQ0NDQ0NDQ0NCwwLDApIi8+PHVzZSB4bGluazpocmVmPSIjYWoiIHRyYW5zZm9ybT0ibWF0cml4KDAuMDEwODUwNjk0NDQ0NDQ0NDQ0LDAsMCwwLjAxMDg1MDY5NDQ0NDQ0NDQ0NCwxNi4wMzczMjYzODg4ODg4OSwwKSIvPjx1c2UgeGxpbms6aHJlZj0iI2FrIiB0cmFuc2Zvcm09Im1hdHJpeCgwLjAxMDg1MDY5NDQ0NDQ0NDQ0NCwwLDAsMC4wMTA4NTA2OTQ0NDQ0NDQ0NDQsMjguNTE1NjI1LDApIi8+PHVzZSB4bGluazpocmVmPSIjYWYiIHRyYW5zZm9ybT0ibWF0cml4KDAuMDEwODUwNjk0NDQ0NDQ0NDQ0LDAsMCwwLjAxMDg1MDY5NDQ0NDQ0NDQ0NCw0MC4yNDUyMjU2OTQ0NDQ0NCwwKSIvPjx1c2UgeGxpbms6aHJlZj0iI2FsIiB0cmFuc2Zvcm09Im1hdHJpeCgwLjAxMDg1MDY5NDQ0NDQ0NDQ0NCwwLDAsMC4wMTA4NTA2OTQ0NDQ0NDQ0NDQsNTMuMzg1NDE2NjY2NjY2NjY0LDApIi8+PHVzZSB4bGluazpocmVmPSIjYWciIHRyYW5zZm9ybT0ibWF0cml4KDAuMDEwODUwNjk0NDQ0NDQ0NDQ0LDAsMCwwLjAxMDg1MDY5NDQ0NDQ0NDQ0NCw2Ni45OTIxODc1LDApIi8+PHVzZSB4bGluazpocmVmPSIjYWoiIHRyYW5zZm9ybT0ibWF0cml4KDAuMDEwODUwNjk0NDQ0NDQ0NDQ0LDAsMCwwLjAxMDg1MDY5NDQ0NDQ0NDQ0NCw4MC41MzM4NTQxNjY2NjY2NiwwKSIvPjx1c2UgeGxpbms6aHJlZj0iI2FtIiB0cmFuc2Zvcm09Im1hdHJpeCgwLjAxMDg1MDY5NDQ0NDQ0NDQ0NCwwLDAsMC4wMTA4NTA2OTQ0NDQ0NDQ0NDQsOTMuMDEyMTUyNzc3Nzc3NzcsMCkiLz48dXNlIHhsaW5rOmhyZWY9IiNhbiIgdHJhbnNmb3JtPSJtYXRyaXgoMC4wMTA4NTA2OTQ0NDQ0NDQ0NDQsMCwwLDAuMDEwODUwNjk0NDQ0NDQ0NDQ0LDEwMS4wMDkxMTQ1ODMzMzMzMywwKSIvPjwvZz48cGF0aCBpZD0iYUYiIGQ9Ik01MzcgMTRjLTIyNiAwLTM3OS0xMzktMzc5LTQyMnYtNzEwaDE4MHY2OTVjMCAxNzIgOTcgMjc1IDI1MyAyNzUgMTYwIDAgMjgxLTEwOSAyODEtMzAwdi02NzBoMTgxVjBIODc5di0yMDlDODA2LTQ2IDY4NCAxNCA1MzcgMTQiLz48ZyBpZD0ibSI+PHVzZSB4bGluazpocmVmPSIjYWwiIHRyYW5zZm9ybT0ibWF0cml4KDAuMDEwODUwNjk0NDQ0NDQ0NDQ0LDAsMCwwLjAxMDg1MDY5NDQ0NDQ0NDQ0NCwwLDApIi8+PHVzZSB4bGluazpocmVmPSIjYUYiIHRyYW5zZm9ybT0ibWF0cml4KDAuMDEwODUwNjk0NDQ0NDQ0NDQ0LDAsMCwwLjAxMDg1MDY5NDQ0NDQ0NDQ0NCwxMy42MDY3NzA4MzMzMzMzMzIsMCkiLz48dXNlIHhsaW5rOmhyZWY9IiNheSIgdHJhbnNmb3JtPSJtYXRyaXgoMC4wMTA4NTA2OTQ0NDQ0NDQ0NDQsMCwwLDAuMDEwODUwNjk0NDQ0NDQ0NDQ0LDI2Ljc0Njk2MTgwNTU1NTU1NCwwKSIvPjx1c2UgeGxpbms6aHJlZj0iI2F5IiB0cmFuc2Zvcm09Im1hdHJpeCgwLjAxMDg1MDY5NDQ0NDQ0NDQ0NCwwLDAsMC4wMTA4NTA2OTQ0NDQ0NDQ0NDQsMzMuNDc0MzkyMzYxMTExMTEsMCkiLz48dXNlIHhsaW5rOmhyZWY9IiNhZyIgdHJhbnNmb3JtPSJtYXRyaXgoMC4wMTA4NTA2OTQ0NDQ0NDQ0NDQsMCwwLDAuMDEwODUwNjk0NDQ0NDQ0NDQ0LDQwLjUyNzM0Mzc1LDApIi8+PHVzZSB4bGluazpocmVmPSIjYXciIHRyYW5zZm9ybT0ibWF0cml4KDAuMDEwODUwNjk0NDQ0NDQ0NDQ0LDAsMCwwLjAxMDg1MDY5NDQ0NDQ0NDQ0NCw1My44NTE5OTY1Mjc3Nzc3OCwwKSIvPjwvZz48cGF0aCBpZD0iYUciIGQ9Ik0xNTggNDE4di0xNTM2aDE3NHYxNzloMjBjMzctNTkgMTA2LTE5MyAzMjQtMTkzIDI3OSAwIDQ3NCAyMjIgNDc0IDU3NiAwIDM1Ni0xOTQgNTgwLTQ3MyA1ODAtMjEzIDAtMjg4LTEzNS0zMjUtMTk3aC0xNHY1OTFIMTU4em00OTItNTU1YzIwOSAwIDMxNy0xODYgMzE3LTQyMSAwLTIzMi0xMDUtNDEzLTMxNy00MTMtMjA2IDAtMzE0IDE2Ni0zMTQgNDEzIDAgMjQ5IDExMSA0MjEgMzE0IDQyMSIvPjxnIGlkPSJuIj48dXNlIHhsaW5rOmhyZWY9IiNhRyIgdHJhbnNmb3JtPSJtYXRyaXgoMC4wMTA4NTA2OTQ0NDQ0NDQ0NDQsMCwwLDAuMDEwODUwNjk0NDQ0NDQ0NDQ0LDAsMCkiLz48dXNlIHhsaW5rOmhyZWY9IiNhbSIgdHJhbnNmb3JtPSJtYXRyaXgoMC4wMTA4NTA2OTQ0NDQ0NDQ0NDQsMCwwLDAuMDEwODUwNjk0NDQ0NDQ0NDQ0LDEzLjYwNjc3MDgzMzMzMzMzMiwwKSIvPjx1c2UgeGxpbms6aHJlZj0iI2FzIiB0cmFuc2Zvcm09Im1hdHJpeCgwLjAxMDg1MDY5NDQ0NDQ0NDQ0NCwwLDAsMC4wMTA4NTA2OTQ0NDQ0NDQ0NDQsMjEuNjAzNzMyNjM4ODg4ODg2LDApIi8+PHVzZSB4bGluazpocmVmPSIjYWsiIHRyYW5zZm9ybT0ibWF0cml4KDAuMDEwODUwNjk0NDQ0NDQ0NDQ0LDAsMCwwLjAxMDg1MDY5NDQ0NDQ0NDQ0NCwzNC41NTk0NjE4MDU1NTU1NSwwKSIvPjx1c2UgeGxpbms6aHJlZj0iI2FrIiB0cmFuc2Zvcm09Im1hdHJpeCgwLjAxMDg1MDY5NDQ0NDQ0NDQ0NCwwLDAsMC4wMTA4NTA2OTQ0NDQ0NDQ0NDQsNDYuMjg5MDYyNDk5OTk5OTg2LDApIi8+PHVzZSB4bGluazpocmVmPSIjYXMiIHRyYW5zZm9ybT0ibWF0cml4KDAuMDEwODUwNjk0NDQ0NDQ0NDQ0LDAsMCwwLjAxMDg1MDY5NDQ0NDQ0NDQ0NCw1OC4wMTg2NjMxOTQ0NDQ0MzYsMCkiLz48dXNlIHhsaW5rOmhyZWY9IiNhbiIgdHJhbnNmb3JtPSJtYXRyaXgoMC4wMTA4NTA2OTQ0NDQ0NDQ0NDQsMCwwLDAuMDEwODUwNjk0NDQ0NDQ0NDQ0LDcwLjk3NDM5MjM2MTExMTEsMCkiLz48dXNlIHhsaW5rOmhyZWY9IiNheiIgdHJhbnNmb3JtPSJtYXRyaXgoMC4wMTA4NTA2OTQ0NDQ0NDQ0NDQsMCwwLDAuMDEwODUwNjk0NDQ0NDQ0NDQ0LDg0LjU4MTE2MzE5NDQ0NDQzLDApIi8+PC9nPjxwYXRoIGlkPSJhSCIgZD0iTTE4MCAwdi0xNDkwaDUyOGMzMTEgMCA0NTggMTc3IDQ1OCAzOTUgMCAxOTEtMTE0IDI3OC0yNDQgMzEzdjE0YzEzOSA5IDMwMiAxMzcgMzAyIDM3MSAwIDIyNS0xNDggMzk3LTQ5OSAzOTdIMTgwem0xOTAtMTY4aDM1MGMyMzIgMCAzMjEtMTAyIDMyMS0yMzEgMC0xNDktMTIwLTI3Ny0zMTEtMjc3SDM3MHY1MDh6bTAtNjY4aDMyOGMxNjAgMCAyODYtMTAxIDI4Ni0yNTUgMC0xMjktODctMjMxLTI4MC0yMzFIMzcwdjQ4NiIvPjxwYXRoIGlkPSJhSSIgZD0iTTE1OCAwdi0xNDkwaDE4MHY4NjVoMjJsNDc4LTQ5M2gyMjNMNTkzLTYzOCAxMDk2IDBIODY1TDQ1Ni01MjMgMzM4LTQxMlYwSDE1OCIvPjxnIGlkPSJvIj48dXNlIHhsaW5rOmhyZWY9IiNhSCIgdHJhbnNmb3JtPSJtYXRyaXgoMC4wMTA4NTA2OTQ0NDQ0NDQ0NDQsMCwwLDAuMDEwODUwNjk0NDQ0NDQ0NDQ0LDAsMCkiLz48dXNlIHhsaW5rOmhyZWY9IiNhZyIgdHJhbnNmb3JtPSJtYXRyaXgoMC4wMTA4NTA2OTQ0NDQ0NDQ0NDQsMCwwLDAuMDEwODUwNjk0NDQ0NDQ0NDQ0LDE0LjUzOTkzMDU1NTU1NTU1NSwwKSIvPjx1c2UgeGxpbms6aHJlZj0iI2FnIiB0cmFuc2Zvcm09Im1hdHJpeCgwLjAxMDg1MDY5NDQ0NDQ0NDQ0NCwwLDAsMC4wMTA4NTA2OTQ0NDQ0NDQ0NDQsMjcuODY0NTgzMzMzMzMzMzMyLDApIi8+PHVzZSB4bGluazpocmVmPSIjYUkiIHRyYW5zZm9ybT0ibWF0cml4KDAuMDEwODUwNjk0NDQ0NDQ0NDQ0LDAsMCwwLjAxMDg1MDY5NDQ0NDQ0NDQ0NCw0MS4xODkyMzYxMTExMTExMSwwKSIvPjx1c2UgeGxpbms6aHJlZj0iI2F2IiB0cmFuc2Zvcm09Im1hdHJpeCgwLjAxMDg1MDY5NDQ0NDQ0NDQ0NCwwLDAsMC4wMTA4NTA2OTQ0NDQ0NDQ0NDQsNTMuMzg1NDE2NjY2NjY2NjY0LDApIi8+PHVzZSB4bGluazpocmVmPSIjYXciIHRyYW5zZm9ybT0ibWF0cml4KDAuMDEwODUwNjk0NDQ0NDQ0NDQ0LDAsMCwwLjAxMDg1MDY5NDQ0NDQ0NDQ0NCw1OC43NjczNjExMTExMTExMSwwKSIvPjx1c2UgeGxpbms6aHJlZj0iI2F1IiB0cmFuc2Zvcm09Im1hdHJpeCgwLjAxMDg1MDY5NDQ0NDQ0NDQ0NCwwLDAsMC4wMTA4NTA2OTQ0NDQ0NDQ0NDQsNzEuODk2NzAxMzg4ODg4ODksMCkiLz48dXNlIHhsaW5rOmhyZWY9IiNhayIgdHJhbnNmb3JtPSJtYXRyaXgoMC4wMTA4NTA2OTQ0NDQ0NDQ0NDQsMCwwLDAuMDEwODUwNjk0NDQ0NDQ0NDQ0LDg1LjUyNTE3MzYxMTExMTExLDApIi8+PC9nPjxnIGlkPSJwIj48dXNlIHhsaW5rOmhyZWY9IiNhSCIgdHJhbnNmb3JtPSJtYXRyaXgoMC4wMTA4NTA2OTQ0NDQ0NDQ0NDQsMCwwLDAuMDEwODUwNjk0NDQ0NDQ0NDQ0LDAsMCkiLz48dXNlIHhsaW5rOmhyZWY9IiNhRiIgdHJhbnNmb3JtPSJtYXRyaXgoMC4wMTA4NTA2OTQ0NDQ0NDQ0NDQsMCwwLDAuMDEwODUwNjk0NDQ0NDQ0NDQ0LDE0LjUzOTkzMDU1NTU1NTU1NSwwKSIvPjx1c2UgeGxpbms6aHJlZj0iI2F5IiB0cmFuc2Zvcm09Im1hdHJpeCgwLjAxMDg1MDY5NDQ0NDQ0NDQ0NCwwLDAsMC4wMTA4NTA2OTQ0NDQ0NDQ0NDQsMjcuNjgwMTIxNTI3Nzc3NzgsMCkiLz48dXNlIHhsaW5rOmhyZWY9IiNheSIgdHJhbnNmb3JtPSJtYXRyaXgoMC4wMTA4NTA2OTQ0NDQ0NDQ0NDQsMCwwLDAuMDEwODUwNjk0NDQ0NDQ0NDQ0LDM0LjQwNzU1MjA4MzMzMzMzNiwwKSIvPjx1c2UgeGxpbms6aHJlZj0iI2FnIiB0cmFuc2Zvcm09Im1hdHJpeCgwLjAxMDg1MDY5NDQ0NDQ0NDQ0NCwwLDAsMC4wMTA4NTA2OTQ0NDQ0NDQ0NDQsNDEuNDYwNTAzNDcyMjIyMjMsMCkiLz48dXNlIHhsaW5rOmhyZWY9IiNhdyIgdHJhbnNmb3JtPSJtYXRyaXgoMC4wMTA4NTA2OTQ0NDQ0NDQ0NDQsMCwwLDAuMDEwODUwNjk0NDQ0NDQ0NDQ0LDU0Ljc4NTE1NjI1MDAwMDAxLDApIi8+PC9nPjxnIGlkPSJxIj48dXNlIHhsaW5rOmhyZWY9IiNhZSIgdHJhbnNmb3JtPSJtYXRyaXgoMC4wMTA4NTA2OTQ0NDQ0NDQ0NDQsMCwwLDAuMDEwODUwNjk0NDQ0NDQ0NDQ0LDAsMCkiLz48dXNlIHhsaW5rOmhyZWY9IiNhZiIgdHJhbnNmb3JtPSJtYXRyaXgoMC4wMTA4NTA2OTQ0NDQ0NDQ0NDQsMCwwLDAuMDEwODUwNjk0NDQ0NDQ0NDQ0LDE0LjI1NzgxMjUsMCkiLz48dXNlIHhsaW5rOmhyZWY9IiNhZyIgdHJhbnNmb3JtPSJtYXRyaXgoMC4wMTA4NTA2OTQ0NDQ0NDQ0NDQsMCwwLDAuMDEwODUwNjk0NDQ0NDQ0NDQ0LDI3LjM5ODAwMzQ3MjIyMjIyLDApIi8+PHVzZSB4bGluazpocmVmPSIjYWgiIHRyYW5zZm9ybT0ibWF0cml4KDAuMDEwODUwNjk0NDQ0NDQ0NDQ0LDAsMCwwLjAxMDg1MDY5NDQ0NDQ0NDQ0NCw0MC4zMjExODA1NTU1NTU1NiwwKSIvPjwvZz48ZyBpZD0iciI+PHVzZSB4bGluazpocmVmPSIjYUgiIHRyYW5zZm9ybT0ibWF0cml4KDAuMDEwODUwNjk0NDQ0NDQ0NDQ0LDAsMCwwLjAxMDg1MDY5NDQ0NDQ0NDQ0NCwwLDApIi8+PHVzZSB4bGluazpocmVmPSIjYWciIHRyYW5zZm9ybT0ibWF0cml4KDAuMDEwODUwNjk0NDQ0NDQ0NDQ0LDAsMCwwLjAxMDg1MDY5NDQ0NDQ0NDQ0NCwxNC41Mzk5MzA1NTU1NTU1NTUsMCkiLz48dXNlIHhsaW5rOmhyZWY9IiNhZyIgdHJhbnNmb3JtPSJtYXRyaXgoMC4wMTA4NTA2OTQ0NDQ0NDQ0NDQsMCwwLDAuMDEwODUwNjk0NDQ0NDQ0NDQ0LDI3Ljg2NDU4MzMzMzMzMzMzMiwwKSIvPjx1c2UgeGxpbms6aHJlZj0iI2FJIiB0cmFuc2Zvcm09Im1hdHJpeCgwLjAxMDg1MDY5NDQ0NDQ0NDQ0NCwwLDAsMC4wMTA4NTA2OTQ0NDQ0NDQ0NDQsNDEuMTg5MjM2MTExMTExMTEsMCkiLz48dXNlIHhsaW5rOmhyZWY9IiNhdiIgdHJhbnNmb3JtPSJtYXRyaXgoMC4wMTA4NTA2OTQ0NDQ0NDQ0NDQsMCwwLDAuMDEwODUwNjk0NDQ0NDQ0NDQ0LDUzLjM4NTQxNjY2NjY2NjY2NCwwKSIvPjx1c2UgeGxpbms6aHJlZj0iI2F3IiB0cmFuc2Zvcm09Im1hdHJpeCgwLjAxMDg1MDY5NDQ0NDQ0NDQ0NCwwLDAsMC4wMTA4NTA2OTQ0NDQ0NDQ0NDQsNTguNzY3MzYxMTExMTExMTEsMCkiLz48dXNlIHhsaW5rOmhyZWY9IiNhdSIgdHJhbnNmb3JtPSJtYXRyaXgoMC4wMTA4NTA2OTQ0NDQ0NDQ0NDQsMCwwLDAuMDEwODUwNjk0NDQ0NDQ0NDQ0LDcxLjg5NjcwMTM4ODg4ODg5LDApIi8+PHVzZSB4bGluazpocmVmPSIjYWsiIHRyYW5zZm9ybT0ibWF0cml4KDAuMDEwODUwNjk0NDQ0NDQ0NDQ0LDAsMCwwLjAxMDg1MDY5NDQ0NDQ0NDQ0NCw4NS41MjUxNzM2MTExMTExMSwwKSIvPjwvZz48ZyBpZD0icyI+PHVzZSB4bGluazpocmVmPSIjYXQiIHRyYW5zZm9ybT0ibWF0cml4KDAuMDEwODUwNjk0NDQ0NDQ0NDQ0LDAsMCwwLjAxMDg1MDY5NDQ0NDQ0NDQ0NCwwLDApIi8+PHVzZSB4bGluazpocmVmPSIjYXYiIHRyYW5zZm9ybT0ibWF0cml4KDAuMDEwODUwNjk0NDQ0NDQ0NDQ0LDAsMCwwLjAxMDg1MDY5NDQ0NDQ0NDQ0NCwxMi41NjUxMDQxNjY2NjY2NjYsMCkiLz48dXNlIHhsaW5rOmhyZWY9IiNhayIgdHJhbnNmb3JtPSJtYXRyaXgoMC4wMTA4NTA2OTQ0NDQ0NDQ0NDQsMCwwLDAuMDEwODUwNjk0NDQ0NDQ0NDQ0LDE3Ljk0NzA0ODYxMTExMTExLDApIi8+PHVzZSB4bGluazpocmVmPSIjYXkiIHRyYW5zZm9ybT0ibWF0cml4KDAuMDEwODUwNjk0NDQ0NDQ0NDQ0LDAsMCwwLjAxMDg1MDY5NDQ0NDQ0NDQ0NCwyOS42NzY2NDkzMDU1NTU1NiwwKSIvPjwvZz48ZyBpZD0idCI+PHVzZSB4bGluazpocmVmPSIjYXAiIHRyYW5zZm9ybT0ibWF0cml4KDAuMDEwODUwNjk0NDQ0NDQ0NDQ0LDAsMCwwLjAxMDg1MDY5NDQ0NDQ0NDQ0NCwwLDApIi8+PHVzZSB4bGluazpocmVmPSIjYW4iIHRyYW5zZm9ybT0ibWF0cml4KDAuMDEwODUwNjk0NDQ0NDQ0NDQ0LDAsMCwwLjAxMDg1MDY5NDQ0NDQ0NDQ0NCwxNS4zMzIwMzEyNSwwKSIvPjx1c2UgeGxpbms6aHJlZj0iI2FuIiB0cmFuc2Zvcm09Im1hdHJpeCgwLjAxMDg1MDY5NDQ0NDQ0NDQ0NCwwLDAsMC4wMTA4NTA2OTQ0NDQ0NDQ0NDQsMjguOTM4ODAyMDgzMzMzMzMyLDApIi8+PC9nPjxnIGlkPSJ1Ij48dXNlIHhsaW5rOmhyZWY9IiNhbCIgdHJhbnNmb3JtPSJtYXRyaXgoMC4wMTA4NTA2OTQ0NDQ0NDQ0NDQsMCwwLDAuMDEwODUwNjk0NDQ0NDQ0NDQ0LDAsMCkiLz48dXNlIHhsaW5rOmhyZWY9IiNhZyIgdHJhbnNmb3JtPSJtYXRyaXgoMC4wMTA4NTA2OTQ0NDQ0NDQ0NDQsMCwwLDAuMDEwODUwNjk0NDQ0NDQ0NDQ0LDEzLjYwNjc3MDgzMzMzMzMzMiwwKSIvPjx1c2UgeGxpbms6aHJlZj0iI2FnIiB0cmFuc2Zvcm09Im1hdHJpeCgwLjAxMDg1MDY5NDQ0NDQ0NDQ0NCwwLDAsMC4wMTA4NTA2OTQ0NDQ0NDQ0NDQsMjYuOTMxNDIzNjExMTExMTA0LDApIi8+PHVzZSB4bGluazpocmVmPSIjYUkiIHRyYW5zZm9ybT0ibWF0cml4KDAuMDEwODUwNjk0NDQ0NDQ0NDQ0LDAsMCwwLjAxMDg1MDY5NDQ0NDQ0NDQ0NCw0MC4yNTYwNzYzODg4ODg4ODYsMCkiLz48dXNlIHhsaW5rOmhyZWY9IiNhdiIgdHJhbnNmb3JtPSJtYXRyaXgoMC4wMTA4NTA2OTQ0NDQ0NDQ0NDQsMCwwLDAuMDEwODUwNjk0NDQ0NDQ0NDQ0LDUyLjQ1MjI1Njk0NDQ0NDQ0LDApIi8+PHVzZSB4bGluazpocmVmPSIjYXciIHRyYW5zZm9ybT0ibWF0cml4KDAuMDEwODUwNjk0NDQ0NDQ0NDQ0LDAsMCwwLjAxMDg1MDY5NDQ0NDQ0NDQ0NCw1Ny44MzQyMDEzODg4ODg4ODYsMCkiLz48dXNlIHhsaW5rOmhyZWY9IiNhdSIgdHJhbnNmb3JtPSJtYXRyaXgoMC4wMTA4NTA2OTQ0NDQ0NDQ0NDQsMCwwLDAuMDEwODUwNjk0NDQ0NDQ0NDQ0LDcwLjk2MzU0MTY2NjY2NjY2LDApIi8+PC9nPjxnIGlkPSJ2Ij48dXNlIHhsaW5rOmhyZWY9IiNheCIgdHJhbnNmb3JtPSJtYXRyaXgoMC4wMTA4NTA2OTQ0NDQ0NDQ0NDQsMCwwLDAuMDEwODUwNjk0NDQ0NDQ0NDQ0LDAsMCkiLz48dXNlIHhsaW5rOmhyZWY9IiNhdyIgdHJhbnNmb3JtPSJtYXRyaXgoMC4wMTA4NTA2OTQ0NDQ0NDQ0NDQsMCwwLDAuMDEwODUwNjk0NDQ0NDQ0NDQ0LDUuOTY3ODgxOTQ0NDQ0NDQ1LDApIi8+PHVzZSB4bGluazpocmVmPSIjYUciIHRyYW5zZm9ybT0ibWF0cml4KDAuMDEwODUwNjk0NDQ0NDQ0NDQ0LDAsMCwwLjAxMDg1MDY5NDQ0NDQ0NDQ0NCwxOS4wOTcyMjIyMjIyMjIyMiwwKSIvPjx1c2UgeGxpbms6aHJlZj0iI2FGIiB0cmFuc2Zvcm09Im1hdHJpeCgwLjAxMDg1MDY5NDQ0NDQ0NDQ0NCwwLDAsMC4wMTA4NTA2OTQ0NDQ0NDQ0NDQsMzIuNzAzOTkzMDU1NTU1NTYsMCkiLz48dXNlIHhsaW5rOmhyZWY9IiNheSIgdHJhbnNmb3JtPSJtYXRyaXgoMC4wMTA4NTA2OTQ0NDQ0NDQ0NDQsMCwwLDAuMDEwODUwNjk0NDQ0NDQ0NDQ0LDQ1Ljg0NDE4NDAyNzc3Nzc4LDApIi8+PC9nPjxwYXRoIGlkPSJhSiIgZD0iTTE4MCAwdi0xNDkwaDkwOHYxNjhIMzcwdjQ4Nmg2Njl2MTY4SDM3MHY1MDBoNzI3VjBIMTgwIi8+PHBhdGggaWQ9ImFLIiBkPSJNNDgxIDBMNTQtMTExOGgxOTdjMTA3IDMxNCAyMzYgNjIwIDMyNSA5NTEgODctMzMxIDIxNy02MzcgMzI0LTk1MWgxOTdMNjcwIDBINDgxIi8+PGcgaWQ9InciPjx1c2UgeGxpbms6aHJlZj0iI2FKIiB0cmFuc2Zvcm09Im1hdHJpeCgwLjAxMDg1MDY5NDQ0NDQ0NDQ0NCwwLDAsMC4wMTA4NTA2OTQ0NDQ0NDQ0NDQsMCwwKSIvPjx1c2UgeGxpbms6aHJlZj0iI2FLIiB0cmFuc2Zvcm09Im1hdHJpeCgwLjAxMDg1MDY5NDQ0NDQ0NDQ0NCwwLDAsMC4wMTA4NTA2OTQ0NDQ0NDQ0NDQsMTMuMzU3MjA0ODYxMTExMTEsMCkiLz48dXNlIHhsaW5rOmhyZWY9IiNhcyIgdHJhbnNmb3JtPSJtYXRyaXgoMC4wMTA4NTA2OTQ0NDQ0NDQ0NDQsMCwwLDAuMDEwODUwNjk0NDQ0NDQ0NDQ0LDI1LjQxMjMyNjM4ODg4ODg5LDApIi8+PHVzZSB4bGluazpocmVmPSIjYXciIHRyYW5zZm9ybT0ibWF0cml4KDAuMDEwODUwNjk0NDQ0NDQ0NDQ0LDAsMCwwLjAxMDg1MDY5NDQ0NDQ0NDQ0NCwzOC4zNjgwNTU1NTU1NTU1NSwwKSIvPjx1c2UgeGxpbms6aHJlZj0iI2F5IiB0cmFuc2Zvcm09Im1hdHJpeCgwLjAxMDg1MDY5NDQ0NDQ0NDQ0NCwwLDAsMC4wMTA4NTA2OTQ0NDQ0NDQ0NDQsNTEuNDk3Mzk1ODMzMzMzMzMsMCkiLz48L2c+PHBhdGggaWQ9ImFMIiBkPSJNMzM4LTE0OTBWMEgxNTh2LTE0OTBoMTgwIi8+PGcgaWQ9IngiPjx1c2UgeGxpbms6aHJlZj0iI2FpIiB0cmFuc2Zvcm09Im1hdHJpeCgwLjAxMDg1MDY5NDQ0NDQ0NDQ0NCwwLDAsMC4wMTA4NTA2OTQ0NDQ0NDQ0NDQsMCwwKSIvPjx1c2UgeGxpbms6aHJlZj0iI2FzIiB0cmFuc2Zvcm09Im1hdHJpeCgwLjAxMDg1MDY5NDQ0NDQ0NDQ0NCwwLDAsMC4wMTA4NTA2OTQ0NDQ0NDQ0NDQsMTYuMDM3MzI2Mzg4ODg4ODksMCkiLz48dXNlIHhsaW5rOmhyZWY9IiNheSIgdHJhbnNmb3JtPSJtYXRyaXgoMC4wMTA4NTA2OTQ0NDQ0NDQ0NDQsMCwwLDAuMDEwODUwNjk0NDQ0NDQ0NDQ0LDI4Ljk5MzA1NTU1NTU1NTU2LDApIi8+PHVzZSB4bGluazpocmVmPSIjYWoiIHRyYW5zZm9ybT0ibWF0cml4KDAuMDEwODUwNjk0NDQ0NDQ0NDQ0LDAsMCwwLjAxMDg1MDY5NDQ0NDQ0NDQ0NCwzNi4zNzE1Mjc3Nzc3Nzc3OCwwKSIvPjx1c2UgeGxpbms6aHJlZj0iI2F2IiB0cmFuc2Zvcm09Im1hdHJpeCgwLjAxMDg1MDY5NDQ0NDQ0NDQ0NCwwLDAsMC4wMTA4NTA2OTQ0NDQ0NDQ0NDQsNDguODQ5ODI2Mzg4ODg4ODg2LDApIi8+PHVzZSB4bGluazpocmVmPSIjYUwiIHRyYW5zZm9ybT0ibWF0cml4KDAuMDEwODUwNjk0NDQ0NDQ0NDQ0LDAsMCwwLjAxMDg1MDY5NDQ0NDQ0NDQ0NCw1NC4yMzE3NzA4MzMzMzMzMywwKSIvPjx1c2UgeGxpbms6aHJlZj0iI2FrIiB0cmFuc2Zvcm09Im1hdHJpeCgwLjAxMDg1MDY5NDQ0NDQ0NDQ0NCwwLDAsMC4wMTA4NTA2OTQ0NDQ0NDQ0NDQsNTkuNjEzNzE1Mjc3Nzc3NzgsMCkiLz48L2c+PGcgaWQ9InkiPjx1c2UgeGxpbms6aHJlZj0iI2FwIiB0cmFuc2Zvcm09Im1hdHJpeCgwLjAxMDg1MDY5NDQ0NDQ0NDQ0NCwwLDAsMC4wMTA4NTA2OTQ0NDQ0NDQ0NDQsMCwwKSIvPjx1c2UgeGxpbms6aHJlZj0iI2FuIiB0cmFuc2Zvcm09Im1hdHJpeCgwLjAxMDg1MDY5NDQ0NDQ0NDQ0NCwwLDAsMC4wMTA4NTA2OTQ0NDQ0NDQ0NDQsMTUuMzMyMDMxMjUsMCkiLz48dXNlIHhsaW5rOmhyZWY9IiNhbiIgdHJhbnNmb3JtPSJtYXRyaXgoMC4wMTA4NTA2OTQ0NDQ0NDQ0NDQsMCwwLDAuMDEwODUwNjk0NDQ0NDQ0NDQ0LDI4LjkzODgwMjA4MzMzMzMzMiwwKSIvPjwvZz48ZyBpZD0ieiI+PHVzZSB4bGluazpocmVmPSIjYXMiIHRyYW5zZm9ybT0ibWF0cml4KDAuMDEwODUwNjk0NDQ0NDQ0NDQ0LDAsMCwwLjAxMDg1MDY5NDQ0NDQ0NDQ0NCwwLDApIi8+PHVzZSB4bGluazpocmVmPSIjYUsiIHRyYW5zZm9ybT0ibWF0cml4KDAuMDEwODUwNjk0NDQ0NDQ0NDQ0LDAsMCwwLjAxMDg1MDY5NDQ0NDQ0NDQ0NCwxMi41MjE3MDEzODg4ODg4OSwwKSIvPjx1c2UgeGxpbms6aHJlZj0iI2FzIiB0cmFuc2Zvcm09Im1hdHJpeCgwLjAxMDg1MDY5NDQ0NDQ0NDQ0NCwwLDAsMC4wMTA4NTA2OTQ0NDQ0NDQ0NDQsMjQuNTc2ODIyOTE2NjY2NjY0LDApIi8+PHVzZSB4bGluazpocmVmPSIjYXciIHRyYW5zZm9ybT0ibWF0cml4KDAuMDEwODUwNjk0NDQ0NDQ0NDQ0LDAsMCwwLjAxMDg1MDY5NDQ0NDQ0NDQ0NCwzNy41MzI1NTIwODMzMzMzMywwKSIvPjx1c2UgeGxpbms6aHJlZj0iI2F5IiB0cmFuc2Zvcm09Im1hdHJpeCgwLjAxMDg1MDY5NDQ0NDQ0NDQ0NCwwLDAsMC4wMTA4NTA2OTQ0NDQ0NDQ0NDQsNTAuNjYxODkyMzYxMTExMTEsMCkiLz48L2c+PGcgaWQ9IkEiPjx1c2UgeGxpbms6aHJlZj0iI2FuIiB0cmFuc2Zvcm09Im1hdHJpeCgwLjAxMDg1MDY5NDQ0NDQ0NDQ0NCwwLDAsMC4wMTA4NTA2OTQ0NDQ0NDQ0NDQsMCwwKSIvPjx1c2UgeGxpbms6aHJlZj0iI2FzIiB0cmFuc2Zvcm09Im1hdHJpeCgwLjAxMDg1MDY5NDQ0NDQ0NDQ0NCwwLDAsMC4wMTA4NTA2OTQ0NDQ0NDQ0NDQsMTMuNjA2NzcwODMzMzMzMzMyLDApIi8+PHVzZSB4bGluazpocmVmPSIjYXkiIHRyYW5zZm9ybT0ibWF0cml4KDAuMDEwODUwNjk0NDQ0NDQ0NDQ0LDAsMCwwLjAxMDg1MDY5NDQ0NDQ0NDQ0NCwyNi41NjI1LDApIi8+PHVzZSB4bGluazpocmVmPSIjYWoiIHRyYW5zZm9ybT0ibWF0cml4KDAuMDEwODUwNjk0NDQ0NDQ0NDQ0LDAsMCwwLjAxMDg1MDY5NDQ0NDQ0NDQ0NCwzMy45NDA5NzIyMjIyMjIyMiwwKSIvPjx1c2UgeGxpbms6aHJlZj0iI2F2IiB0cmFuc2Zvcm09Im1hdHJpeCgwLjAxMDg1MDY5NDQ0NDQ0NDQ0NCwwLDAsMC4wMTA4NTA2OTQ0NDQ0NDQ0NDQsNDYuNDE5MjcwODMzMzMzMzMsMCkiLz48dXNlIHhsaW5rOmhyZWY9IiNhTCIgdHJhbnNmb3JtPSJtYXRyaXgoMC4wMTA4NTA2OTQ0NDQ0NDQ0NDQsMCwwLDAuMDEwODUwNjk0NDQ0NDQ0NDQ0LDUxLjgwMTIxNTI3Nzc3Nzc4LDApIi8+PHVzZSB4bGluazpocmVmPSIjYWsiIHRyYW5zZm9ybT0ibWF0cml4KDAuMDEwODUwNjk0NDQ0NDQ0NDQ0LDAsMCwwLjAxMDg1MDY5NDQ0NDQ0NDQ0NCw1Ny4xODMxNTk3MjIyMjIyMSwwKSIvPjwvZz48ZyBpZD0iQiI+PHVzZSB4bGluazpocmVmPSIjYXkiIHRyYW5zZm9ybT0ibWF0cml4KDAuMDEwODUwNjk0NDQ0NDQ0NDQ0LDAsMCwwLjAxMDg1MDY5NDQ0NDQ0NDQ0NCwwLDApIi8+PHVzZSB4bGluazpocmVmPSIjYWciIHRyYW5zZm9ybT0ibWF0cml4KDAuMDEwODUwNjk0NDQ0NDQ0NDQ0LDAsMCwwLjAxMDg1MDY5NDQ0NDQ0NDQ0NCw3LjA1Mjk1MTM4ODg4ODg4OCwwKSIvPjwvZz48ZyBpZD0iQyI+PHVzZSB4bGluazpocmVmPSIjYW4iIHRyYW5zZm9ybT0ibWF0cml4KDAuMDEwODUwNjk0NDQ0NDQ0NDQ0LDAsMCwwLjAxMDg1MDY5NDQ0NDQ0NDQ0NCwwLDApIi8+PHVzZSB4bGluazpocmVmPSIjYWoiIHRyYW5zZm9ybT0ibWF0cml4KDAuMDEwODUwNjk0NDQ0NDQ0NDQ0LDAsMCwwLjAxMDg1MDY5NDQ0NDQ0NDQ0NCwxMy42MDY3NzA4MzMzMzMzMzIsMCkiLz48dXNlIHhsaW5rOmhyZWY9IiNheSIgdHJhbnNmb3JtPSJtYXRyaXgoMC4wMTA4NTA2OTQ0NDQ0NDQ0NDQsMCwwLDAuMDEwODUwNjk0NDQ0NDQ0NDQ0LDI2LjA4NTA2OTQ0NDQ0NDQ0MywwKSIvPjx1c2UgeGxpbms6aHJlZj0iI2FqIiB0cmFuc2Zvcm09Im1hdHJpeCgwLjAxMDg1MDY5NDQ0NDQ0NDQ0NCwwLDAsMC4wMTA4NTA2OTQ0NDQ0NDQ0NDQsMzMuNDYzNTQxNjY2NjY2NjY0LDApIi8+PHVzZSB4bGluazpocmVmPSIjYWwiIHRyYW5zZm9ybT0ibWF0cml4KDAuMDEwODUwNjk0NDQ0NDQ0NDQ0LDAsMCwwLjAxMDg1MDY5NDQ0NDQ0NDQ0NCw0NS45NDE4NDAyNzc3Nzc3OCwwKSIvPjx1c2UgeGxpbms6aHJlZj0iI2FqIiB0cmFuc2Zvcm09Im1hdHJpeCgwLjAxMDg1MDY5NDQ0NDQ0NDQ0NCwwLDAsMC4wMTA4NTA2OTQ0NDQ0NDQ0NDQsNTkuNzY1NjI0OTk5OTk5OTg2LDApIi8+PHVzZSB4bGluazpocmVmPSIjYWsiIHRyYW5zZm9ybT0ibWF0cml4KDAuMDEwODUwNjk0NDQ0NDQ0NDQ0LDAsMCwwLjAxMDg1MDY5NDQ0NDQ0NDQ0NCw3Mi4yNDM5MjM2MTExMTExLDApIi8+PHVzZSB4bGluazpocmVmPSIjYXMiIHRyYW5zZm9ybT0ibWF0cml4KDAuMDEwODUwNjk0NDQ0NDQ0NDQ0LDAsMCwwLjAxMDg1MDY5NDQ0NDQ0NDQ0NCw4My45NzM1MjQzMDU1NTU1NCwwKSIvPjwvZz48ZyBpZD0iRCI+PHVzZSB4bGluazpocmVmPSIjYW4iIHRyYW5zZm9ybT0ibWF0cml4KDAuMDEwODUwNjk0NDQ0NDQ0NDQ0LDAsMCwwLjAxMDg1MDY5NDQ0NDQ0NDQ0NCwwLDApIi8+PHVzZSB4bGluazpocmVmPSIjYXMiIHRyYW5zZm9ybT0ibWF0cml4KDAuMDEwODUwNjk0NDQ0NDQ0NDQ0LDAsMCwwLjAxMDg1MDY5NDQ0NDQ0NDQ0NCwxMy42MDY3NzA4MzMzMzMzMzIsMCkiLz48dXNlIHhsaW5rOmhyZWY9IiNhTCIgdHJhbnNmb3JtPSJtYXRyaXgoMC4wMTA4NTA2OTQ0NDQ0NDQ0NDQsMCwwLDAuMDEwODUwNjk0NDQ0NDQ0NDQ0LDI2LjU2MjUsMCkiLz48dXNlIHhsaW5rOmhyZWY9IiNhcyIgdHJhbnNmb3JtPSJtYXRyaXgoMC4wMTA4NTA2OTQ0NDQ0NDQ0NDQsMCwwLDAuMDEwODUwNjk0NDQ0NDQ0NDQ0LDMxLjk0NDQ0NDQ0NDQ0NDQ0MywwKSIvPjx1c2UgeGxpbms6aHJlZj0iI2F5IiB0cmFuc2Zvcm09Im1hdHJpeCgwLjAxMDg1MDY5NDQ0NDQ0NDQ0NCwwLDAsMC4wMTA4NTA2OTQ0NDQ0NDQ0NDQsNDQuOTAwMTczNjExMTExMTEsMCkiLz48dXNlIHhsaW5rOmhyZWY9IiNhcyIgdHJhbnNmb3JtPSJtYXRyaXgoMC4wMTA4NTA2OTQ0NDQ0NDQ0NDQsMCwwLDAuMDEwODUwNjk0NDQ0NDQ0NDQ0LDUxLjk1MzEyNSwwKSIvPjwvZz48cGF0aCBpZD0iYU0iIGQ9Ik0xNTggMHYtMTExOGgxNzVsMSAyMDVjNTUtMTUxIDE4MS0yMjUgMzEzLTIyNSAxNDcgMCAyNDUgOTAgMjg1IDIyOCA1My0xNDEgMTkwLTIyOCAzNTItMjI4IDE5NCAwIDM1MiAxMjUgMzUyIDM4NFYwaC0xODF2LTc0OWMwLTE2MS0xMDUtMjI1LTIyNS0yMjUtMTUxIDAtMjQzIDEwMy0yNDMgMjQ0VjBIODA3di03NjdjMC0xMjQtOTMtMjA3LTIxOS0yMDctMTMxIDAtMjUwIDkyLTI1MCAyNzBWMEgxNTgiLz48ZyBpZD0iRSI+PHVzZSB4bGluazpocmVmPSIjYXEiIHRyYW5zZm9ybT0ibWF0cml4KDAuMDEwODUwNjk0NDQ0NDQ0NDQ0LDAsMCwwLjAxMDg1MDY5NDQ0NDQ0NDQ0NCwwLDApIi8+PHVzZSB4bGluazpocmVmPSIjYXMiIHRyYW5zZm9ybT0ibWF0cml4KDAuMDEwODUwNjk0NDQ0NDQ0NDQ0LDAsMCwwLjAxMDg1MDY5NDQ0NDQ0NDQ0NCwxMy45NzU2OTQ0NDQ0NDQ0NDUsMCkiLz48dXNlIHhsaW5rOmhyZWY9IiNhTSIgdHJhbnNmb3JtPSJtYXRyaXgoMC4wMTA4NTA2OTQ0NDQ0NDQ0NDQsMCwwLDAuMDEwODUwNjk0NDQ0NDQ0NDQ0LDI2LjkzMTQyMzYxMTExMTEwNCwwKSIvPjx1c2UgeGxpbms6aHJlZj0iI2FnIiB0cmFuc2Zvcm09Im1hdHJpeCgwLjAxMDg1MDY5NDQ0NDQ0NDQ0NCwwLDAsMC4wMTA4NTA2OTQ0NDQ0NDQ0NDQsNDYuMzk3NTY5NDQ0NDQ0NDQsMCkiLz48dXNlIHhsaW5rOmhyZWY9IiNhSyIgdHJhbnNmb3JtPSJtYXRyaXgoMC4wMTA4NTA2OTQ0NDQ0NDQ0NDQsMCwwLDAuMDEwODUwNjk0NDQ0NDQ0NDQ0LDU5LjI4ODE5NDQ0NDQ0NDQ0LDApIi8+PHVzZSB4bGluazpocmVmPSIjYXMiIHRyYW5zZm9ybT0ibWF0cml4KDAuMDEwODUwNjk0NDQ0NDQ0NDQ0LDAsMCwwLjAxMDg1MDY5NDQ0NDQ0NDQ0NCw3MS4zNDMzMTU5NzIyMjIyMSwwKSIvPjwvZz48ZyBpZD0iRiI+PHVzZSB4bGluazpocmVmPSIjYXMiIHRyYW5zZm9ybT0ibWF0cml4KDAuMDEwODUwNjk0NDQ0NDQ0NDQ0LDAsMCwwLjAxMDg1MDY5NDQ0NDQ0NDQ0NCwwLDApIi8+PHVzZSB4bGluazpocmVmPSIjYUsiIHRyYW5zZm9ybT0ibWF0cml4KDAuMDEwODUwNjk0NDQ0NDQ0NDQ0LDAsMCwwLjAxMDg1MDY5NDQ0NDQ0NDQ0NCwxMi41MjE3MDEzODg4ODg4OSwwKSIvPjx1c2UgeGxpbms6aHJlZj0iI2FzIiB0cmFuc2Zvcm09Im1hdHJpeCgwLjAxMDg1MDY5NDQ0NDQ0NDQ0NCwwLDAsMC4wMTA4NTA2OTQ0NDQ0NDQ0NDQsMjQuNTc2ODIyOTE2NjY2NjY0LDApIi8+PHVzZSB4bGluazpocmVmPSIjYXciIHRyYW5zZm9ybT0ibWF0cml4KDAuMDEwODUwNjk0NDQ0NDQ0NDQ0LDAsMCwwLjAxMDg1MDY5NDQ0NDQ0NDQ0NCwzNy41MzI1NTIwODMzMzMzMywwKSIvPjx1c2UgeGxpbms6aHJlZj0iI2F5IiB0cmFuc2Zvcm09Im1hdHJpeCgwLjAxMDg1MDY5NDQ0NDQ0NDQ0NCwwLDAsMC4wMTA4NTA2OTQ0NDQ0NDQ0NDQsNTAuNjYxODkyMzYxMTExMTEsMCkiLz48L2c+PGcgaWQ9IkciPjx1c2UgeGxpbms6aHJlZj0iI2F2IiB0cmFuc2Zvcm09Im1hdHJpeCgwLjAxMDg1MDY5NDQ0NDQ0NDQ0NCwwLDAsMC4wMTA4NTA2OTQ0NDQ0NDQ0NDQsMCwwKSIvPjx1c2UgeGxpbms6aHJlZj0iI2F3IiB0cmFuc2Zvcm09Im1hdHJpeCgwLjAxMDg1MDY5NDQ0NDQ0NDQ0NCwwLDAsMC4wMTA4NTA2OTQ0NDQ0NDQ0NDQsNS4zODE5NDQ0NDQ0NDQ0NDUsMCkiLz48L2c+PGcgaWQ9IkgiPjx1c2UgeGxpbms6aHJlZj0iI2FuIiB0cmFuc2Zvcm09Im1hdHJpeCgwLjAxMDg1MDY5NDQ0NDQ0NDQ0NCwwLDAsMC4wMTA4NTA2OTQ0NDQ0NDQ0NDQsMCwwKSIvPjx1c2UgeGxpbms6aHJlZj0iI2FqIiB0cmFuc2Zvcm09Im1hdHJpeCgwLjAxMDg1MDY5NDQ0NDQ0NDQ0NCwwLDAsMC4wMTA4NTA2OTQ0NDQ0NDQ0NDQsMTMuNjA2NzcwODMzMzMzMzMyLDApIi8+PHVzZSB4bGluazpocmVmPSIjYXkiIHRyYW5zZm9ybT0ibWF0cml4KDAuMDEwODUwNjk0NDQ0NDQ0NDQ0LDAsMCwwLjAxMDg1MDY5NDQ0NDQ0NDQ0NCwyNi4wODUwNjk0NDQ0NDQ0NDMsMCkiLz48dXNlIHhsaW5rOmhyZWY9IiNhcyIgdHJhbnNmb3JtPSJtYXRyaXgoMC4wMTA4NTA2OTQ0NDQ0NDQ0NDQsMCwwLDAuMDEwODUwNjk0NDQ0NDQ0NDQ0LDMzLjEzODAyMDgzMzMzMzMzLDApIi8+PC9nPjxwYXRoIGlkPSJhTiIgZD0iTTYxMyAyNGMtMzA0IDAtNTA5LTIzMS01MDktNTc2IDAtMzUwIDIwNS01ODAgNTA5LTU4MCAyMTYgMCAzOTIgMTE0IDQ1MyAzMDlsLTE3MyA0OWMtMzMtMTE1LTEzMy0xOTctMjgwLTE5Ny0yMjMgMC0zMjYgMTk2LTMyNiA0MTkgMCAyMjAgMTAzIDQxNSAzMjYgNDE1IDE1MCAwIDI1Mi04NSAyODUtMjA2bDE3MiA0OUMxMDEwLTk1IDgzMiAyNCA2MTMgMjQiLz48ZyBpZD0iSSI+PHVzZSB4bGluazpocmVmPSIjYUYiIHRyYW5zZm9ybT0ibWF0cml4KDAuMDEwODUwNjk0NDQ0NDQ0NDQ0LDAsMCwwLjAxMDg1MDY5NDQ0NDQ0NDQ0NCwwLDApIi8+PHVzZSB4bGluazpocmVmPSIjYXciIHRyYW5zZm9ybT0ibWF0cml4KDAuMDEwODUwNjk0NDQ0NDQ0NDQ0LDAsMCwwLjAxMDg1MDY5NDQ0NDQ0NDQ0NCwxMy4xNDAxOTA5NzIyMjIyMjEsMCkiLz48dXNlIHhsaW5rOmhyZWY9IiNhZyIgdHJhbnNmb3JtPSJtYXRyaXgoMC4wMTA4NTA2OTQ0NDQ0NDQ0NDQsMCwwLDAuMDEwODUwNjk0NDQ0NDQ0NDQ0LDI2LjI2OTUzMTI1LDApIi8+PHVzZSB4bGluazpocmVmPSIjYU4iIHRyYW5zZm9ybT0ibWF0cml4KDAuMDEwODUwNjk0NDQ0NDQ0NDQ0LDAsMCwwLjAxMDg1MDY5NDQ0NDQ0NDQ0NCwzOS41OTQxODQwMjc3Nzc3OCwwKSIvPjx1c2UgeGxpbms6aHJlZj0iI2FOIiB0cmFuc2Zvcm09Im1hdHJpeCgwLjAxMDg1MDY5NDQ0NDQ0NDQ0NCwwLDAsMC4wMTA4NTA2OTQ0NDQ0NDQ0NDQsNTIuMjg5NDk2NTI3Nzc3NzgsMCkiLz48dXNlIHhsaW5rOmhyZWY9IiNhRiIgdHJhbnNmb3JtPSJtYXRyaXgoMC4wMTA4NTA2OTQ0NDQ0NDQ0NDQsMCwwLDAuMDEwODUwNjk0NDQ0NDQ0NDQ0LDY0Ljk4NDgwOTAyNzc3Nzc3LDApIi8+PHVzZSB4bGluazpocmVmPSIjYUciIHRyYW5zZm9ybT0ibWF0cml4KDAuMDEwODUwNjk0NDQ0NDQ0NDQ0LDAsMCwwLjAxMDg1MDY5NDQ0NDQ0NDQ0NCw3OC4xMjUsMCkiLz48dXNlIHhsaW5rOmhyZWY9IiNhdiIgdHJhbnNmb3JtPSJtYXRyaXgoMC4wMTA4NTA2OTQ0NDQ0NDQ0NDQsMCwwLDAuMDEwODUwNjk0NDQ0NDQ0NDQ0LDkxLjczMTc3MDgzMzMzMzMzLDApIi8+PHVzZSB4bGluazpocmVmPSIjYXMiIHRyYW5zZm9ybT0ibWF0cml4KDAuMDEwODUwNjk0NDQ0NDQ0NDQ0LDAsMCwwLjAxMDg1MDY5NDQ0NDQ0NDQ0NCw5Ny4xMTM3MTUyNzc3Nzc3NywwKSIvPjx1c2UgeGxpbms6aHJlZj0iI2FuIiB0cmFuc2Zvcm09Im1hdHJpeCgwLjAxMDg1MDY5NDQ0NDQ0NDQ0NCwwLDAsMC4wMTA4NTA2OTQ0NDQ0NDQ0NDQsMTEwLjA2OTQ0NDQ0NDQ0NDQ0LDApIi8+PHVzZSB4bGluazpocmVmPSIjYXoiIHRyYW5zZm9ybT0ibWF0cml4KDAuMDEwODUwNjk0NDQ0NDQ0NDQ0LDAsMCwwLjAxMDg1MDY5NDQ0NDQ0NDQ0NCwxMjMuNjc2MjE1Mjc3Nzc3NzcsMCkiLz48L2c+PHBhdGggaWQ9ImFPIiBkPSJNMTQwIDQwNWw0Ni0xNTZjMTIwIDM2IDIwNSAxOSAyNjMtMTUwbDMyLTkzTDU0LTExMThoMTk3YzEwNyAzMTMgMjM3IDYyMCAzMjQgOTUwIDg3LTMzMSAyMTktNjM3IDMyNi05NTBoMTk2TDYwNiAxNjdjLTY4IDE3OC0xNzYgMjU5LTMzNCAyNTktNjQgMC0xMTMtMTItMTMyLTIxIi8+PGcgaWQ9IkoiPjx1c2UgeGxpbms6aHJlZj0iI2FzIiB0cmFuc2Zvcm09Im1hdHJpeCgwLjAxMDg1MDY5NDQ0NDQ0NDQ0NCwwLDAsMC4wMTA4NTA2OTQ0NDQ0NDQ0NDQsMCwwKSIvPjx1c2UgeGxpbms6aHJlZj0iI2FNIiB0cmFuc2Zvcm09Im1hdHJpeCgwLjAxMDg1MDY5NDQ0NDQ0NDQ0NCwwLDAsMC4wMTA4NTA2OTQ0NDQ0NDQ0NDQsMTIuOTU1NzI5MTY2NjY2NjY2LDApIi8+PHVzZSB4bGluazpocmVmPSIjYUciIHRyYW5zZm9ybT0ibWF0cml4KDAuMDEwODUwNjk0NDQ0NDQ0NDQ0LDAsMCwwLjAxMDg1MDY5NDQ0NDQ0NDQ0NCwzMi40MjE4NzUsMCkiLz48dXNlIHhsaW5rOmhyZWY9IiNhTCIgdHJhbnNmb3JtPSJtYXRyaXgoMC4wMTA4NTA2OTQ0NDQ0NDQ0NDQsMCwwLDAuMDEwODUwNjk0NDQ0NDQ0NDQ0LDQ2LjAyODY0NTgzMzMzMzMzLDApIi8+PHVzZSB4bGluazpocmVmPSIjYWciIHRyYW5zZm9ybT0ibWF0cml4KDAuMDEwODUwNjk0NDQ0NDQ0NDQ0LDAsMCwwLjAxMDg1MDY5NDQ0NDQ0NDQ0NCw1MS40MTA1OTAyNzc3Nzc3OCwwKSIvPjx1c2UgeGxpbms6aHJlZj0iI2FPIiB0cmFuc2Zvcm09Im1hdHJpeCgwLjAxMDg1MDY5NDQ0NDQ0NDQ0NCwwLDAsMC4wMTA4NTA2OTQ0NDQ0NDQ0NDQsNjQuMzAxMjE1Mjc3Nzc3NzcsMCkiLz48dXNlIHhsaW5rOmhyZWY9IiNhcyIgdHJhbnNmb3JtPSJtYXRyaXgoMC4wMTA4NTA2OTQ0NDQ0NDQ0NDQsMCwwLDAuMDEwODUwNjk0NDQ0NDQ0NDQ0LDc2LjM1NjMzNjgwNTU1NTU0LDApIi8+PHVzZSB4bGluazpocmVmPSIjYXMiIHRyYW5zZm9ybT0ibWF0cml4KDAuMDEwODUwNjk0NDQ0NDQ0NDQ0LDAsMCwwLjAxMDg1MDY5NDQ0NDQ0NDQ0NCw4OS4zMTIwNjU5NzIyMjIyMSwwKSIvPjwvZz48ZyBpZD0iSyI+PHVzZSB4bGluazpocmVmPSIjYWoiIHRyYW5zZm9ybT0ibWF0cml4KDAuMDEwODUwNjk0NDQ0NDQ0NDQ0LDAsMCwwLjAxMDg1MDY5NDQ0NDQ0NDQ0NCwwLDApIi8+PHVzZSB4bGluazpocmVmPSIjYUsiIHRyYW5zZm9ybT0ibWF0cml4KDAuMDEwODUwNjk0NDQ0NDQ0NDQ0LDAsMCwwLjAxMDg1MDY5NDQ0NDQ0NDQ0NCwxMi4xNTI3Nzc3Nzc3Nzc3NzcsMCkiLz48dXNlIHhsaW5rOmhyZWY9IiNhaiIgdHJhbnNmb3JtPSJtYXRyaXgoMC4wMTA4NTA2OTQ0NDQ0NDQ0NDQsMCwwLDAuMDEwODUwNjk0NDQ0NDQ0NDQ0LDI0LjUzMzQyMDEzODg4ODg5LDApIi8+PHVzZSB4bGluazpocmVmPSIjYXYiIHRyYW5zZm9ybT0ibWF0cml4KDAuMDEwODUwNjk0NDQ0NDQ0NDQ0LDAsMCwwLjAxMDg1MDY5NDQ0NDQ0NDQ0NCwzNy4wMTE3MTg3NSwwKSIvPjx1c2UgeGxpbms6aHJlZj0iI2FMIiB0cmFuc2Zvcm09Im1hdHJpeCgwLjAxMDg1MDY5NDQ0NDQ0NDQ0NCwwLDAsMC4wMTA4NTA2OTQ0NDQ0NDQ0NDQsNDIuMzkzNjYzMTk0NDQ0NDQsMCkiLz48dXNlIHhsaW5rOmhyZWY9IiNhaiIgdHJhbnNmb3JtPSJtYXRyaXgoMC4wMTA4NTA2OTQ0NDQ0NDQ0NDQsMCwwLDAuMDEwODUwNjk0NDQ0NDQ0NDQ0LDQ3Ljc3NTYwNzYzODg4ODg4NiwwKSIvPjx1c2UgeGxpbms6aHJlZj0iI2FsIiB0cmFuc2Zvcm09Im1hdHJpeCgwLjAxMDg1MDY5NDQ0NDQ0NDQ0NCwwLDAsMC4wMTA4NTA2OTQ0NDQ0NDQ0NDQsNjAuMjUzOTA2MjUsMCkiLz48dXNlIHhsaW5rOmhyZWY9IiNhTCIgdHJhbnNmb3JtPSJtYXRyaXgoMC4wMTA4NTA2OTQ0NDQ0NDQ0NDQsMCwwLDAuMDEwODUwNjk0NDQ0NDQ0NDQ0LDczLjg2MDY3NzA4MzMzMzMzLDApIi8+PHVzZSB4bGluazpocmVmPSIjYXMiIHRyYW5zZm9ybT0ibWF0cml4KDAuMDEwODUwNjk0NDQ0NDQ0NDQ0LDAsMCwwLjAxMDg1MDY5NDQ0NDQ0NDQ0NCw3OS4yNDI2MjE1Mjc3Nzc3NywwKSIvPjx1c2UgeGxpbms6aHJlZj0iI2F6IiB0cmFuc2Zvcm09Im1hdHJpeCgwLjAxMDg1MDY5NDQ0NDQ0NDQ0NCwwLDAsMC4wMTA4NTA2OTQ0NDQ0NDQ0NDQsOTIuMTk4MzUwNjk0NDQ0NDQsMCkiLz48L2c+PGcgaWQ9IkwiPjx1c2UgeGxpbms6aHJlZj0iI2FzIiB0cmFuc2Zvcm09Im1hdHJpeCgwLjAxMDg1MDY5NDQ0NDQ0NDQ0NCwwLDAsMC4wMTA4NTA2OTQ0NDQ0NDQ0NDQsMCwwKSIvPjx1c2UgeGxpbms6aHJlZj0iI2FuIiB0cmFuc2Zvcm09Im1hdHJpeCgwLjAxMDg1MDY5NDQ0NDQ0NDQ0NCwwLDAsMC4wMTA4NTA2OTQ0NDQ0NDQ0NDQsMTIuOTU1NzI5MTY2NjY2NjY2LDApIi8+PHVzZSB4bGluazpocmVmPSIjYXYiIHRyYW5zZm9ybT0ibWF0cml4KDAuMDEwODUwNjk0NDQ0NDQ0NDQ0LDAsMCwwLjAxMDg1MDY5NDQ0NDQ0NDQ0NCwyNi41NjI1LDApIi8+PHVzZSB4bGluazpocmVmPSIjYXkiIHRyYW5zZm9ybT0ibWF0cml4KDAuMDEwODUwNjk0NDQ0NDQ0NDQ0LDAsMCwwLjAxMDg1MDY5NDQ0NDQ0NDQ0NCwzMS45NDQ0NDQ0NDQ0NDQ0NDMsMCkiLz48L2c+PGcgaWQ9Ik0iPjx1c2UgeGxpbms6aHJlZj0iI2FsIiB0cmFuc2Zvcm09Im1hdHJpeCgwLjAxMDg1MDY5NDQ0NDQ0NDQ0NCwwLDAsMC4wMTA4NTA2OTQ0NDQ0NDQ0NDQsMCwwKSIvPjx1c2UgeGxpbms6aHJlZj0iI2FnIiB0cmFuc2Zvcm09Im1hdHJpeCgwLjAxMDg1MDY5NDQ0NDQ0NDQ0NCwwLDAsMC4wMTA4NTA2OTQ0NDQ0NDQ0NDQsMTMuNjA2NzcwODMzMzMzMzMyLDApIi8+PHVzZSB4bGluazpocmVmPSIjYWciIHRyYW5zZm9ybT0ibWF0cml4KDAuMDEwODUwNjk0NDQ0NDQ0NDQ0LDAsMCwwLjAxMDg1MDY5NDQ0NDQ0NDQ0NCwyNi45MzE0MjM2MTExMTExMDQsMCkiLz48dXNlIHhsaW5rOmhyZWY9IiNhSSIgdHJhbnNmb3JtPSJtYXRyaXgoMC4wMTA4NTA2OTQ0NDQ0NDQ0NDQsMCwwLDAuMDEwODUwNjk0NDQ0NDQ0NDQ0LDQwLjI1NjA3NjM4ODg4ODg4NiwwKSIvPjx1c2UgeGxpbms6aHJlZj0iI2F2IiB0cmFuc2Zvcm09Im1hdHJpeCgwLjAxMDg1MDY5NDQ0NDQ0NDQ0NCwwLDAsMC4wMTA4NTA2OTQ0NDQ0NDQ0NDQsNTIuNDUyMjU2OTQ0NDQ0NDQsMCkiLz48dXNlIHhsaW5rOmhyZWY9IiNhdyIgdHJhbnNmb3JtPSJtYXRyaXgoMC4wMTA4NTA2OTQ0NDQ0NDQ0NDQsMCwwLDAuMDEwODUwNjk0NDQ0NDQ0NDQ0LDU3LjgzNDIwMTM4ODg4ODg4NiwwKSIvPjx1c2UgeGxpbms6aHJlZj0iI2F1IiB0cmFuc2Zvcm09Im1hdHJpeCgwLjAxMDg1MDY5NDQ0NDQ0NDQ0NCwwLDAsMC4wMTA4NTA2OTQ0NDQ0NDQ0NDQsNzAuOTYzNTQxNjY2NjY2NjYsMCkiLz48L2c+PGcgaWQ9Ik4iPjx1c2UgeGxpbms6aHJlZj0iI2FsIiB0cmFuc2Zvcm09Im1hdHJpeCgwLjAxMDg1MDY5NDQ0NDQ0NDQ0NCwwLDAsMC4wMTA4NTA2OTQ0NDQ0NDQ0NDQsMCwwKSIvPjx1c2UgeGxpbms6aHJlZj0iI2FGIiB0cmFuc2Zvcm09Im1hdHJpeCgwLjAxMDg1MDY5NDQ0NDQ0NDQ0NCwwLDAsMC4wMTA4NTA2OTQ0NDQ0NDQ0NDQsMTMuNjA2NzcwODMzMzMzMzMyLDApIi8+PHVzZSB4bGluazpocmVmPSIjYXkiIHRyYW5zZm9ybT0ibWF0cml4KDAuMDEwODUwNjk0NDQ0NDQ0NDQ0LDAsMCwwLjAxMDg1MDY5NDQ0NDQ0NDQ0NCwyNi43NDY5NjE4MDU1NTU1NTQsMCkiLz48dXNlIHhsaW5rOmhyZWY9IiNheSIgdHJhbnNmb3JtPSJtYXRyaXgoMC4wMTA4NTA2OTQ0NDQ0NDQ0NDQsMCwwLDAuMDEwODUwNjk0NDQ0NDQ0NDQ0LDMzLjQ3NDM5MjM2MTExMTExLDApIi8+PHVzZSB4bGluazpocmVmPSIjYWciIHRyYW5zZm9ybT0ibWF0cml4KDAuMDEwODUwNjk0NDQ0NDQ0NDQ0LDAsMCwwLjAxMDg1MDY5NDQ0NDQ0NDQ0NCw0MC41MjczNDM3NSwwKSIvPjx1c2UgeGxpbms6aHJlZj0iI2F3IiB0cmFuc2Zvcm09Im1hdHJpeCgwLjAxMDg1MDY5NDQ0NDQ0NDQ0NCwwLDAsMC4wMTA4NTA2OTQ0NDQ0NDQ0NDQsNTMuODUxOTk2NTI3Nzc3NzgsMCkiLz48L2c+PGcgaWQ9Ik8iPjx1c2UgeGxpbms6aHJlZj0iI2FwIiB0cmFuc2Zvcm09Im1hdHJpeCgwLjAxMDg1MDY5NDQ0NDQ0NDQ0NCwwLDAsMC4wMTA4NTA2OTQ0NDQ0NDQ0NDQsMCwwKSIvPjx1c2UgeGxpbms6aHJlZj0iI2FtIiB0cmFuc2Zvcm09Im1hdHJpeCgwLjAxMDg1MDY5NDQ0NDQ0NDQ0NCwwLDAsMC4wMTA4NTA2OTQ0NDQ0NDQ0NDQsMTUuMzMyMDMxMjUsMCkiLz48dXNlIHhsaW5rOmhyZWY9IiNhcyIgdHJhbnNmb3JtPSJtYXRyaXgoMC4wMTA4NTA2OTQ0NDQ0NDQ0NDQsMCwwLDAuMDEwODUwNjk0NDQ0NDQ0NDQ0LDIzLjMyODk5MzA1NTU1NTU1NCwwKSIvPjwvZz48cGF0aCBpZD0iYVAiIGQ9Ik0xMDk2IDQxOEg5MTZ2LTU5MWgtMTRDODY1LTExMSA3OTAgMjQgNTc3IDI0Yy0yNzkgMC00NzMtMjI0LTQ3My01ODAgMC0zNTQgMTk1LTU3NiA0NzQtNTc2IDIxOCAwIDI4NyAxMzQgMzI0IDE5M2gyMHYtMTc5aDE3NFY0MTh6TTYwNC0xMzdjMjAzIDAgMzE0LTE3MiAzMTQtNDIxIDAtMjQ3LTEwOC00MTMtMzE0LTQxMy0yMTIgMC0zMTcgMTgxLTMxNyA0MTMgMCAyMzUgMTA4IDQyMSAzMTcgNDIxIi8+PGcgaWQ9IlAiPjx1c2UgeGxpbms6aHJlZj0iI2FtIiB0cmFuc2Zvcm09Im1hdHJpeCgwLjAxMDg1MDY5NDQ0NDQ0NDQ0NCwwLDAsMC4wMTA4NTA2OTQ0NDQ0NDQ0NDQsMCwwKSIvPjx1c2UgeGxpbms6aHJlZj0iI2FzIiB0cmFuc2Zvcm09Im1hdHJpeCgwLjAxMDg1MDY5NDQ0NDQ0NDQ0NCwwLDAsMC4wMTA4NTA2OTQ0NDQ0NDQ0NDQsNy45OTY5NjE4MDU1NTU1NTUsMCkiLz48dXNlIHhsaW5rOmhyZWY9IiNhUCIgdHJhbnNmb3JtPSJtYXRyaXgoMC4wMTA4NTA2OTQ0NDQ0NDQ0NDQsMCwwLDAuMDEwODUwNjk0NDQ0NDQ0NDQ0LDIwLjk1MjY5MDk3MjIyMjIyLDApIi8+PHVzZSB4bGluazpocmVmPSIjYUYiIHRyYW5zZm9ybT0ibWF0cml4KDAuMDEwODUwNjk0NDQ0NDQ0NDQ0LDAsMCwwLjAxMDg1MDY5NDQ0NDQ0NDQ0NCwzNC41NTk0NjE4MDU1NTU1NiwwKSIvPjx1c2UgeGxpbms6aHJlZj0iI2F2IiB0cmFuc2Zvcm09Im1hdHJpeCgwLjAxMDg1MDY5NDQ0NDQ0NDQ0NCwwLDAsMC4wMTA4NTA2OTQ0NDQ0NDQ0NDQsNDcuNjk5NjUyNzc3Nzc3NzgsMCkiLz48dXNlIHhsaW5rOmhyZWY9IiNhbSIgdHJhbnNmb3JtPSJtYXRyaXgoMC4wMTA4NTA2OTQ0NDQ0NDQ0NDQsMCwwLDAuMDEwODUwNjk0NDQ0NDQ0NDQ0LDUzLjA4MTU5NzIyMjIyMjIyLDApIi8+PHVzZSB4bGluazpocmVmPSIjYXMiIHRyYW5zZm9ybT0ibWF0cml4KDAuMDEwODUwNjk0NDQ0NDQ0NDQ0LDAsMCwwLjAxMDg1MDY5NDQ0NDQ0NDQ0NCw2MS4wNzg1NTkwMjc3Nzc3OCwwKSIvPjx1c2UgeGxpbms6aHJlZj0iI2FuIiB0cmFuc2Zvcm09Im1hdHJpeCgwLjAxMDg1MDY5NDQ0NDQ0NDQ0NCwwLDAsMC4wMTA4NTA2OTQ0NDQ0NDQ0NDQsNzQuMDM0Mjg4MTk0NDQ0NDQsMCkiLz48L2c+PGcgaWQ9IlEiPjx1c2UgeGxpbms6aHJlZj0iI2FuIiB0cmFuc2Zvcm09Im1hdHJpeCgwLjAxMDg1MDY5NDQ0NDQ0NDQ0NCwwLDAsMC4wMTA4NTA2OTQ0NDQ0NDQ0NDQsMCwwKSIvPjx1c2UgeGxpbms6aHJlZj0iI2FzIiB0cmFuc2Zvcm09Im1hdHJpeCgwLjAxMDg1MDY5NDQ0NDQ0NDQ0NCwwLDAsMC4wMTA4NTA2OTQ0NDQ0NDQ0NDQsMTMuNjA2NzcwODMzMzMzMzMyLDApIi8+PHVzZSB4bGluazpocmVmPSIjYXkiIHRyYW5zZm9ybT0ibWF0cml4KDAuMDEwODUwNjk0NDQ0NDQ0NDQ0LDAsMCwwLjAxMDg1MDY5NDQ0NDQ0NDQ0NCwyNi41NjI1LDApIi8+PHVzZSB4bGluazpocmVmPSIjYWoiIHRyYW5zZm9ybT0ibWF0cml4KDAuMDEwODUwNjk0NDQ0NDQ0NDQ0LDAsMCwwLjAxMDg1MDY5NDQ0NDQ0NDQ0NCwzMy45NDA5NzIyMjIyMjIyMiwwKSIvPjx1c2UgeGxpbms6aHJlZj0iI2F2IiB0cmFuc2Zvcm09Im1hdHJpeCgwLjAxMDg1MDY5NDQ0NDQ0NDQ0NCwwLDAsMC4wMTA4NTA2OTQ0NDQ0NDQ0NDQsNDYuNDE5MjcwODMzMzMzMzMsMCkiLz48dXNlIHhsaW5rOmhyZWY9IiNhTCIgdHJhbnNmb3JtPSJtYXRyaXgoMC4wMTA4NTA2OTQ0NDQ0NDQ0NDQsMCwwLDAuMDEwODUwNjk0NDQ0NDQ0NDQ0LDUxLjgwMTIxNTI3Nzc3Nzc4LDApIi8+PHVzZSB4bGluazpocmVmPSIjYWsiIHRyYW5zZm9ybT0ibWF0cml4KDAuMDEwODUwNjk0NDQ0NDQ0NDQ0LDAsMCwwLjAxMDg1MDY5NDQ0NDQ0NDQ0NCw1Ny4xODMxNTk3MjIyMjIyMSwwKSIvPjwvZz48ZyBpZD0iUiI+PHVzZSB4bGluazpocmVmPSIjYU4iIHRyYW5zZm9ybT0ibWF0cml4KDAuMDEwODUwNjk0NDQ0NDQ0NDQ0LDAsMCwwLjAxMDg1MDY5NDQ0NDQ0NDQ0NCwwLDApIi8+PHVzZSB4bGluazpocmVmPSIjYWciIHRyYW5zZm9ybT0ibWF0cml4KDAuMDEwODUwNjk0NDQ0NDQ0NDQ0LDAsMCwwLjAxMDg1MDY5NDQ0NDQ0NDQ0NCwxMi42OTUzMTI1LDApIi8+PHVzZSB4bGluazpocmVmPSIjYU0iIHRyYW5zZm9ybT0ibWF0cml4KDAuMDEwODUwNjk0NDQ0NDQ0NDQ0LDAsMCwwLjAxMDg1MDY5NDQ0NDQ0NDQ0NCwyNi4wMTk5NjUyNzc3Nzc3OCwwKSIvPjx1c2UgeGxpbms6aHJlZj0iI2FHIiB0cmFuc2Zvcm09Im1hdHJpeCgwLjAxMDg1MDY5NDQ0NDQ0NDQ0NCwwLDAsMC4wMTA4NTA2OTQ0NDQ0NDQ0NDQsNDUuNDg2MTExMTExMTExMTEsMCkiLz48dXNlIHhsaW5rOmhyZWY9IiNhTCIgdHJhbnNmb3JtPSJtYXRyaXgoMC4wMTA4NTA2OTQ0NDQ0NDQ0NDQsMCwwLDAuMDEwODUwNjk0NDQ0NDQ0NDQ0LDU5LjA5Mjg4MTk0NDQ0NDQ0LDApIi8+PHVzZSB4bGluazpocmVmPSIjYXMiIHRyYW5zZm9ybT0ibWF0cml4KDAuMDEwODUwNjk0NDQ0NDQ0NDQ0LDAsMCwwLjAxMDg1MDY5NDQ0NDQ0NDQ0NCw2NC40NzQ4MjYzODg4ODg4OSwwKSIvPjx1c2UgeGxpbms6aHJlZj0iI2F5IiB0cmFuc2Zvcm09Im1hdHJpeCgwLjAxMDg1MDY5NDQ0NDQ0NDQ0NCwwLDAsMC4wMTA4NTA2OTQ0NDQ0NDQ0NDQsNzcuNDMwNTU1NTU1NTU1NTYsMCkiLz48dXNlIHhsaW5rOmhyZWY9IiNhcyIgdHJhbnNmb3JtPSJtYXRyaXgoMC4wMTA4NTA2OTQ0NDQ0NDQ0NDQsMCwwLDAuMDEwODUwNjk0NDQ0NDQ0NDQ0LDg0LjQ4MzUwNjk0NDQ0NDQ0LDApIi8+PHVzZSB4bGluazpocmVmPSIjYXoiIHRyYW5zZm9ybT0ibWF0cml4KDAuMDEwODUwNjk0NDQ0NDQ0NDQ0LDAsMCwwLjAxMDg1MDY5NDQ0NDQ0NDQ0NCw5Ny40MzkyMzYxMTExMTExMSwwKSIvPjwvZz48ZyBpZD0iUyI+PHVzZSB4bGluazpocmVmPSIjYUoiIHRyYW5zZm9ybT0ibWF0cml4KDAuMDEwODUwNjk0NDQ0NDQ0NDQ0LDAsMCwwLjAxMDg1MDY5NDQ0NDQ0NDQ0NCwwLDApIi8+PHVzZSB4bGluazpocmVmPSIjYU0iIHRyYW5zZm9ybT0ibWF0cml4KDAuMDEwODUwNjk0NDQ0NDQ0NDQ0LDAsMCwwLjAxMDg1MDY5NDQ0NDQ0NDQ0NCwxMy4zNTcyMDQ4NjExMTExMSwwKSIvPjx1c2UgeGxpbms6aHJlZj0iI2FHIiB0cmFuc2Zvcm09Im1hdHJpeCgwLjAxMDg1MDY5NDQ0NDQ0NDQ0NCwwLDAsMC4wMTA4NTA2OTQ0NDQ0NDQ0NDQsMzIuODIzMzUwNjk0NDQ0NDQsMCkiLz48dXNlIHhsaW5rOmhyZWY9IiNhTCIgdHJhbnNmb3JtPSJtYXRyaXgoMC4wMTA4NTA2OTQ0NDQ0NDQ0NDQsMCwwLDAuMDEwODUwNjk0NDQ0NDQ0NDQ0LDQ2LjQzMDEyMTUyNzc3Nzc4LDApIi8+PHVzZSB4bGluazpocmVmPSIjYWciIHRyYW5zZm9ybT0ibWF0cml4KDAuMDEwODUwNjk0NDQ0NDQ0NDQ0LDAsMCwwLjAxMDg1MDY5NDQ0NDQ0NDQ0NCw1MS44MTIwNjU5NzIyMjIyMSwwKSIvPjx1c2UgeGxpbms6aHJlZj0iI2FPIiB0cmFuc2Zvcm09Im1hdHJpeCgwLjAxMDg1MDY5NDQ0NDQ0NDQ0NCwwLDAsMC4wMTA4NTA2OTQ0NDQ0NDQ0NDQsNjQuNzAyNjkwOTcyMjIyMjEsMCkiLz48dXNlIHhsaW5rOmhyZWY9IiNhcyIgdHJhbnNmb3JtPSJtYXRyaXgoMC4wMTA4NTA2OTQ0NDQ0NDQ0NDQsMCwwLDAuMDEwODUwNjk0NDQ0NDQ0NDQ0LDc2Ljc1NzgxMjUsMCkiLz48dXNlIHhsaW5rOmhyZWY9IiNhcyIgdHJhbnNmb3JtPSJtYXRyaXgoMC4wMTA4NTA2OTQ0NDQ0NDQ0NDQsMCwwLDAuMDEwODUwNjk0NDQ0NDQ0NDQ0LDg5LjcxMzU0MTY2NjY2NjY2LDApIi8+PHVzZSB4bGluazpocmVmPSIjYWsiIHRyYW5zZm9ybT0ibWF0cml4KDAuMDEwODUwNjk0NDQ0NDQ0NDQ0LDAsMCwwLjAxMDg1MDY5NDQ0NDQ0NDQ0NCwxMDIuNjY5MjcwODMzMzMzMzQsMCkiLz48L2c+PGcgaWQ9IlQiPjx1c2UgeGxpbms6aHJlZj0iI2FIIiB0cmFuc2Zvcm09Im1hdHJpeCgwLjAxMDg1MDY5NDQ0NDQ0NDQ0NCwwLDAsMC4wMTA4NTA2OTQ0NDQ0NDQ0NDQsMCwwKSIvPjx1c2UgeGxpbms6aHJlZj0iI2FGIiB0cmFuc2Zvcm09Im1hdHJpeCgwLjAxMDg1MDY5NDQ0NDQ0NDQ0NCwwLDAsMC4wMTA4NTA2OTQ0NDQ0NDQ0NDQsMTQuNTM5OTMwNTU1NTU1NTU1LDApIi8+PHVzZSB4bGluazpocmVmPSIjYXkiIHRyYW5zZm9ybT0ibWF0cml4KDAuMDEwODUwNjk0NDQ0NDQ0NDQ0LDAsMCwwLjAxMDg1MDY5NDQ0NDQ0NDQ0NCwyNy42ODAxMjE1Mjc3Nzc3OCwwKSIvPjx1c2UgeGxpbms6aHJlZj0iI2F5IiB0cmFuc2Zvcm09Im1hdHJpeCgwLjAxMDg1MDY5NDQ0NDQ0NDQ0NCwwLDAsMC4wMTA4NTA2OTQ0NDQ0NDQ0NDQsMzQuNDA3NTUyMDgzMzMzMzM2LDApIi8+PHVzZSB4bGluazpocmVmPSIjYWciIHRyYW5zZm9ybT0ibWF0cml4KDAuMDEwODUwNjk0NDQ0NDQ0NDQ0LDAsMCwwLjAxMDg1MDY5NDQ0NDQ0NDQ0NCw0MS40NjA1MDM0NzIyMjIyMywwKSIvPjx1c2UgeGxpbms6aHJlZj0iI2F3IiB0cmFuc2Zvcm09Im1hdHJpeCgwLjAxMDg1MDY5NDQ0NDQ0NDQ0NCwwLDAsMC4wMTA4NTA2OTQ0NDQ0NDQ0NDQsNTQuNzg1MTU2MjUwMDAwMDEsMCkiLz48L2c+PGcgaWQ9IlUiPjx1c2UgeGxpbms6aHJlZj0iI2FqIiB0cmFuc2Zvcm09Im1hdHJpeCgwLjAxMDg1MDY5NDQ0NDQ0NDQ0NCwwLDAsMC4wMTA4NTA2OTQ0NDQ0NDQ0NDQsMCwwKSIvPjx1c2UgeGxpbms6aHJlZj0iI2FuIiB0cmFuc2Zvcm09Im1hdHJpeCgwLjAxMDg1MDY5NDQ0NDQ0NDQ0NCwwLDAsMC4wMTA4NTA2OTQ0NDQ0NDQ0NDQsMTIuNDc4Mjk4NjExMTExMTEsMCkiLz48dXNlIHhsaW5rOmhyZWY9IiNhbiIgdHJhbnNmb3JtPSJtYXRyaXgoMC4wMTA4NTA2OTQ0NDQ0NDQ0NDQsMCwwLDAuMDEwODUwNjk0NDQ0NDQ0NDQ0LDI2LjA4NTA2OTQ0NDQ0NDQ0MywwKSIvPjwvZz48ZyBpZD0iViI+PHVzZSB4bGluazpocmVmPSIjYUoiIHRyYW5zZm9ybT0ibWF0cml4KDAuMDEwODUwNjk0NDQ0NDQ0NDQ0LDAsMCwwLjAxMDg1MDY5NDQ0NDQ0NDQ0NCwwLDApIi8+PHVzZSB4bGluazpocmVmPSIjYU0iIHRyYW5zZm9ybT0ibWF0cml4KDAuMDEwODUwNjk0NDQ0NDQ0NDQ0LDAsMCwwLjAxMDg1MDY5NDQ0NDQ0NDQ0NCwxMy4zNTcyMDQ4NjExMTExMSwwKSIvPjx1c2UgeGxpbms6aHJlZj0iI2FHIiB0cmFuc2Zvcm09Im1hdHJpeCgwLjAxMDg1MDY5NDQ0NDQ0NDQ0NCwwLDAsMC4wMTA4NTA2OTQ0NDQ0NDQ0NDQsMzIuODIzMzUwNjk0NDQ0NDQsMCkiLz48dXNlIHhsaW5rOmhyZWY9IiNhTCIgdHJhbnNmb3JtPSJtYXRyaXgoMC4wMTA4NTA2OTQ0NDQ0NDQ0NDQsMCwwLDAuMDEwODUwNjk0NDQ0NDQ0NDQ0LDQ2LjQzMDEyMTUyNzc3Nzc4LDApIi8+PHVzZSB4bGluazpocmVmPSIjYWciIHRyYW5zZm9ybT0ibWF0cml4KDAuMDEwODUwNjk0NDQ0NDQ0NDQ0LDAsMCwwLjAxMDg1MDY5NDQ0NDQ0NDQ0NCw1MS44MTIwNjU5NzIyMjIyMSwwKSIvPjx1c2UgeGxpbms6aHJlZj0iI2FPIiB0cmFuc2Zvcm09Im1hdHJpeCgwLjAxMDg1MDY5NDQ0NDQ0NDQ0NCwwLDAsMC4wMTA4NTA2OTQ0NDQ0NDQ0NDQsNjQuNzAyNjkwOTcyMjIyMjEsMCkiLz48dXNlIHhsaW5rOmhyZWY9IiNhcyIgdHJhbnNmb3JtPSJtYXRyaXgoMC4wMTA4NTA2OTQ0NDQ0NDQ0NDQsMCwwLDAuMDEwODUwNjk0NDQ0NDQ0NDQ0LDc2Ljc1NzgxMjUsMCkiLz48dXNlIHhsaW5rOmhyZWY9IiNhcyIgdHJhbnNmb3JtPSJtYXRyaXgoMC4wMTA4NTA2OTQ0NDQ0NDQ0NDQsMCwwLDAuMDEwODUwNjk0NDQ0NDQ0NDQ0LDg5LjcxMzU0MTY2NjY2NjY2LDApIi8+PC9nPjxnIGlkPSJXIj48dXNlIHhsaW5rOmhyZWY9IiNheCIgdHJhbnNmb3JtPSJtYXRyaXgoMC4wMTA4NTA2OTQ0NDQ0NDQ0NDQsMCwwLDAuMDEwODUwNjk0NDQ0NDQ0NDQ0LDAsMCkiLz48dXNlIHhsaW5rOmhyZWY9IiNhdyIgdHJhbnNmb3JtPSJtYXRyaXgoMC4wMTA4NTA2OTQ0NDQ0NDQ0NDQsMCwwLDAuMDEwODUwNjk0NDQ0NDQ0NDQ0LDUuOTY3ODgxOTQ0NDQ0NDQ1LDApIi8+PHVzZSB4bGluazpocmVmPSIjYUciIHRyYW5zZm9ybT0ibWF0cml4KDAuMDEwODUwNjk0NDQ0NDQ0NDQ0LDAsMCwwLjAxMDg1MDY5NDQ0NDQ0NDQ0NCwxOS4wOTcyMjIyMjIyMjIyMiwwKSIvPjx1c2UgeGxpbms6aHJlZj0iI2FGIiB0cmFuc2Zvcm09Im1hdHJpeCgwLjAxMDg1MDY5NDQ0NDQ0NDQ0NCwwLDAsMC4wMTA4NTA2OTQ0NDQ0NDQ0NDQsMzIuNzAzOTkzMDU1NTU1NTYsMCkiLz48dXNlIHhsaW5rOmhyZWY9IiNheSIgdHJhbnNmb3JtPSJtYXRyaXgoMC4wMTA4NTA2OTQ0NDQ0NDQ0NDQsMCwwLDAuMDEwODUwNjk0NDQ0NDQ0NDQ0LDQ1Ljg0NDE4NDAyNzc3Nzc4LDApIi8+PC9nPjxwYXRoIGlkPSJhUSIgZD0iTTE4MCAwdi0xNDkwaDE5MHY2NDRoNzgydi02NDRoMTkwVjBoLTE5MHYtNjc4SDM3MFYwSDE4MCIvPjxnIGlkPSJYIj48dXNlIHhsaW5rOmhyZWY9IiNhUSIgdHJhbnNmb3JtPSJtYXRyaXgoMC4wMTA4NTA2OTQ0NDQ0NDQ0NDQsMCwwLDAuMDEwODUwNjk0NDQ0NDQ0NDQ0LDAsMCkiLz48dXNlIHhsaW5rOmhyZWY9IiNhaiIgdHJhbnNmb3JtPSJtYXRyaXgoMC4wMTA4NTA2OTQ0NDQ0NDQ0NDQsMCwwLDAuMDEwODUwNjk0NDQ0NDQ0NDQ0LDE2LjUxNDc1Njk0NDQ0NDQ0MywwKSIvPjx1c2UgeGxpbms6aHJlZj0iI2FrIiB0cmFuc2Zvcm09Im1hdHJpeCgwLjAxMDg1MDY5NDQ0NDQ0NDQ0NCwwLDAsMC4wMTA4NTA2OTQ0NDQ0NDQ0NDQsMjguOTkzMDU1NTU1NTU1NTU0LDApIi8+PC9nPjxnIGlkPSJZIj48dXNlIHhsaW5rOmhyZWY9IiNhaiIgdHJhbnNmb3JtPSJtYXRyaXgoMC4wMTA4NTA2OTQ0NDQ0NDQ0NDQsMCwwLDAuMDEwODUwNjk0NDQ0NDQ0NDQ0LDAsMCkiLz48dXNlIHhsaW5rOmhyZWY9IiNhayIgdHJhbnNmb3JtPSJtYXRyaXgoMC4wMTA4NTA2OTQ0NDQ0NDQ0NDQsMCwwLDAuMDEwODUwNjk0NDQ0NDQ0NDQ0LDEyLjQ3ODI5ODYxMTExMTExLDApIi8+PHVzZSB4bGluazpocmVmPSIjYWsiIHRyYW5zZm9ybT0ibWF0cml4KDAuMDEwODUwNjk0NDQ0NDQ0NDQ0LDAsMCwwLjAxMDg1MDY5NDQ0NDQ0NDQ0NCwyNC4yMDc4OTkzMDU1NTU1NTQsMCkiLz48dXNlIHhsaW5rOmhyZWY9IiNhdiIgdHJhbnNmb3JtPSJtYXRyaXgoMC4wMTA4NTA2OTQ0NDQ0NDQ0NDQsMCwwLDAuMDEwODUwNjk0NDQ0NDQ0NDQ0LDM1LjkzNzUsMCkiLz48dXNlIHhsaW5rOmhyZWY9IiNhdSIgdHJhbnNmb3JtPSJtYXRyaXgoMC4wMTA4NTA2OTQ0NDQ0NDQ0NDQsMCwwLDAuMDEwODUwNjk0NDQ0NDQ0NDQ0LDQxLjMxOTQ0NDQ0NDQ0NDQ0LDApIi8+PHVzZSB4bGluazpocmVmPSIjYXciIHRyYW5zZm9ybT0ibWF0cml4KDAuMDEwODUwNjk0NDQ0NDQ0NDQ0LDAsMCwwLjAxMDg1MDY5NDQ0NDQ0NDQ0NCw1NC45NDc5MTY2NjY2NjY2NjQsMCkiLz48dXNlIHhsaW5rOmhyZWY9IiNhcyIgdHJhbnNmb3JtPSJtYXRyaXgoMC4wMTA4NTA2OTQ0NDQ0NDQ0NDQsMCwwLDAuMDEwODUwNjk0NDQ0NDQ0NDQ0LDY4LjA3NzI1Njk0NDQ0NDQ0LDApIi8+PHVzZSB4bGluazpocmVmPSIjYW4iIHRyYW5zZm9ybT0ibWF0cml4KDAuMDEwODUwNjk0NDQ0NDQ0NDQ0LDAsMCwwLjAxMDg1MDY5NDQ0NDQ0NDQ0NCw4MS4wMzI5ODYxMTExMTExMSwwKSIvPjwvZz48ZyBpZD0iWiI+PHVzZSB4bGluazpocmVmPSIjYW0iIHRyYW5zZm9ybT0ibWF0cml4KDAuMDEwODUwNjk0NDQ0NDQ0NDQ0LDAsMCwwLjAxMDg1MDY5NDQ0NDQ0NDQ0NCwwLDApIi8+PHVzZSB4bGluazpocmVmPSIjYWciIHRyYW5zZm9ybT0ibWF0cml4KDAuMDEwODUwNjk0NDQ0NDQ0NDQ0LDAsMCwwLjAxMDg1MDY5NDQ0NDQ0NDQ0NCw3Ljk5Njk2MTgwNTU1NTU1NSwwKSIvPjx1c2UgeGxpbms6aHJlZj0iI2FMIiB0cmFuc2Zvcm09Im1hdHJpeCgwLjAxMDg1MDY5NDQ0NDQ0NDQ0NCwwLDAsMC4wMTA4NTA2OTQ0NDQ0NDQ0NDQsMjEuMzIxNjE0NTgzMzMzMzMyLDApIi8+PHVzZSB4bGluazpocmVmPSIjYXMiIHRyYW5zZm9ybT0ibWF0cml4KDAuMDEwODUwNjk0NDQ0NDQ0NDQ0LDAsMCwwLjAxMDg1MDY5NDQ0NDQ0NDQ0NCwyNi43MDM1NTkwMjc3Nzc3OCwwKSIvPjx1c2UgeGxpbms6aHJlZj0iI2F6IiB0cmFuc2Zvcm09Im1hdHJpeCgwLjAxMDg1MDY5NDQ0NDQ0NDQ0NCwwLDAsMC4wMTA4NTA2OTQ0NDQ0NDQ0NDQsMzkuNjU5Mjg4MTk0NDQ0NDQsMCkiLz48L2c+PGcgaWQ9ImFhIj48dXNlIHhsaW5rOmhyZWY9IiNhcCIgdHJhbnNmb3JtPSJtYXRyaXgoMC4wMTA4NTA2OTQ0NDQ0NDQ0NDQsMCwwLDAuMDEwODUwNjk0NDQ0NDQ0NDQ0LDAsMCkiLz48dXNlIHhsaW5rOmhyZWY9IiNhbiIgdHJhbnNmb3JtPSJtYXRyaXgoMC4wMTA4NTA2OTQ0NDQ0NDQ0NDQsMCwwLDAuMDEwODUwNjk0NDQ0NDQ0NDQ0LDE1LjMzMjAzMTI1LDApIi8+PHVzZSB4bGluazpocmVmPSIjYW4iIHRyYW5zZm9ybT0ibWF0cml4KDAuMDEwODUwNjk0NDQ0NDQ0NDQ0LDAsMCwwLjAxMDg1MDY5NDQ0NDQ0NDQ0NCwyOC45Mzg4MDIwODMzMzMzMzIsMCkiLz48L2c+PGcgaWQ9ImFiIj48dXNlIHhsaW5rOmhyZWY9IiNhcyIgdHJhbnNmb3JtPSJtYXRyaXgoMC4wMTA4NTA2OTQ0NDQ0NDQ0NDQsMCwwLDAuMDEwODUwNjk0NDQ0NDQ0NDQ0LDAsMCkiLz48dXNlIHhsaW5rOmhyZWY9IiNhTSIgdHJhbnNmb3JtPSJtYXRyaXgoMC4wMTA4NTA2OTQ0NDQ0NDQ0NDQsMCwwLDAuMDEwODUwNjk0NDQ0NDQ0NDQ0LDEyLjk1NTcyOTE2NjY2NjY2NiwwKSIvPjx1c2UgeGxpbms6aHJlZj0iI2FHIiB0cmFuc2Zvcm09Im1hdHJpeCgwLjAxMDg1MDY5NDQ0NDQ0NDQ0NCwwLDAsMC4wMTA4NTA2OTQ0NDQ0NDQ0NDQsMzIuNDIxODc1LDApIi8+PHVzZSB4bGluazpocmVmPSIjYUwiIHRyYW5zZm9ybT0ibWF0cml4KDAuMDEwODUwNjk0NDQ0NDQ0NDQ0LDAsMCwwLjAxMDg1MDY5NDQ0NDQ0NDQ0NCw0Ni4wMjg2NDU4MzMzMzMzMywwKSIvPjx1c2UgeGxpbms6aHJlZj0iI2FnIiB0cmFuc2Zvcm09Im1hdHJpeCgwLjAxMDg1MDY5NDQ0NDQ0NDQ0NCwwLDAsMC4wMTA4NTA2OTQ0NDQ0NDQ0NDQsNTEuNDEwNTkwMjc3Nzc3NzgsMCkiLz48dXNlIHhsaW5rOmhyZWY9IiNhTyIgdHJhbnNmb3JtPSJtYXRyaXgoMC4wMTA4NTA2OTQ0NDQ0NDQ0NDQsMCwwLDAuMDEwODUwNjk0NDQ0NDQ0NDQ0LDY0LjMwMTIxNTI3Nzc3Nzc3LDApIi8+PHVzZSB4bGluazpocmVmPSIjYXMiIHRyYW5zZm9ybT0ibWF0cml4KDAuMDEwODUwNjk0NDQ0NDQ0NDQ0LDAsMCwwLjAxMDg1MDY5NDQ0NDQ0NDQ0NCw3Ni4zNTYzMzY4MDU1NTU1NCwwKSIvPjx1c2UgeGxpbms6aHJlZj0iI2FzIiB0cmFuc2Zvcm09Im1hdHJpeCgwLjAxMDg1MDY5NDQ0NDQ0NDQ0NCwwLDAsMC4wMTA4NTA2OTQ0NDQ0NDQ0NDQsODkuMzEyMDY1OTcyMjIyMjEsMCkiLz48L2c+PHBhdGggaWQ9ImFSIiBkPSJNNzgzIDIwYy0zODIgMC02NjEtMjkyLTY2MS03NjQgMC00NzMgMjc5LTc2NiA2NjEtNzY2IDMwMiAwIDU0OCAxODIgNjAxIDQ4OWgtMTkwYy00Mi0yMDQtMjE3LTMxMy00MTEtMzEzLTI2OCAwLTQ3NiAyMDgtNDc2IDU5MCAwIDM4MSAyMDkgNTg4IDQ3NiA1ODggMTk1IDAgMzY5LTExMCA0MTEtMzEzaDE5MGMtNTIgMzAzLTI5NiA0ODktNjAxIDQ4OSIvPjxnIGlkPSJhYyI+PHVzZSB4bGluazpocmVmPSIjYVIiIHRyYW5zZm9ybT0ibWF0cml4KDAuMDEwODUwNjk0NDQ0NDQ0NDQ0LDAsMCwwLjAxMDg1MDY5NDQ0NDQ0NDQ0NCwwLDApIi8+PHVzZSB4bGluazpocmVmPSIjYUwiIHRyYW5zZm9ybT0ibWF0cml4KDAuMDEwODUwNjk0NDQ0NDQ0NDQ0LDAsMCwwLjAxMDg1MDY5NDQ0NDQ0NDQ0NCwxNi4yMzI2Mzg4ODg4ODg4OSwwKSIvPjx1c2UgeGxpbms6aHJlZj0iI2F2IiB0cmFuc2Zvcm09Im1hdHJpeCgwLjAxMDg1MDY5NDQ0NDQ0NDQ0NCwwLDAsMC4wMTA4NTA2OTQ0NDQ0NDQ0NDQsMjEuNjE0NTgzMzMzMzMzMzM2LDApIi8+PHVzZSB4bGluazpocmVmPSIjYXMiIHRyYW5zZm9ybT0ibWF0cml4KDAuMDEwODUwNjk0NDQ0NDQ0NDQ0LDAsMCwwLjAxMDg1MDY5NDQ0NDQ0NDQ0NCwyNi45OTY1Mjc3Nzc3Nzc3OCwwKSIvPjx1c2UgeGxpbms6aHJlZj0iI2F3IiB0cmFuc2Zvcm09Im1hdHJpeCgwLjAxMDg1MDY5NDQ0NDQ0NDQ0NCwwLDAsMC4wMTA4NTA2OTQ0NDQ0NDQ0NDQsMzkuOTUyMjU2OTQ0NDQ0NDQsMCkiLz48dXNlIHhsaW5rOmhyZWY9IiNheSIgdHJhbnNmb3JtPSJtYXRyaXgoMC4wMTA4NTA2OTQ0NDQ0NDQ0NDQsMCwwLDAuMDEwODUwNjk0NDQ0NDQ0NDQ0LDUzLjA4MTU5NzIyMjIyMjIyLDApIi8+PHVzZSB4bGluazpocmVmPSIjYWsiIHRyYW5zZm9ybT0ibWF0cml4KDAuMDEwODUwNjk0NDQ0NDQ0NDQ0LDAsMCwwLjAxMDg1MDY5NDQ0NDQ0NDQ0NCw2MC4xMzQ1NDg2MTExMTExMiwwKSIvPjwvZz48ZyBpZD0iYWQiPjx1c2UgeGxpbms6aHJlZj0iI2FSIiB0cmFuc2Zvcm09Im1hdHJpeCgwLjAxMDg1MDY5NDQ0NDQ0NDQ0NCwwLDAsMC4wMTA4NTA2OTQ0NDQ0NDQ0NDQsMCwwKSIvPjx1c2UgeGxpbms6aHJlZj0iI2FMIiB0cmFuc2Zvcm09Im1hdHJpeCgwLjAxMDg1MDY5NDQ0NDQ0NDQ0NCwwLDAsMC4wMTA4NTA2OTQ0NDQ0NDQ0NDQsMTYuMjMyNjM4ODg4ODg4ODksMCkiLz48dXNlIHhsaW5rOmhyZWY9IiNhdiIgdHJhbnNmb3JtPSJtYXRyaXgoMC4wMTA4NTA2OTQ0NDQ0NDQ0NDQsMCwwLDAuMDEwODUwNjk0NDQ0NDQ0NDQ0LDIxLjYxNDU4MzMzMzMzMzMzNiwwKSIvPjx1c2UgeGxpbms6aHJlZj0iI2FzIiB0cmFuc2Zvcm09Im1hdHJpeCgwLjAxMDg1MDY5NDQ0NDQ0NDQ0NCwwLDAsMC4wMTA4NTA2OTQ0NDQ0NDQ0NDQsMjYuOTk2NTI3Nzc3Nzc3NzgsMCkiLz48dXNlIHhsaW5rOmhyZWY9IiNhdyIgdHJhbnNmb3JtPSJtYXRyaXgoMC4wMTA4NTA2OTQ0NDQ0NDQ0NDQsMCwwLDAuMDEwODUwNjk0NDQ0NDQ0NDQ0LDM5Ljk1MjI1Njk0NDQ0NDQ0LDApIi8+PHVzZSB4bGluazpocmVmPSIjYXkiIHRyYW5zZm9ybT0ibWF0cml4KDAuMDEwODUwNjk0NDQ0NDQ0NDQ0LDAsMCwwLjAxMDg1MDY5NDQ0NDQ0NDQ0NCw1My4wODE1OTcyMjIyMjIyMiwwKSIvPjwvZz48L2RlZnM+PC9nPjwvc3ZnPg==;movable=0;resizable=0;rotatable=0;deletable=0;editable=0;locked=1;connectable=0;" vertex="1" parent="1">
          <mxGeometry x="160" y="7" width="1200" height="600" as="geometry" />
        </mxCell>
        <mxCell id="bDFLVS8GLw-XfKNNbhOj-10" value="" style="edgeStyle=orthogonalEdgeStyle;rounded=0;orthogonalLoop=1;jettySize=auto;html=1;" edge="1" parent="1" source="bDFLVS8GLw-XfKNNbhOj-7" target="bDFLVS8GLw-XfKNNbhOj-9">
          <mxGeometry relative="1" as="geometry" />
        </mxCell>
        <mxCell id="bDFLVS8GLw-XfKNNbhOj-25" style="edgeStyle=orthogonalEdgeStyle;rounded=0;orthogonalLoop=1;jettySize=auto;html=1;" edge="1" parent="1" source="bDFLVS8GLw-XfKNNbhOj-7">
          <mxGeometry relative="1" as="geometry">
            <mxPoint x="470" y="470" as="targetPoint" />
            <Array as="points">
              <mxPoint x="470" y="422" />
            </Array>
          </mxGeometry>
        </mxCell>
        <mxCell id="bDFLVS8GLw-XfKNNbhOj-7" value="&lt;span style=&quot;font-size: 8px;&quot;&gt;Is remove Employee pressed?&lt;/span&gt;" style="rhombus;whiteSpace=wrap;html=1;" vertex="1" parent="1">
          <mxGeometry x="331" y="392" width="106" height="60" as="geometry" />
        </mxCell>
        <mxCell id="bDFLVS8GLw-XfKNNbhOj-33" style="edgeStyle=orthogonalEdgeStyle;rounded=0;orthogonalLoop=1;jettySize=auto;html=1;exitX=0;exitY=0.5;exitDx=0;exitDy=0;" edge="1" parent="1" source="bDFLVS8GLw-XfKNNbhOj-9">
          <mxGeometry relative="1" as="geometry">
            <mxPoint x="250" y="340" as="targetPoint" />
            <Array as="points">
              <mxPoint x="320" y="495" />
              <mxPoint x="320" y="540" />
              <mxPoint x="190" y="540" />
              <mxPoint x="190" y="340" />
            </Array>
          </mxGeometry>
        </mxCell>
        <mxCell id="bDFLVS8GLw-XfKNNbhOj-9" value="&lt;div&gt;&lt;font style=&quot;font-size: 8px;&quot;&gt;Is edit Employee pressed?&lt;/font&gt;&lt;/div&gt;" style="rhombus;whiteSpace=wrap;html=1;fontSize=9;" vertex="1" parent="1">
          <mxGeometry x="336" y="470" width="96" height="50" as="geometry" />
        </mxCell>
        <mxCell id="bDFLVS8GLw-XfKNNbhOj-22" value="&lt;font style=&quot;line-height: 50%; font-size: 8px;&quot;&gt;Remove Employee to database&lt;/font&gt;" style="rounded=1;whiteSpace=wrap;html=1;arcSize=8;strokeWidth=0.9;" vertex="1" parent="1">
          <mxGeometry x="460" y="470" width="80" height="30" as="geometry" />
        </mxCell>
        <mxCell id="bDFLVS8GLw-XfKNNbhOj-27" value="&lt;b&gt;Yes&lt;/b&gt;" style="text;html=1;align=center;verticalAlign=middle;whiteSpace=wrap;rounded=0;fontSize=7;" vertex="1" parent="1">
          <mxGeometry x="452" y="428" width="20" height="10" as="geometry" />
        </mxCell>
        <mxCell id="bDFLVS8GLw-XfKNNbhOj-29" style="edgeStyle=orthogonalEdgeStyle;rounded=0;orthogonalLoop=1;jettySize=auto;html=1;" edge="1" parent="1" source="bDFLVS8GLw-XfKNNbhOj-22">
          <mxGeometry relative="1" as="geometry">
            <mxPoint x="490" y="370" as="targetPoint" />
            <mxPoint x="490" y="470" as="sourcePoint" />
            <Array as="points">
              <mxPoint x="490" y="390" />
            </Array>
          </mxGeometry>
        </mxCell>
        <mxCell id="bDFLVS8GLw-XfKNNbhOj-31" value="&lt;b&gt;No&lt;/b&gt;" style="text;html=1;align=center;verticalAlign=middle;whiteSpace=wrap;rounded=0;fontSize=7;" vertex="1" parent="1">
          <mxGeometry x="381" y="452" width="20" height="10" as="geometry" />
        </mxCell>
        <mxCell id="bDFLVS8GLw-XfKNNbhOj-34" value="&lt;b&gt;Yes&lt;/b&gt;" style="text;html=1;align=center;verticalAlign=middle;whiteSpace=wrap;rounded=0;fontSize=7;" vertex="1" parent="1">
          <mxGeometry x="316" y="486" width="20" height="10" as="geometry" />
        </mxCell>
        <mxCell id="bDFLVS8GLw-XfKNNbhOj-37" value="" style="endArrow=classic;html=1;rounded=0;exitX=1;exitY=0.5;exitDx=0;exitDy=0;" edge="1" parent="1" source="bDFLVS8GLw-XfKNNbhOj-9">
          <mxGeometry width="50" height="50" relative="1" as="geometry">
            <mxPoint x="360" y="490" as="sourcePoint" />
            <mxPoint x="470" y="370" as="targetPoint" />
          </mxGeometry>
        </mxCell>
        <mxCell id="bDFLVS8GLw-XfKNNbhOj-38" value="&lt;b&gt;No&lt;/b&gt;" style="text;html=1;align=center;verticalAlign=middle;whiteSpace=wrap;rounded=0;fontSize=7;" vertex="1" parent="1">
          <mxGeometry x="424" y="462" width="20" height="10" as="geometry" />
        </mxCell>
      </root>
    </mxGraphModel>
  </diagram>
</mxfile>
